<svg width="482" height="83" viewBox="0 0 482 83" fill="none" xmlns="http://www.w3.org/2000/svg">
<path d="M0.015625 82.7449V1.24487H17.3073V68.474H50.3698V82.7449H0.015625Z" fill="#E2C044"/>
<path d="M114.404 82.745L108.508 63.3491H78.7786L72.8828 82.745H54.2578L83.0286 0.911621H104.154L133.029 82.745H114.404ZM104.383 48.8491L98.4661 29.8908C98.0911 28.6304 97.5964 27.0054 96.987 25.0158C96.3724 23.0314 95.763 21.0106 95.1536 18.9533C94.5391 16.8856 94.0495 15.0887 93.6745 13.5575C93.2995 15.0887 92.7839 16.9741 92.1328 19.2241C91.4766 21.4741 90.8516 23.6095 90.2578 25.62C89.6745 27.62 89.2474 29.047 88.987 29.8908L83.1328 48.8491H104.383Z" fill="#E2C044"/>
<path d="M209.164 82.7449H189.435L170.477 51.9115L151.519 82.7449H133.019L160.06 40.7032L134.748 1.24487H153.81L171.373 30.5574L188.602 1.24487H207.206L181.623 41.6615L209.164 82.7449Z" fill="#E2C044"/>
<path d="M287.047 41.224C287.047 50.3907 285.286 58.0522 281.776 64.2032C278.26 70.3595 273.177 74.9897 266.526 78.099C259.87 81.198 251.865 82.7449 242.505 82.7449H219.422V1.24487H245.026C253.568 1.24487 260.974 2.7605 267.255 5.78654C273.531 8.81779 278.401 13.297 281.859 19.224C285.318 25.1563 287.047 32.4897 287.047 41.224ZM269.089 41.6615C269.089 35.6355 268.203 30.6824 266.443 26.8074C264.677 22.922 262.073 20.0522 258.63 18.2032C255.198 16.3438 250.953 15.4115 245.901 15.4115H236.714V68.474H244.13C252.557 68.474 258.823 66.224 262.922 61.724C267.031 57.224 269.089 50.5365 269.089 41.6615Z" fill="white"/>
<path d="M303.924 82.7449V1.24487H321.215V82.7449H303.924Z" fill="white"/>
<path d="M414.028 82.7449H392.07L356.612 21.099H356.112C356.247 23.6563 356.372 26.2397 356.487 28.849C356.596 31.448 356.705 34.0365 356.82 36.6199C356.945 39.2032 357.06 41.797 357.174 44.3907V82.7449H341.716V1.24487H363.528L398.924 62.2865H399.299C399.226 59.7605 399.138 57.2553 399.028 54.7657C398.914 52.2657 398.81 49.7761 398.716 47.2865C398.632 44.8022 398.549 42.3178 398.466 39.8282V1.24487H414.028V82.7449Z" fill="white"/>
<path d="M481.461 82.7449H434.523V1.24487H481.461V15.4115H451.815V33.3074H479.398V47.4532H451.815V68.474H481.461V82.7449Z" fill="white"/>
</svg>
