<svg width="70" height="71" viewBox="0 0 70 71" fill="none" xmlns="http://www.w3.org/2000/svg">
<g clip-path="url(#clip0_96_171)">
<path d="M34.6114 0.500122V49.2443" stroke="#F5A056" stroke-width="0.944878"/>
<path d="M30.6213 0.8703L38.6016 48.874" stroke="#F5A056" stroke-width="0.944878"/>
<path d="M26.7522 1.96979L42.4705 47.7744" stroke="#F5A056" stroke-width="0.944878"/>
<path d="M23.122 3.7652L46.1006 45.979" stroke="#F5A056" stroke-width="0.944878"/>
<path d="M19.8408 6.20197L49.3814 43.5422" stroke="#F5A056" stroke-width="0.944878"/>
<path d="M17.0085 9.20618L52.2136 40.5383" stroke="#F5A056" stroke-width="0.944878"/>
<path d="M14.7111 12.6861L54.511 37.0582" stroke="#F5A056" stroke-width="0.944878"/>
<path d="M13.0182 16.5365L56.2038 33.208" stroke="#F5A056" stroke-width="0.944878"/>
<path d="M11.9815 20.6402L57.2404 29.1045" stroke="#F5A056" stroke-width="0.944878"/>
<path d="M11.6324 24.8723H57.5894" stroke="#F5A056" stroke-width="0.944878"/>
<path d="M11.9815 29.1045L57.2402 20.6402" stroke="#F5A056" stroke-width="0.944878"/>
<path d="M13.0182 33.2082L56.2036 16.5367" stroke="#F5A056" stroke-width="0.944878"/>
<path d="M14.7109 37.0585L54.5108 12.6865" stroke="#F5A056" stroke-width="0.944878"/>
<path d="M17.0084 40.5388L52.2134 9.2066" stroke="#F5A056" stroke-width="0.944878"/>
<path d="M19.8406 43.5427L49.3811 6.20264" stroke="#F5A056" stroke-width="0.944878"/>
<path d="M23.1216 45.9797L46.1002 3.76587" stroke="#F5A056" stroke-width="0.944878"/>
<path d="M26.7517 47.775L42.47 1.97046" stroke="#F5A056" stroke-width="0.944878"/>
<path d="M30.6208 48.8746L38.6011 0.871155" stroke="#F5A056" stroke-width="0.944878"/>
<path d="M34.6107 46.8605C46.0601 46.8605 55.3416 37.016 55.3416 24.8723C55.3416 12.7286 46.0601 2.88416 34.6107 2.88416C23.1614 2.88416 13.8798 12.7286 13.8798 24.8723C13.8798 37.016 23.1614 46.8605 34.6107 46.8605Z" stroke="#FEFEFE" stroke-width="2.83463"/>
<path fill-rule="evenodd" clip-rule="evenodd" d="M34.6108 9.14166C42.9732 9.14166 49.7523 16.1845 49.7523 24.8723C49.7523 33.56 42.9732 40.6029 34.6108 40.6029C26.2483 40.6029 19.4693 33.56 19.4693 24.8723C19.4693 16.1845 26.2483 9.14166 34.6108 9.14166Z" fill="#FEFEFE"/>
<mask id="mask0_96_171" style="mask-type:luminance" maskUnits="userSpaceOnUse" x="19" y="9" width="31" height="32">
<path d="M34.6108 9.14166C42.9732 9.14166 49.7523 16.1845 49.7523 24.8723C49.7523 33.56 42.9732 40.6029 34.6108 40.6029C26.2483 40.6029 19.4693 33.56 19.4693 24.8723C19.4693 16.1845 26.2483 9.14166 34.6108 9.14166Z" fill="white"/>
</mask>
<g mask="url(#mask0_96_171)">
<path d="M21.2444 17.113L21.2733 17.2347L21.2444 17.113Z" fill="white"/>
<path d="M21.0858 15.9164L21.6765 17.2057C21.6765 17.2057 21.2009 16.3438 21.0858 15.9164Z" fill="white"/>
<path fill-rule="evenodd" clip-rule="evenodd" d="M30.6268 9.30727C22.3801 11.5494 17.4567 20.2944 19.6277 28.8422C21.7969 37.3898 30.2419 42.5019 38.4866 40.2598C46.7331 38.0175 51.6586 29.2707 49.4865 20.7237C47.6617 13.5362 41.4032 8.77898 34.5549 8.77991C33.2585 8.77991 31.9393 8.95067 30.6268 9.30727Z" fill="#434242"/>
<path fill-rule="evenodd" clip-rule="evenodd" d="M37.7125 9.38723C37.3756 9.36786 37.3013 9.43679 37.0038 9.45323C37.2036 9.4886 37.3342 9.50482 37.5439 9.52059C37.5846 9.52915 37.7728 9.54267 37.8452 9.54605C37.6239 9.5492 37.5613 9.567 37.3283 9.57308C37.4409 9.59515 37.6473 9.66071 37.7357 9.66656C37.996 9.68256 38.2303 9.73662 38.5455 9.76929C38.6084 9.77537 38.6818 9.78618 38.6744 9.75397C38.6508 9.74811 38.6107 9.72829 38.5597 9.71995C38.6016 9.71162 38.6952 9.74383 38.6874 9.70959C38.6717 9.67783 38.6621 9.68098 38.7258 9.6767C38.6254 9.63615 38.6232 9.62444 38.4811 9.61408C38.4353 9.61227 38.3947 9.60642 38.3407 9.60011C38.2959 9.60056 38.2605 9.5911 38.2231 9.58164C38.1934 9.57375 38.1621 9.56587 38.1248 9.56249C38.0704 9.54785 38.0447 9.54334 37.9759 9.54875C38.0326 9.53906 38.1067 9.54537 38.0959 9.52622C38.0993 9.50865 38.1024 9.52735 38.0818 9.48905C38.1075 9.49581 38.0967 9.49266 38.1643 9.49311C38.0642 9.46878 37.9642 9.42643 37.8204 9.40165C37.7873 9.39579 37.7514 9.39083 37.7125 9.38723ZM36.8961 9.34848C36.8096 9.3442 36.7213 9.33812 36.6283 9.33925C36.6881 9.35795 36.8124 9.36763 36.9245 9.36425C36.9131 9.36223 36.9075 9.35051 36.8961 9.34848C36.8965 9.34848 36.8957 9.34848 36.8961 9.34848ZM39.2319 9.76906C38.9662 9.72401 38.931 9.7997 38.7885 9.82358C38.7456 9.83912 38.6687 9.7988 38.6821 9.85489C38.7148 9.86435 38.7124 9.89161 38.8004 9.89566C38.9191 9.89972 39.0338 9.9058 39.1536 9.90828C39.1536 9.90828 39.3628 9.92067 39.3895 9.92968C39.517 9.9432 39.8551 9.99163 39.8347 9.95176C39.8064 9.91233 39.5299 9.83101 39.4318 9.81795C39.3823 9.81209 39.367 9.8211 39.3197 9.81952C39.3798 9.80781 39.3492 9.8202 39.3197 9.78033C39.3122 9.77785 39.3046 9.77605 39.2969 9.77469C39.2751 9.77086 39.2532 9.77109 39.2319 9.76906ZM37.0494 9.48545C37.008 9.4886 36.8555 9.46134 36.8589 9.49649C36.8772 9.52307 36.9798 9.55032 37.021 9.55055C37.1163 9.56699 37.3344 9.59268 37.3485 9.52847C37.3451 9.5278 37.3406 9.52712 37.3359 9.52622C37.2705 9.51496 37.0815 9.49085 37.0494 9.48545ZM40.0721 10.0383C40.0972 10.0486 40.1378 10.0666 40.2149 10.0851C40.2627 10.0935 40.2847 10.0973 40.2839 10.0711C40.2533 10.0714 40.2346 10.066 40.2077 10.0597C40.1941 10.0561 40.1779 10.0525 40.1573 10.0488C40.135 10.0448 40.108 10.0412 40.0721 10.0383ZM39.7 10.0396C39.3364 9.98014 39.2485 10.0126 39.0763 10.0461C38.9473 10.0554 38.091 10.1218 38.1196 9.99906C37.8805 10.0092 36.8483 9.98893 36.3018 10.1597C36.2468 10.1856 36.3107 10.2788 36.2774 10.3122C36.2294 10.3552 36.0937 10.3196 35.997 10.3162C35.8021 10.3162 35.0557 10.3171 34.7966 10.3888C34.7144 10.4223 34.8576 10.4579 34.8646 10.517C34.8743 10.5354 35.0468 10.5586 35.2021 10.5791C35.3187 10.5942 35.4255 10.6075 35.448 10.6161C35.4561 10.6321 34.9026 10.5859 34.9022 10.6039C34.8476 10.6183 34.787 10.6032 34.7102 10.5861C34.6356 10.569 34.5453 10.5494 34.4311 10.551C34.2661 10.5652 34.0458 10.6573 33.8118 10.6825C33.7979 10.6988 33.8602 10.703 33.925 10.7078C33.9872 10.7125 34.052 10.7172 34.0571 10.7332C34.0588 10.7539 34.1654 10.765 34.2518 10.7729C34.3181 10.7785 34.3718 10.7826 34.3572 10.7864C34.2835 10.8067 33.7151 10.7857 33.693 10.788C33.5768 10.7731 33.724 10.6129 33.6461 10.5794C33.6176 10.678 33.4239 10.7461 33.2111 10.8071C33.2829 10.8853 33.5269 10.9141 33.2844 11.0475C33.271 11.0581 33.3194 11.1635 33.4114 11.1707C33.5189 11.1585 33.7858 11.0727 33.9468 11.1038C33.9549 11.1033 34.2153 11.1403 34.3005 11.1869C34.3937 11.2169 34.2894 11.2622 34.2554 11.2635C34.2421 11.264 34.2083 11.238 34.1675 11.211C34.1214 11.1806 34.0662 11.1486 34.0195 11.15C33.8086 11.161 33.5259 11.1732 33.518 11.1878C33.5284 11.2836 33.6367 11.4065 33.4738 11.4261C33.4668 11.4282 33.3936 11.4845 33.3233 11.5368C33.2054 11.6034 32.9989 11.6715 32.9229 11.6974C32.8146 11.7222 32.9274 11.5692 32.9119 11.5615C32.8762 11.5559 33.1969 11.4111 33.1901 11.3786C33.1703 11.3583 33.2848 11.2955 33.2621 11.2691C33.2266 11.2349 33.076 11.2394 33.0586 11.1979C33.0308 11.1157 33.0777 11.0157 33.0529 10.9472C33.0178 10.8636 32.9097 10.8745 32.9032 10.833C32.901 10.7244 33.4666 10.6228 32.7643 10.6537C32.7247 10.655 32.6519 10.6618 32.5678 10.6724C32.6519 10.6559 32.7328 10.633 32.7575 10.6251C32.6733 10.6055 32.654 10.5913 32.5572 10.5996C32.4947 10.6104 32.4501 10.6339 32.4416 10.6661C32.4433 10.676 32.4268 10.6913 32.4395 10.6918C32.373 10.7033 32.3108 10.7159 32.2675 10.7316C32.1415 10.7801 32.0948 10.8934 31.9803 10.9495C31.8578 11.0096 31.7747 11.0135 31.7029 11.0675C31.6471 11.1038 31.817 11.1009 31.8181 11.1378C31.8164 11.2157 31.7123 11.2635 31.7945 11.2658C31.8932 11.275 32.0268 11.2538 32.1332 11.2833C32.3076 11.3685 32.266 11.4282 32.101 11.4442C31.9982 11.4451 31.8486 11.4201 31.6932 11.4135C31.4324 11.4133 31.1611 11.3971 31.0035 11.4084C29.8961 11.4834 30.3632 11.6399 30.3419 11.6604C30.014 11.8048 30.0119 11.7521 30.0161 11.701C30.0187 11.6721 30.0225 11.6429 29.9692 11.651C29.7318 11.7046 29.1623 12.0013 28.8081 12.02C28.7951 11.9895 29.026 11.8875 28.9863 11.8911C28.8187 11.9053 28.4413 12.0846 28.0617 12.2847C27.9177 12.3579 27.8149 12.3687 27.6869 12.4245C27.4955 12.5349 27.5979 12.6232 27.2544 12.7C27.164 12.71 26.9915 12.7052 27.0225 12.6523C27.058 12.6293 27.3543 12.5595 27.3653 12.5174C27.3645 12.4137 26.9724 12.3878 26.8016 12.5755C26.7611 12.6201 26.9274 12.5692 26.7591 12.7694C26.7373 12.8019 26.8736 12.7893 26.8636 12.8514C26.8558 12.9003 26.6156 12.9812 26.557 12.9915C26.541 12.9983 26.5478 12.9803 26.5516 12.962C26.5567 12.9404 26.5582 12.9177 26.5168 12.935C26.3624 13.0037 26.068 13.2227 25.9812 13.2718C25.8833 13.315 26.0326 13.3673 25.9852 13.4205C25.9298 13.4671 25.6764 13.5133 25.3119 13.5766C25.3542 13.6255 25.3521 13.6417 25.3708 13.6825C25.447 13.6703 25.5116 13.6631 25.5885 13.6581C25.4389 13.6978 25.3387 13.8142 25.2376 13.7949C25.1737 13.798 25.1087 13.825 25.066 13.7973C25.0271 13.7507 25.0947 13.7421 25.0726 13.6845C25.0311 13.6221 24.96 13.5923 24.9141 13.5685C25.1764 13.4558 25.32 13.4015 25.5838 13.3346C25.9415 13.2488 26.7078 12.7095 25.6498 12.9555C25.3327 13.0193 25.1718 13.0422 24.9483 13.135C24.9252 13.1414 24.8143 13.1569 24.6556 13.2319C24.6372 13.2484 24.5051 13.2945 24.449 13.3213C24.4643 13.3062 24.4065 13.3222 24.3541 13.3351C24.5051 13.2441 24.5509 13.2416 24.6236 13.151C24.5626 13.1695 24.4562 13.2031 24.4186 13.2168C24.3634 13.2535 24.3354 13.2718 24.3124 13.3029C24.2506 13.3371 24.2649 13.324 24.2714 13.2758C24.1633 13.3549 24.1204 13.3912 24.021 13.4662C24.0365 13.45 24.0414 13.4567 24.0072 13.4378C23.9363 13.493 23.8883 13.545 23.8278 13.5912C22.9281 14.5383 22.142 15.5997 21.493 16.7493C21.4968 16.7508 21.5012 16.7515 21.5046 16.7522C21.51 16.7682 21.4966 16.7788 21.4902 16.7925C21.4949 16.8123 21.4566 16.9745 21.507 16.9468C21.5998 16.879 21.6525 16.7094 21.7336 16.6598C21.7759 16.6227 21.8285 16.6083 21.8891 16.5729C21.9218 16.4958 22.0186 16.4312 22.0596 16.3251C22.0186 16.3348 21.9914 16.353 22.0089 16.3055C22.0258 16.233 22.0524 16.11 22.1348 16.0498C22.1979 16.0174 22.3336 15.854 22.3485 15.8063C22.365 15.7412 22.3706 15.6687 22.2909 15.7047C22.2939 15.6761 22.3119 15.6599 22.2726 15.6673C22.2463 15.6186 22.2616 15.6605 22.2302 15.6175C22.2971 15.5499 22.2788 15.5229 22.3253 15.4517C22.3814 15.3654 22.4483 15.3008 22.543 15.2251C22.649 15.1262 22.8945 14.8976 22.9228 14.8212C22.9423 14.7951 22.9223 14.793 22.9453 14.748C22.9771 14.6549 23.1114 14.518 23.2758 14.4256C23.4019 14.3497 23.5625 14.2767 23.5425 14.3594C23.5183 14.4247 23.2789 14.6522 23.194 14.718C23.0587 14.8446 23.053 14.9167 22.8535 15.0404C22.8554 15.073 22.7958 15.1843 22.7909 15.2143C22.7887 15.2589 22.7777 15.2963 22.8244 15.2807C22.8079 15.3037 22.7546 15.3546 22.7369 15.3922C22.7295 15.4616 22.8195 15.4546 22.9198 15.3974C22.9187 15.4423 22.9266 15.4378 22.9973 15.3983C23.0816 15.3512 23.1411 15.3413 23.2558 15.2717C23.3524 15.2244 23.4656 15.1467 23.5432 15.0485C23.5725 15.0634 23.6355 15.042 23.6982 15.0208C23.7685 14.9964 23.8379 14.9717 23.8545 14.9989C23.7789 15.0615 23.6897 15.185 23.6194 15.2199C23.5228 15.2629 23.3414 15.2922 23.2224 15.3479C23.0927 15.4067 22.7518 15.7324 22.8191 15.7504C22.8975 15.7612 22.9907 15.625 23.0593 15.6862C23.1112 15.7401 22.9956 15.8768 22.9519 15.893C22.8935 15.921 22.8688 15.911 22.8461 15.9011C22.8251 15.8919 22.8057 15.8829 22.7639 15.9038C22.6747 15.9498 22.5383 16.2244 22.5207 16.317C22.4804 16.4598 22.3325 16.4985 22.2937 16.6346C22.2376 16.6682 22.1743 16.7038 22.1176 16.7319C22.1282 16.7159 22.1373 16.6972 22.1454 16.6812C22.0972 16.693 22.056 16.7204 21.991 16.7511C21.9358 16.7878 21.8493 16.8738 21.8124 16.9144C21.7332 16.9734 21.7126 16.9721 21.6285 17.0428C21.6015 17.0685 21.59 17.0894 21.548 17.1232C21.548 17.1232 21.4889 17.1192 21.4925 17.1093C21.4981 17.0978 21.515 17.073 21.5274 17.0518C21.4452 17.1007 21.3383 17.2318 21.2396 17.3066C21.233 17.3084 21.2205 17.2938 21.2111 17.2778C20.8097 18.0536 20.4699 18.8673 20.1978 19.7118C20.2218 19.7003 20.2297 19.7041 20.2373 19.7082C20.2469 19.7134 20.2562 19.7183 20.2955 19.6917C20.3713 19.6512 20.4215 19.5289 20.4928 19.4435C20.5351 19.3912 20.5374 19.3347 20.6001 19.298C20.7379 19.2171 20.8025 19.3061 20.7861 19.4985C20.7861 19.5187 20.7961 19.519 20.8116 19.5196C20.8267 19.5205 20.8475 19.5223 20.869 19.5444C20.9271 19.5994 20.9469 19.6354 21.0782 19.6109C21.0669 19.6422 21.1268 19.6354 21.1536 19.63C21.1565 19.6629 21.3326 19.8375 21.3538 19.8404C21.3519 19.8916 21.3944 19.8893 21.3887 19.9792C21.3787 20.0438 21.3521 20.1387 21.2965 20.1608C21.2988 20.1826 21.2988 20.1952 21.3441 20.1806C21.4159 20.1522 21.4205 20.0357 21.4687 19.9632C21.4687 19.9632 21.5165 19.8902 21.521 19.8632C21.5246 19.7825 21.4804 19.8472 21.4845 19.7708C21.4898 19.7177 21.4993 19.6309 21.5618 19.6037C21.6042 19.5911 21.6246 19.6025 21.6442 19.614C21.6614 19.6235 21.6784 19.6334 21.7113 19.6269C21.7415 19.505 21.5994 19.4635 21.511 19.4482C21.4976 19.4433 21.4792 19.4431 21.4611 19.4435C21.4212 19.4431 21.3821 19.4428 21.3993 19.3903C21.404 19.3757 21.4072 19.3565 21.4122 19.3419C21.3396 19.3662 21.2933 19.4205 21.2319 19.4102C21.1722 19.4016 21.1714 19.2903 21.168 19.223C21.1606 19.1707 21.137 19.1085 21.0765 19.1126C20.9904 19.1189 20.9964 19.1029 21.0085 19.0272C21.0017 18.9966 21.0242 18.961 21.0363 18.9267C21.0321 18.936 21.0174 18.9143 21.0212 18.9047C21.0229 18.8465 21.117 18.804 21.1712 18.7407C21.2054 18.7817 21.1561 18.8835 21.2058 18.8535C21.2708 18.8263 21.2927 18.8067 21.3385 18.7895C21.3264 18.9033 21.4388 19.0774 21.5397 19.029C21.5709 19.027 21.5737 19.006 21.6051 19.0006C21.6011 19.0536 21.6378 19.0533 21.6837 19.0547C21.7009 19.0556 21.72 19.0565 21.7383 19.0603C21.8013 19.0668 21.9041 19.1423 21.8995 19.223C21.892 19.2687 21.8895 19.3212 21.8855 19.3689C21.8742 19.4886 21.8513 19.5115 21.9084 19.5559C21.9596 19.5965 21.9827 19.6237 22.0069 19.7008C22.0021 19.7107 22.0108 19.7679 22.0341 19.753C22.0749 19.7501 22.0874 19.7305 22.1263 19.7222C22.1153 19.7548 22.0507 19.8643 22.0456 19.9229C22.0362 20.0477 22.1456 20.1774 22.238 20.1542C22.2678 20.1418 22.2867 20.1436 22.3172 20.1299C22.2429 20.1024 22.3232 19.9986 22.3251 19.9573C22.3257 19.9008 22.3196 19.7949 22.3015 19.7593C22.3002 19.7458 22.3002 19.7276 22.3056 19.7134C22.3347 19.7449 22.3837 19.8481 22.4425 19.847C22.4479 19.8436 22.4493 19.8438 22.4538 19.8416C22.4619 19.792 22.5279 19.7111 22.5585 19.6845C22.5504 19.6697 22.5413 19.6586 22.5385 19.6404C22.4816 19.6438 22.3444 19.5548 22.3482 19.5386C22.3446 19.5223 22.3678 19.4958 22.3752 19.462C22.3268 19.4275 22.3164 19.3998 22.2786 19.3698C22.2884 19.3451 22.31 19.2991 22.3421 19.2865C22.3705 19.2764 22.3844 19.2912 22.4003 19.3061C22.4173 19.3219 22.4375 19.3392 22.4831 19.3239C22.501 19.282 22.502 19.2419 22.491 19.1966C22.5653 19.1495 22.5897 19.0966 22.6857 19.0599C22.7403 19.043 22.7684 19.0518 22.7951 19.0599C22.8195 19.0671 22.8429 19.075 22.883 19.0626C22.9716 19.045 23.0109 19.0421 23.0861 18.9738C23.1579 18.9398 23.2549 18.9022 23.3146 18.8684C23.3486 18.8517 23.379 18.8501 23.3989 18.8197C23.3554 18.7706 23.2016 18.7472 23.2078 18.63C23.2154 18.5435 23.3276 18.4023 23.3983 18.3212C23.4002 18.2748 23.4036 18.2252 23.4089 18.1723C23.4261 18.1376 23.4244 18.1797 23.4544 18.079C23.4601 18.0254 23.52 17.9747 23.5924 17.9423C23.5814 17.9148 23.5914 17.8858 23.5907 17.8571C23.729 17.7756 23.7757 17.5575 23.9153 17.5078C23.9618 17.4956 24.1062 17.5429 24.295 17.5012C24.3228 17.4987 24.1406 17.6168 24.1608 17.6395C24.2691 17.7218 24.3511 17.797 24.4048 17.7878C24.4978 17.7519 24.8375 17.5454 24.9003 17.4762C24.8888 17.4805 24.7058 17.5048 24.7058 17.5048C24.6792 17.5071 24.5902 17.5224 24.5938 17.4487C24.6108 17.4109 25.1116 17.1149 25.3141 16.9986C25.3141 16.9986 25.2115 17.1097 25.1792 17.1311C25.1958 17.1629 25.372 17.2618 24.9504 17.4692C25.1201 17.7605 25.9357 17.5769 25.9495 18.0736C25.958 18.0732 25.971 18.0621 25.9805 18.063C25.8535 18.141 25.7501 18.2469 25.6035 18.2863C25.4598 18.3212 25.3213 18.3462 25.1786 18.3825C25.1015 18.3946 24.829 18.4206 24.8196 18.3464C24.7412 18.364 24.7045 18.3532 24.6661 18.3428C24.6238 18.3307 24.5798 18.3187 24.4775 18.3426C24.3562 18.3726 24.1689 18.4325 24.0782 18.5019C24.0004 18.562 23.8798 18.6686 23.8001 18.6949C23.7328 18.7166 23.6674 18.7307 23.5977 18.7517C23.5623 18.7594 23.4467 18.7675 23.4414 18.8254C23.4463 18.863 23.4752 18.8389 23.4881 18.8828C23.3675 18.9704 22.8527 19.0256 22.8289 19.2128C22.8238 19.2453 22.8877 19.2236 22.93 19.2108C22.917 19.2385 22.9192 19.2435 22.9251 19.2813C22.9117 19.3933 22.8514 19.3998 22.7904 19.4786C22.8716 19.4958 22.9368 19.5422 22.9871 19.6221C22.9272 19.7217 23.0944 19.7837 23.1352 19.8174C23.1284 19.8319 23.0999 19.8661 23.0814 19.8771C23.1065 19.8762 23.1243 19.8636 23.1492 19.858C23.2154 19.8017 23.2622 19.8377 23.3138 19.8749C23.3531 19.9037 23.3955 19.9328 23.4518 19.9204C23.5657 19.885 23.544 19.7226 23.6869 19.6807C23.7604 19.6652 23.8275 19.7019 23.8944 19.7395C23.9616 19.7762 24.0287 19.8134 24.103 19.7981C24.3014 19.7476 24.3405 19.6422 24.4556 19.5176C24.4851 19.5435 24.5293 19.5663 24.5972 19.5489C24.6514 19.5381 24.6716 19.4831 24.7359 19.4471C24.7327 19.4692 24.7327 19.5032 24.7325 19.5271C24.7189 19.5397 24.6903 19.5769 24.6837 19.6185C24.6862 19.7138 24.7153 19.8193 24.716 19.9598C24.7221 20.1567 24.5769 20.2121 24.5306 20.3928C24.4864 20.5638 24.4692 20.6548 24.4182 20.8528C24.4091 20.8814 24.3662 20.8978 24.3619 20.956C24.3791 20.9927 24.3972 21.0404 24.4086 21.0781C24.4001 21.0553 24.3868 21.0247 24.3774 21.0033C24.2865 21.0515 24.2685 21.0436 24.1621 21.0621C24.003 21.0956 23.8634 21.0429 23.7326 21.0718C23.5285 21.1139 23.6347 21.1724 23.4238 21.2191C23.1868 21.2729 22.9109 21.2168 22.7136 21.1637C22.6738 21.1562 22.6299 21.1648 22.5872 21.1738C22.5209 21.1887 22.4585 21.2035 22.427 21.1569C22.4045 21.1125 22.3436 21.1073 22.3423 20.9999C22.2918 21.0114 22.2648 21.0159 22.217 21.0332C22.2081 21.0317 22.2074 21.0247 22.2004 21.0224C22.0299 21.1506 21.8959 21.1815 21.8874 21.4297C21.8946 21.4754 21.8814 21.5342 21.884 21.5849C21.8848 21.6192 21.8283 21.7158 21.7767 21.73C21.5724 21.7841 21.4248 21.6951 21.2899 21.6077C21.1625 21.5252 21.0459 21.445 20.904 21.4894C20.8401 21.5025 20.8256 21.5216 20.7806 21.5311C20.702 21.5637 20.6105 21.4428 20.6118 21.263C20.6258 21.1616 20.6689 21.0799 20.6833 20.9713C20.6748 20.9087 20.6343 20.8983 20.6409 20.8366C20.6432 20.7417 20.7003 20.7366 20.7158 20.6271C20.678 20.6491 20.6927 20.6877 20.6513 20.6965C20.62 20.7145 20.6118 20.6874 20.602 20.6611C20.5924 20.6352 20.5816 20.6086 20.5476 20.623C20.462 20.6636 20.4665 20.7602 20.3862 20.7978C20.3499 20.8195 20.3378 20.8118 20.3263 20.8041C20.317 20.7978 20.3078 20.7915 20.2857 20.8019C20.1953 20.8582 20.2004 20.9352 20.1354 20.9767C20.1073 20.9871 20.0931 20.9803 20.0795 20.974C20.0668 20.9679 20.0542 20.9623 20.0321 20.9697C19.9432 21.0222 19.8763 21.1427 19.7783 21.2632C19.4336 22.8487 19.3194 24.5184 19.4714 26.2239C19.5177 26.7738 19.5959 27.3122 19.6925 27.8427C19.7034 27.8499 19.7174 27.8549 19.7335 27.858C19.8378 27.8632 19.7749 27.7792 19.8017 27.7452C19.9022 27.6713 20.0217 27.4933 20.1942 27.4956C20.2634 27.4989 20.2851 27.6152 20.3032 27.7312C20.3206 27.8436 20.3354 27.9558 20.389 27.9632C20.4535 27.9675 20.5451 27.9348 20.6135 27.9326C20.7517 27.9443 20.8416 28.0849 20.9163 28.2502C20.8915 28.3189 20.9165 28.5257 20.932 28.6181C20.9312 28.6453 20.9208 28.6613 20.9509 28.7296C20.9146 28.7713 20.8913 28.9269 20.9085 29.0121C20.9641 29.3511 21.2653 29.7158 21.4309 29.9742C21.5191 30.1094 21.5329 30.2646 21.5987 30.4153C21.6818 30.6045 21.7412 30.7122 21.8485 31.021C21.898 31.1837 21.953 31.2587 22.008 31.4326C22.0862 31.8027 21.8986 31.9235 22.0343 32.39C22.163 32.8196 22.3691 33.0899 22.5991 33.4222C22.6662 33.5233 22.7344 33.5654 22.7637 33.6571C22.7843 33.7121 22.7926 33.7673 22.8217 33.8225C23.0156 34.3616 23.2106 34.5909 23.4559 34.8441C23.5058 34.8914 23.7116 35.1991 23.8927 35.4282C23.9403 35.4825 23.9992 35.5341 23.9546 35.6008C24.0089 35.6596 24.052 35.7445 24.1013 35.8531C24.1175 35.8492 24.0954 35.8341 24.1381 35.8434C24.2009 35.9096 24.2576 35.9709 24.347 36.0049C24.4447 36.0353 24.4872 36.0128 24.5363 35.9909C24.5834 35.9697 24.6367 35.9497 24.7521 35.9799C24.8143 35.9984 24.8719 36.0526 24.9296 36.0777C24.9914 36.09 25.0082 36.0718 25.0834 36.0849C25.0702 36.0263 25.1509 36.0436 25.2336 36.0612C25.2854 36.0718 25.3383 36.0831 25.3699 36.0761C25.5757 36.0083 25.5853 35.8609 25.6836 35.6927C25.7424 35.5895 25.831 35.6048 25.934 35.4915C25.9867 35.4257 26.0636 35.2928 26.0113 35.1067C25.9935 35.0488 25.9389 34.9939 25.8703 34.956C25.9009 34.7945 25.7866 34.8051 26.0217 34.7339C26.0869 34.7123 26.2261 34.7323 26.276 34.6742C26.3223 34.6062 26.2717 34.3271 26.235 34.182C26.1657 33.9196 26.0152 33.9518 25.958 33.7569C25.934 33.6506 26.0192 33.5567 26.1162 33.5474C26.0986 33.0683 27.0527 33.216 26.9607 32.5909C26.949 32.5364 26.9254 32.4796 26.8696 32.4328C26.8394 32.2562 26.8006 32.0992 26.7738 31.9203C26.7679 31.8669 26.7668 31.7935 26.7645 31.7324C26.7634 31.716 26.8008 31.6518 26.7972 31.6096C26.7564 31.4585 26.4333 31.2585 26.3809 30.9757C26.3367 30.7257 26.1753 30.5072 26.1286 30.2474C26.0893 30.0091 26.2845 29.9532 26.3119 29.7361C26.349 29.4106 26.5661 29.4383 26.7373 29.2409C26.8082 29.1576 26.7736 28.8388 26.8503 28.7638C27.0408 28.5899 27.2419 28.4428 27.4505 28.2362C27.733 27.9567 27.8052 27.7145 28.0326 27.3284C28.2166 26.9977 28.5464 26.2086 28.5109 25.6749C28.5033 25.6344 28.4697 25.5956 28.4351 25.5438C28.1242 25.66 27.8901 25.8333 27.5673 25.9234C27.4358 25.9495 27.3502 25.8975 27.226 25.9527C27.1096 26.0056 27.1225 26.1142 26.9864 26.1293C26.8422 26.1358 26.7114 25.8677 26.5928 25.7815C26.6733 25.6661 26.5877 25.6573 26.5725 25.4988C26.3006 25.5211 26.1927 25.1692 26.0627 25.0667C25.8964 24.9637 25.8202 24.9676 25.6838 24.8374C25.5294 24.6916 25.5967 24.46 25.4421 24.2573C25.3164 24.0888 25.1259 23.9167 25.0377 23.6883C25.0212 23.5292 25.0171 23.381 25.0112 23.2262C24.8808 23.1314 24.6826 22.9906 24.7049 22.8005C24.4636 22.336 24.2243 21.8861 24.0113 21.448C24.0119 21.4083 24.003 21.3443 24.0091 21.3069C24.1223 21.4248 24.2623 21.7723 24.4084 21.7759C24.4299 21.6906 24.4991 21.4649 24.5312 21.3358C24.5108 21.4387 24.4932 21.5491 24.4978 21.6074C24.4947 21.6268 24.6055 21.7534 24.628 21.7892C24.7126 21.9181 24.7916 21.9868 24.8876 22.1298C24.9152 22.1704 24.9681 22.2332 24.9995 22.3184C25.0076 22.3621 25.0084 22.4995 25.0545 22.5452C25.0636 22.5554 25.0936 22.554 25.1257 22.5536C25.1588 22.5529 25.1945 22.552 25.2102 22.5651C25.2282 22.5856 25.2773 22.6365 25.3132 22.6626C25.3563 22.8237 25.4674 22.8473 25.4865 23.0523C25.5067 23.3889 25.577 23.5495 25.8635 23.5925C25.8699 23.8054 26.0668 24.0615 26.1761 24.16C26.2732 24.2496 26.4603 24.3287 26.4395 24.5353C26.4291 24.5997 26.38 24.7939 26.4688 24.7961C26.4909 24.9685 26.4807 25.1566 26.5769 25.2926C26.6442 25.3814 26.579 25.3852 26.5948 25.3936C26.6135 25.4032 26.8443 25.4934 26.8666 25.4938C26.8806 25.483 26.9021 25.4659 26.9161 25.4539C27.0981 25.4357 27.1045 25.2897 27.2413 25.1611C27.3511 25.1602 27.4556 25.1593 27.566 25.1584C27.672 25.0933 27.9795 24.7903 28.0842 24.7473C28.2973 24.6677 28.4914 24.5819 28.6868 24.4578C28.6762 24.4409 28.6443 24.3999 28.645 24.3778C28.639 24.1712 29.1267 24.0922 29.3735 24.0187C29.3652 23.9081 29.5234 23.7365 29.6075 23.7239C29.746 23.7049 29.7135 23.4493 29.8528 23.4265C29.9701 23.4134 29.9363 23.2584 29.9707 23.1427C29.9943 23.0262 30.0903 22.9829 30.2283 22.9658C30.2232 22.7394 30.5728 22.6067 30.5696 22.3907C30.5584 22.3292 30.4426 22.3436 30.3812 22.2634C30.3793 22.2648 30.3827 22.2697 30.381 22.272C30.3298 22.2483 30.2973 22.0913 30.1901 22.0711C29.9163 22.0181 29.7445 21.9969 29.5918 21.7446C29.5833 21.6264 29.5761 21.5234 29.5725 21.4081C29.2632 21.7021 29.2441 22.0641 28.6377 22.1452C28.4999 22.165 28.2773 22.1296 28.2644 22.0021C28.2505 21.8913 28.3153 21.8133 28.3075 21.7063C28.3041 21.6807 28.3 21.6336 28.2939 21.6084C28.2108 21.6451 28.2314 21.7507 28.1274 21.7933C28.1176 21.7309 28.0602 21.6937 28.0547 21.5935C27.8451 21.5705 27.589 21.2249 27.5299 21.0242C27.5136 20.9695 27.5091 20.912 27.5053 20.824C27.497 20.6996 27.5414 20.5399 27.6639 20.5185C27.9046 20.4834 28.0989 20.7251 28.2117 20.9084C28.2255 20.9366 28.21 21.0154 28.2633 21.063C28.3162 21.1067 28.3746 21.1103 28.434 21.1141C28.4948 21.1182 28.5564 21.1222 28.6148 21.1684C28.7125 21.2466 28.7843 21.35 28.9323 21.3795C29.0933 21.3624 29.2365 21.3439 29.3836 21.3218C29.4246 21.279 29.4622 21.1747 29.5665 21.1634C29.7526 21.1384 29.7719 21.4031 29.8715 21.4901C29.88 21.495 30.1633 21.5372 30.1992 21.5338C30.4481 21.5072 30.8646 21.5676 31.045 21.5469C31.0556 21.55 31.0794 21.5423 31.0913 21.5423C31.1416 21.5432 31.2181 21.5453 31.2875 21.5487C31.3005 21.5331 31.3389 21.4919 31.3678 21.4754C31.43 21.4858 31.532 21.5013 31.6165 21.5124C31.7127 21.5009 31.8253 21.4387 31.9425 21.4266C32.0415 21.4047 32.1169 21.3883 32.2282 21.4047C32.3439 21.432 32.4191 21.6367 32.5043 21.7485C32.6137 21.876 32.901 22.0343 33.0977 22.0159C33.1538 22.0066 33.2394 22.0019 33.3211 22.0127C33.2905 22.0388 33.2846 22.1393 33.2064 22.165C33.124 22.2053 33.0537 22.1621 32.9688 22.226C33.1213 22.3493 33.2583 22.6259 33.5645 22.6009C33.8164 22.5709 33.8273 22.3508 33.9443 22.2184C33.9621 22.2109 34.0035 22.2148 34.0227 22.2098C34.0235 22.2369 33.9738 22.3252 33.9757 22.3466C33.9863 22.4671 34.0889 22.5671 34.1057 22.721C34.1165 22.8435 34.0747 22.8627 34.0815 22.9938C34.0802 22.994 34.083 22.9953 34.0815 22.9938C34.0804 22.9924 34.0751 22.987 34.0738 22.9872C34.0728 23.0089 34.1014 23.0999 34.1012 23.1197C34.1174 23.2995 34.2367 23.4677 34.314 23.6511C34.4007 23.8574 34.5075 24.1352 34.5681 24.2699C34.6171 24.39 34.622 24.4398 34.7125 24.5639C34.7979 24.675 34.7641 24.795 34.8546 24.9403C34.8888 24.9926 35.04 25.0933 35.095 25.2235C35.177 25.4138 35.3023 25.5947 35.3994 25.8141C35.4096 25.8337 35.4599 25.9051 35.4949 25.9C35.5081 25.9468 35.5669 25.9912 35.6481 25.9804C35.7054 25.9718 35.7237 25.8581 35.7572 25.7788C35.7957 25.6751 35.818 25.7157 35.9325 25.6477C35.9828 25.6112 35.9497 25.3645 36.0888 25.3093C36.1085 25.3003 36.178 25.2821 36.1795 25.2622C36.1926 25.2568 36.2185 25.2519 36.2285 25.2476C36.2139 25.1883 36.1799 25.0876 36.1595 25.007C36.1387 24.8248 36.2377 24.6691 36.2239 24.4283C36.2062 24.276 36.1259 24.0726 36.1081 23.8975C36.0958 23.6959 36.2961 23.7236 36.4668 23.6473C36.5138 23.6281 36.6229 23.4945 36.6964 23.4031C36.867 23.1897 37.0125 22.9805 37.1873 22.7608C37.3298 22.586 37.5857 22.5182 37.7486 22.3184C37.8212 22.2236 37.8038 22.1193 37.8295 21.9701C37.8533 21.8798 38.0519 21.974 38.1101 21.8174C38.1836 21.8665 38.1895 21.91 38.3441 21.8985C38.5928 21.8751 38.8445 21.7974 38.8122 21.5036C38.9594 21.5173 39.1094 21.5705 39.1699 21.7052C39.216 21.8215 39.2181 21.9733 39.3005 22.0916C39.3978 22.2103 39.5029 22.2788 39.6365 22.3819C39.7555 22.5295 39.806 22.5479 39.8948 22.7388C39.906 22.7714 39.9496 22.8208 39.96 22.8539C39.9636 22.9597 39.9317 23.0138 39.9434 23.1357C39.9553 23.2584 39.9392 23.3468 40.0766 23.3353C40.3353 23.3105 40.3975 23.0631 40.5394 22.8897C40.5776 22.9347 40.5706 22.9782 40.6324 23.0305C40.6386 23.0361 40.6566 23.0384 40.677 23.0411C40.7053 23.0447 40.7388 23.0487 40.7554 23.0658C40.8497 23.2035 40.7269 23.4776 40.8471 23.4747C40.8735 23.7709 41.0965 24.1697 41.1347 24.5826C41.1358 24.6849 41.0995 24.8973 41.1645 24.9318C41.1577 24.932 41.1453 24.9338 41.1381 24.9342C41.1419 24.934 41.1262 24.9365 41.1203 24.9367C41.1088 25.0703 41.0527 25.1881 41.0648 25.3179C41.0634 25.3321 41.0532 25.3744 41.0674 25.3737C41.1543 25.4186 41.0918 25.3733 41.1823 25.3611C41.3378 25.3562 41.4108 25.6657 41.4816 25.7882C41.5948 25.9948 41.6134 26.1707 41.7184 26.4305C41.8348 26.7193 42.0898 26.9524 42.3591 27.0108C42.402 27.0205 42.4241 27.0869 42.5068 27.0714C42.5269 27.0727 42.542 27.0322 42.5628 27.0288C42.5923 27.0223 42.6401 27.0153 42.6711 27.0042C42.6287 26.9155 42.6172 26.8684 42.5792 26.756C42.5291 26.6499 42.4076 26.6136 42.4014 26.4555C42.3914 26.3935 42.428 26.3706 42.4237 26.2807C42.3846 25.8256 41.8925 25.8313 41.6343 25.615C41.5591 25.5558 41.5514 25.3956 41.5066 25.3339C41.5126 25.3339 41.5211 25.3325 41.5249 25.3323C41.5028 25.0653 41.2641 25.185 41.2337 24.8966C41.2195 24.6452 41.3511 24.5269 41.3263 24.2321C41.3229 24.1737 41.3955 24.0365 41.3951 23.9451C41.3913 23.909 41.3664 23.8437 41.4348 23.8336C41.5366 23.8257 41.6262 23.8347 41.6653 23.9397C41.6653 23.9397 41.705 24.0611 41.7175 24.0604C41.863 24.1012 41.9669 24.0965 42.0988 24.2183C42.2086 24.3269 42.1306 24.4767 42.3103 24.4607C42.3167 24.6094 42.4887 24.6358 42.6087 24.6234C42.617 24.6599 42.6474 24.7461 42.6769 24.7599C42.6539 24.7824 42.6497 24.8202 42.6576 24.8986C42.6618 24.9417 42.707 25.0829 42.7353 25.082C42.7612 25.0737 42.9111 24.9205 42.9086 24.8234C42.9073 24.7964 42.9005 24.745 42.8978 24.7184C42.9012 24.7403 42.908 24.8 42.9303 24.8015C43.0316 24.7898 42.9995 24.6432 43.0866 24.5738C43.2871 24.4224 43.2956 24.3244 43.5368 24.2224C43.5273 24.0485 43.601 23.964 43.5876 23.7408C43.5543 23.427 43.3795 23.1046 43.1809 22.9591C42.9704 22.8244 42.8693 22.5865 42.6595 22.3797C42.6338 22.3484 42.5909 22.3254 42.573 22.2418C42.5427 21.826 42.9016 21.7433 43.0305 21.4455C43.1021 21.4804 43.1339 21.4716 43.1662 21.4628C43.2002 21.4545 43.2348 21.4457 43.316 21.4844C43.3119 21.5218 43.5354 21.8514 43.598 21.8557C43.6932 21.8458 43.5802 21.7275 43.6341 21.6507C43.6785 21.5887 43.8312 21.5534 43.8903 21.5142C44.0336 21.429 44.2311 21.4962 44.3146 21.3903C44.3146 21.3903 44.3675 21.2299 44.3834 21.2238C44.4677 21.2159 44.3807 21.1792 44.4559 21.1792C44.8033 21.1576 44.8732 20.9325 45.0539 20.7848C45.1109 20.7559 45.1319 20.7181 45.1383 20.6314C45.3084 20.6219 45.3058 20.3272 45.3451 20.1664C45.3717 20.0689 45.4966 19.749 45.5949 19.7197C45.5675 19.5419 45.6516 19.4656 45.6098 19.2345C45.552 18.886 45.4804 18.8693 45.3216 18.6506C45.3022 18.6145 45.2727 18.521 45.2096 18.4742C45.2105 18.4739 45.2113 18.4692 45.2132 18.4674C45.2109 18.4688 45.216 18.4683 45.2132 18.4674C45.2109 18.467 45.2013 18.4658 45.1986 18.4656C45.1871 18.4253 45.1773 18.3694 45.1659 18.3178C45.1094 18.3009 44.9652 18.2275 44.9448 18.1151C44.9265 18.0191 45.0803 18 45.0996 17.9024C45.1191 17.7069 45.3502 17.8792 45.4534 17.7382C45.4125 17.6923 45.374 17.6916 45.3309 17.6898C45.2933 17.688 45.2519 17.6859 45.2018 17.6526C45.154 17.622 45.0973 17.4762 45.0219 17.471C44.9647 17.4679 45.0234 17.7053 44.9822 17.7125C44.9252 17.7055 44.8649 17.7303 44.804 17.6855C44.7124 17.617 44.7077 17.4643 44.6122 17.4028C44.5837 17.3816 44.4614 17.3514 44.4467 17.2922C44.4223 17.1629 44.623 17.2176 44.7067 17.1699C44.7776 17.1266 44.9068 17.0469 44.9418 16.977C44.9543 16.959 44.9526 16.9106 45.0299 16.9119C45.0843 16.9243 45.1623 17.0027 45.1767 17.0329C45.1996 17.1257 45.0903 17.1512 45.1068 17.2588C45.2931 17.276 45.3451 17.0962 45.5382 17.1129C45.5777 17.1183 45.607 17.1365 45.6372 17.1541C45.6675 17.1728 45.6988 17.1913 45.7429 17.1971C45.7259 17.2609 45.7616 17.2494 45.7752 17.323C45.781 17.3755 45.7215 17.3665 45.7372 17.4368C45.7419 17.4632 45.7693 17.5366 45.8185 17.5409C45.8385 17.5445 45.8451 17.5134 45.8935 17.521C45.9727 17.5355 46.0774 17.674 46.1014 17.7574C46.1161 17.8035 46.0804 17.8486 46.0311 17.8443C46.0341 17.8668 46.0469 17.8945 46.0464 17.9177C46.0634 17.929 46.0749 17.9666 46.1176 17.9756C46.1278 18.0146 46.1664 18.0637 46.1741 18.1047C46.1834 18.1225 46.1412 18.2212 46.1592 18.2723C46.1626 18.3007 46.1696 18.3422 46.2025 18.3505C46.21 18.385 46.1805 18.412 46.189 18.4458C46.2045 18.4494 46.2168 18.4494 46.2293 18.4489C46.2431 18.4487 46.2573 18.4487 46.2758 18.4528C46.3096 18.4037 46.306 18.4111 46.3759 18.3942C46.3705 18.3336 46.4893 18.3352 46.5315 18.3221C46.5984 18.2955 46.6167 18.2261 46.5783 18.0536C46.5148 17.7691 46.3725 17.544 46.2248 17.3951C46.1584 17.3386 46.0925 17.2836 46.0819 17.1856C46.1475 17.1962 46.1921 17.1631 46.2272 17.1268C46.2612 17.0739 46.334 17.0622 46.3482 17.0124C46.3869 16.8768 46.533 16.6939 46.6214 16.6173C46.6214 16.6173 46.6825 16.7655 46.8331 16.8024C47.115 16.8513 47.1502 16.3219 47.2409 16.1841C47.2817 16.1323 47.3068 16.0124 47.2866 15.8998C47.2598 15.7799 47.2082 15.7175 47.222 15.6211C47.2224 15.6191 47.2216 15.6168 47.2233 15.6139C47.0668 15.3857 46.9058 15.1613 46.7388 14.9437C46.5848 14.9054 46.4243 14.7045 46.413 14.6865C46.396 14.6441 46.4071 14.5937 46.4313 14.5495C45.343 13.2065 44.0474 12.0574 42.6008 11.1524C42.5698 11.1405 42.5407 11.1295 42.5104 11.1186C42.4927 11.1137 42.5146 11.1148 42.5414 11.1144C42.5898 11.1171 42.6556 11.1182 42.5558 11.0817C42.5153 11.0596 42.4526 11.0385 42.388 11.0191C42.2614 10.9842 42.1185 10.9542 42.034 10.9299C41.9265 10.895 41.8592 10.8873 41.7908 10.8794C41.7351 10.8727 41.6784 10.8663 41.6001 10.8447C41.3989 10.7807 41.3267 10.7566 41.2575 10.7199C40.7108 10.7433 40.2391 10.6345 40.2391 10.6345C40.3654 10.6023 41.4474 10.7026 41.516 10.6318C41.5463 10.5674 41.5315 10.564 41.3951 10.4901C41.3864 10.4865 41.3707 10.4908 41.3548 10.4944C41.3384 10.4985 41.3206 10.5023 41.3095 10.4974C41.2411 10.4591 41.1519 10.3831 40.9873 10.3403C40.7469 10.2935 40.5041 10.264 40.2482 10.2306C40.1571 10.159 40.015 10.0939 39.7451 10.047C39.7304 10.0446 39.7153 10.0423 39.7 10.0396ZM27.5968 18.5595C27.5454 18.4895 27.624 18.4291 27.5514 18.359C27.5159 18.3178 27.4526 18.3383 27.4435 18.2676C27.477 18.2692 27.5259 18.2642 27.5599 18.2597C27.6474 18.132 27.6504 17.991 27.7865 17.9103C27.5573 17.8538 27.2343 17.542 27.2283 17.3255C27.2254 17.2708 27.0584 17.2086 27.0544 17.114C27.0559 17.0863 27.2073 16.8254 27.2489 16.7819C27.2867 16.7885 27.5321 16.6366 27.5531 16.6294C27.7638 16.5244 27.863 16.4348 28.1425 16.3837C28.5834 16.2942 28.6838 16.4668 28.8557 16.626C28.7246 16.718 28.5636 16.6815 28.412 16.7119C28.1805 16.7493 27.856 16.968 27.8362 16.9723C27.8481 17.0969 27.9736 17.0667 28.0246 17.1243C28.1858 17.3041 28.432 17.31 28.4438 17.5614C28.4965 17.5323 28.6649 17.43 28.7272 17.4165C28.7463 17.5154 28.8869 17.59 28.8935 17.6907C28.8043 17.7022 28.7301 17.7213 28.6386 17.7326C28.577 17.7445 28.5031 17.8927 28.4846 17.9921C28.6673 17.9849 28.7578 18.045 28.7643 18.1705C28.7671 18.2149 28.7675 18.2872 28.7646 18.3298C28.7663 18.3789 28.7675 18.5111 28.7745 18.5188C28.7801 18.56 28.7773 18.6296 28.7792 18.6715C28.6722 18.7123 28.5258 18.7609 28.3799 18.7855C28.2756 18.8136 28.0594 18.8522 27.9887 18.7983C27.9441 18.7598 27.9127 18.6722 27.8411 18.6706C27.8256 18.6692 27.8103 18.6674 27.7948 18.6647C27.7128 18.6505 27.6359 18.6152 27.5968 18.5595ZM38.0541 9.92132C38.0352 9.92177 38.0165 9.92132 37.9997 9.91682C37.9733 9.92943 37.9447 9.92898 37.8975 9.93191C37.9164 9.93664 37.9445 9.95646 37.9789 9.95782C38.0651 9.96976 38.097 9.97651 38.1084 9.9256C38.1061 9.92493 38.1038 9.92448 38.1012 9.92403C38.0861 9.92155 38.0704 9.92132 38.0541 9.92132ZM41.2658 10.6902C41.2737 10.721 41.3429 10.7312 41.4149 10.7463C41.4697 10.7609 41.4928 10.7589 41.5379 10.7632C41.5315 10.7629 41.5256 10.7638 41.5205 10.7641C41.5309 10.7638 41.5379 10.7683 41.5508 10.7625C41.551 10.7609 41.5445 10.7575 41.547 10.7528C41.5338 10.7104 41.4763 10.7041 41.3871 10.6879C41.3641 10.6796 41.3414 10.6735 41.3217 10.6701C41.2843 10.6636 41.2584 10.6676 41.2658 10.6902ZM30.86 9.83685C30.87 9.87131 30.8936 9.85983 30.9836 9.84248C31.0308 9.83955 31.3186 9.76071 31.371 9.74809C31.3298 9.71948 31.32 9.7125 31.2714 9.70416C31.1595 9.72151 30.873 9.78706 30.86 9.83685ZM30.5217 9.91975C30.5378 9.91524 30.5599 9.90263 30.5718 9.89294C30.4868 9.91029 30.4148 9.91682 30.3358 9.9434C30.3426 9.94453 30.3244 9.94137 30.3324 9.96998C30.2475 9.98643 30.1965 10.0024 30.1831 10.0542C30.1848 10.0718 30.5346 9.98372 30.5788 9.97133C30.565 9.96097 30.5605 9.96368 30.5448 9.95399C30.6081 9.9452 30.6812 9.93439 30.7264 9.90758C30.7247 9.89429 30.7491 9.9033 30.7294 9.87807C30.6703 9.88483 30.5748 9.90893 30.5217 9.91975ZM31.9003 10.1937C31.521 10.2667 31.1705 10.4385 30.7621 10.5151C30.6701 10.5318 30.6296 10.5093 30.5382 10.5298C30.3921 10.5665 30.3985 10.5856 30.2982 10.6046C30.0162 10.671 29.8119 10.8129 29.6243 10.8625C29.5135 10.8848 29.4404 10.9217 29.3306 10.947C29.283 10.9578 29.2501 10.9751 29.2543 10.9884C29.2503 10.9981 29.2605 10.999 29.2724 11.0006C29.286 11.0022 29.3015 11.0042 29.3 11.0202C29.2839 11.0848 28.9171 11.2182 28.9054 11.2603C28.9054 11.2736 28.9258 11.2711 28.9481 11.2696C28.974 11.2671 29.0031 11.2655 29.009 11.2887C28.8888 11.334 28.6711 11.389 28.6507 11.4473C28.6524 11.4653 28.652 11.4683 28.648 11.4854C28.6357 11.5494 28.4275 11.5762 28.4171 11.6462C28.3954 11.6823 28.5403 11.6649 28.5403 11.6649C28.5403 11.6649 28.7378 11.6122 28.7597 11.609C28.8841 11.5944 28.8066 11.6458 28.861 11.6764C28.8797 11.6847 28.991 11.6417 29.046 11.6313C29.0645 11.6232 29.0836 11.6318 29.097 11.6388C29.2862 11.5811 29.4808 11.5545 29.6778 11.5081C29.6736 11.5079 29.6698 11.5038 29.6649 11.5002C29.6636 11.5007 29.6662 11.5009 29.6649 11.5002C29.6456 11.4964 29.6241 11.4933 29.6086 11.4912C29.6143 11.4944 29.6201 11.4957 29.6254 11.4962C29.4623 11.4854 29.2605 11.5149 29.2607 11.4178C29.286 11.2549 29.8015 10.974 30.1857 10.853C30.3273 10.8123 30.3539 10.7514 30.5508 10.7159C30.6415 10.6969 30.674 10.6512 30.7196 10.6291C30.9704 10.5388 31.155 10.5296 31.4267 10.4455C31.6178 10.3876 32.1972 10.289 32.2078 10.2085C32.2053 10.1982 32.1896 10.1914 32.166 10.1874C32.0999 10.1759 31.9714 10.1849 31.9003 10.1937ZM29.9954 9.92358C29.9361 9.94475 29.8849 9.95376 29.8709 9.98417C29.6594 10.0281 29.6585 10.0696 29.4442 10.1245C29.4621 10.1232 29.4478 10.1356 29.4402 10.1493C29.5043 10.125 29.4882 10.1347 29.5309 10.1281C29.4434 10.1455 29.3586 10.1743 29.2671 10.1989C29.2382 10.2117 29.2042 10.2306 29.1738 10.2444C29.1874 10.239 29.4646 10.2025 29.5139 10.1923C29.5976 10.1698 29.7163 10.1148 29.7989 10.1002C29.8743 10.0822 29.9531 10.0698 30.0115 10.0425C29.8639 10.0612 29.8155 10.0619 29.6158 10.1083C29.6929 10.0675 29.8261 10.0313 29.9457 9.98057C29.9406 9.96322 29.9843 9.95128 30.0136 9.94092C30.023 9.93934 30.0068 9.9256 29.9954 9.92358C29.9962 9.92358 29.9945 9.92358 29.9954 9.92358ZM29.8289 10.1313C29.7571 10.1565 29.4856 10.207 29.4701 10.2568C29.4844 10.2543 29.5048 10.2597 29.5383 10.2529C29.5995 10.2392 29.6254 10.239 29.6468 10.2072C29.6872 10.1921 29.7439 10.2083 29.7847 10.1939C29.883 10.1784 29.8754 10.1403 30.0247 10.1094C30.0217 10.1085 30.0181 10.1074 30.0143 10.1067C29.9737 10.0997 29.9106 10.1139 29.8289 10.1313ZM28.3959 10.466C28.298 10.4904 28.2432 10.5404 28.1446 10.5674C28.0131 10.6113 27.9354 10.6118 27.7746 10.6661C27.6315 10.7102 27.3477 10.8298 27.2768 10.8762C27.3273 10.8575 27.3617 10.8544 27.4108 10.8346C27.507 10.8024 27.6353 10.7316 27.7045 10.7075C27.7602 10.6767 27.788 10.6904 27.849 10.6746C27.8152 10.6929 27.7784 10.708 27.7464 10.7253C27.7757 10.7255 27.8014 10.7057 27.8611 10.6893C27.8133 10.7039 27.7704 10.7316 27.722 10.7508C27.7549 10.7636 27.7897 10.7393 27.8972 10.7145C27.8938 10.7154 27.8921 10.7159 27.8906 10.7161C27.9135 10.7253 27.9229 10.7215 27.9573 10.7125C28.0193 10.7028 28.034 10.6609 28.0989 10.6248C28.1862 10.5809 28.2514 10.5881 28.3334 10.546C28.3332 10.5444 28.3343 10.5482 28.3334 10.546C28.3338 10.5431 28.33 10.5359 28.3366 10.5338C28.3561 10.5235 28.3801 10.5176 28.4022 10.5124C28.4832 10.4741 28.573 10.4654 28.593 10.4241C28.5509 10.4316 28.4781 10.441 28.3959 10.466ZM29.8841 11.5133C29.8845 11.557 30.0493 11.5527 30.1496 11.5288C30.1496 11.5288 30.2466 11.5196 30.2532 11.4962C30.2528 11.4784 30.2307 11.4676 30.1978 11.4619C30.0971 11.4446 29.893 11.4764 29.8841 11.5133ZM29.6821 11.502C29.6806 11.5009 29.6842 11.5025 29.6821 11.502V11.502ZM27.8422 12.0909C27.8073 12.0995 27.7884 12.1368 27.7525 12.1423C27.7413 12.1499 27.6553 12.2173 27.6529 12.2324C27.6461 12.2673 27.6909 12.2556 27.7759 12.2283C27.9029 12.1979 27.99 12.1459 28.0832 12.0997C28.0858 12.0837 28.0849 12.0787 28.0873 12.0641C27.9855 12.0853 27.9401 12.0657 27.8422 12.0909ZM47.6133 16.2944C47.6247 16.3176 47.6466 16.4195 47.6625 16.4323C47.735 16.4494 47.6846 16.371 47.6999 16.3656C47.6553 16.2877 47.6086 16.2104 47.5593 16.1349C47.5759 16.1879 47.585 16.2237 47.6133 16.2944ZM47.6908 16.6094C47.7029 16.631 47.7235 16.6465 47.7299 16.6706C47.7545 16.7393 47.801 16.941 47.7377 16.9243C47.7305 16.9141 47.7252 16.9148 47.718 16.9148C47.7133 16.9153 47.7074 16.9153 47.7001 16.9108C47.6925 16.9027 47.6838 16.8945 47.6736 16.8873C47.6825 16.9013 47.68 16.9173 47.6893 16.9328C47.6848 16.9783 47.6472 16.9892 47.6623 17.0507C47.6744 17.0709 47.6899 17.0923 47.6999 17.1133C47.7027 17.1606 47.7318 17.1951 47.7416 17.2457C47.7479 17.2577 47.7509 17.2525 47.7651 17.2527C47.7879 17.1809 47.8221 17.2514 47.8316 17.1973C47.8059 17.1725 47.7575 17.1518 47.7331 17.0932C47.708 16.9997 47.7879 17.0741 47.8354 17.093C47.8267 17.0766 47.828 17.0694 47.8473 17.0581C47.9323 17.1523 47.9671 17.1673 48.0444 17.2435C48.0591 17.1523 48.0332 17.0703 48.1043 17.1007C48.1115 17.1063 48.1175 17.109 48.1232 17.1117C48.0877 17.0446 48.0523 16.9774 48.0164 16.9094C47.8987 16.8324 47.8114 16.6792 47.6891 16.5472C47.6821 16.5702 47.6802 16.569 47.6908 16.6094ZM47.7001 16.9108C47.7031 16.9144 47.7161 16.9241 47.7093 16.925C47.7059 16.92 47.7008 16.913 47.7001 16.9108ZM47.8847 17.3633C47.89 17.3631 47.889 17.3694 47.8968 17.3728C47.8371 17.4586 47.8556 17.3442 47.8412 17.3395C47.7537 17.3135 47.7978 17.4588 47.8159 17.5255C47.8293 17.5535 47.8388 17.5598 47.8518 17.601C47.9089 17.7904 47.8301 18.004 47.7583 18.0277C47.6753 18.052 47.7227 18.1045 47.6538 18.0869C47.6685 18.0855 47.629 18.0619 47.6241 18.0511C47.622 18.0272 47.6196 18.0162 47.6292 17.9876C47.6107 17.999 47.5978 18.1236 47.591 18.1272C47.5304 18.1189 47.5753 18.3041 47.4933 18.2951C47.4058 18.2734 47.297 18.2588 47.1942 18.248C47.0613 18.2302 47.0513 18.3827 46.9651 18.4629C46.9387 18.4755 46.8999 18.4831 46.9081 18.5003C46.9103 18.5253 46.9398 18.526 46.9878 18.5343C47.0938 18.544 47.1719 18.5073 47.2327 18.4771C47.2582 18.4575 47.2707 18.4647 47.2853 18.4721C47.2981 18.4784 47.3127 18.4859 47.3386 18.4726C47.3582 18.4633 47.3319 18.4212 47.3743 18.428C47.4584 18.4349 47.4665 18.48 47.5315 18.5073C47.5321 18.532 47.5377 18.5771 47.5419 18.6136C47.5479 18.6303 47.5315 18.6674 47.5536 18.6652C47.599 18.6816 47.581 18.7118 47.6324 18.7375C47.6549 18.6708 47.656 18.5911 47.7048 18.5908C47.7286 18.5911 47.7243 18.5917 47.7486 18.592C47.7575 18.5917 47.6857 18.5079 47.6795 18.4838C47.6821 18.4654 47.6747 18.439 47.697 18.4385C47.759 18.4471 47.7564 18.5431 47.8492 18.5683C47.9042 18.5764 47.8845 18.5561 47.9155 18.5088C47.9274 18.5133 47.9323 18.5133 47.9378 18.5136C47.9427 18.5136 47.9482 18.5131 47.9586 18.5167C47.9631 18.5296 47.9724 18.5471 47.9886 18.553C47.9858 18.4647 48.0202 18.4705 48.0616 18.4289C48.0784 18.4694 48.051 18.4708 48.0816 18.5255C48.1672 18.5091 48.0712 18.4782 48.1472 18.4259C48.1311 18.3903 48.1064 18.3626 48.0979 18.3063C48.0737 18.2259 48.1117 18.2034 48.0956 18.1491C48.0752 18.0795 47.9816 17.9121 48.0499 17.8893C48.0586 17.8848 48.062 17.8889 48.0648 17.892C48.0684 17.8961 48.0708 17.9004 48.0812 17.8878C48.0737 17.8765 48.0759 17.8634 48.0684 17.8519C48.0555 17.767 48.0965 17.7763 48.0691 17.6879C48.0434 17.6087 47.9839 17.5503 47.9584 17.4701C47.9382 17.4316 47.9372 17.3969 47.9163 17.3525C47.904 17.3356 47.9062 17.3226 47.8611 17.3088C47.8607 17.3088 47.8616 17.3088 47.8611 17.3088C47.8424 17.3057 47.8654 17.3563 47.8847 17.3633ZM47.224 18.5631C47.2297 18.564 47.149 18.6501 47.149 18.6501C47.153 18.6798 47.1609 18.6963 47.2057 18.726C47.208 18.7582 47.2242 18.8159 47.2573 18.828C47.3378 18.8312 47.3142 18.7361 47.3408 18.6798C47.3586 18.6938 47.368 18.7291 47.4255 18.7339C47.4941 18.7388 47.4803 18.5309 47.3733 18.5093C47.3032 18.5009 47.3248 18.6001 47.224 18.5631ZM46.8937 18.5769C46.8744 18.5775 46.7582 18.6879 46.7601 18.7251C46.7652 18.7555 46.7966 18.8008 46.8296 18.8042C46.8516 18.8037 46.855 18.7834 46.8892 18.7834C46.8814 18.7616 46.885 18.7402 46.8767 18.7233C46.8897 18.7523 46.8988 18.7963 46.9381 18.8138C46.9404 18.8438 46.9383 18.8749 46.9355 18.9053C46.9355 18.9053 46.9001 18.9961 46.9045 19.0071C46.9056 19.0321 46.9544 19.1146 47.0014 19.1213C46.9986 19.1105 46.9978 19.0923 46.9937 19.081C47.0005 19.0979 47.0012 19.1355 47.0213 19.1421C47.1008 19.1463 47.0929 18.949 47.0853 18.8287C47.0952 18.8359 47.1035 18.8343 47.1114 18.8323C47.1188 18.8301 47.1256 18.8283 47.1343 18.8341C47.1235 18.8118 47.1205 18.7857 47.1197 18.767C47.0978 18.7508 47.0817 18.7262 47.0613 18.7102C47.0407 18.7037 47.0449 18.6611 47.0415 18.6431C47.0058 18.6395 46.9808 18.6239 46.9578 18.6089C46.9374 18.5949 46.9143 18.5805 46.8937 18.5769C46.8954 18.5771 46.8918 18.5766 46.8937 18.5769ZM22.2895 16.0926C22.2895 16.0926 22.2521 16.1189 22.2546 16.1349C22.2474 16.148 22.2521 16.1458 22.2682 16.1568C22.2393 16.1813 22.2228 16.1901 22.1984 16.2174C22.1852 16.2343 22.1805 16.2638 22.2162 16.2417C22.2362 16.2451 22.2695 16.1933 22.2746 16.1843C22.2721 16.1717 22.2761 16.1615 22.2822 16.1509C22.2884 16.1433 22.3058 16.1149 22.3169 16.1007C22.3067 16.1029 22.3048 16.0993 22.3024 16.0964C22.3016 16.0946 22.3003 16.0921 22.2971 16.0917C22.2954 16.0912 22.2929 16.0917 22.2895 16.0926ZM45.6684 20.5322C45.5733 20.5356 45.4666 20.8634 45.4834 21.0442C45.5021 21.1713 45.4923 21.2812 45.6266 21.2783C45.7905 21.263 45.8538 20.564 45.6754 20.5331C45.6735 20.5327 45.6712 20.5322 45.6684 20.5322ZM21.3862 16.9432C21.3598 16.995 21.3297 17.0455 21.3046 17.0975C21.3071 17.0966 21.3163 17.0948 21.3341 17.0896C21.3269 17.1036 21.315 17.1252 21.2923 17.1478C21.2912 17.1466 21.2923 17.1502 21.2923 17.1478C21.2872 17.1554 21.2776 17.1556 21.2717 17.1642C21.2702 17.1631 21.2734 17.1644 21.2717 17.1642C21.2751 17.1665 21.2829 17.1716 21.3023 17.1581C21.3583 17.116 21.3558 17.0358 21.4078 16.9921C21.3978 16.9592 21.3925 16.9443 21.3862 16.9432C21.3885 16.9419 21.3845 16.943 21.3862 16.9432ZM45.8094 22.074C45.7534 22.0704 45.7411 22.1535 45.7445 22.2343C45.7445 22.3328 45.7787 22.3896 45.7823 22.4864C45.7859 22.5441 45.7742 22.6682 45.7459 22.7268C45.679 22.7153 45.7056 22.8773 45.705 23.0084C45.7035 23.048 45.83 23.1413 45.8572 23.1442C45.8802 23.1413 45.898 23.1097 45.9061 23.0838C45.9203 23.0881 45.9356 23.0843 45.9481 23.0816C45.9517 23.1039 45.9458 23.1402 45.9494 23.162C45.9409 23.1803 45.9095 23.2129 45.9086 23.2526C45.9033 23.2846 45.963 23.3573 46.0106 23.3569C46.0537 23.3512 46.0734 23.3042 46.1221 23.303C46.1682 23.2981 46.1924 23.3406 46.2177 23.3832C46.2419 23.4242 46.2676 23.465 46.3147 23.4641C46.3016 23.4116 46.2746 23.3684 46.3081 23.3141C46.337 23.3835 46.5018 23.4454 46.5452 23.5346C46.5486 23.5547 46.556 23.5963 46.5774 23.5952C46.5906 23.5941 46.6046 23.5583 46.6031 23.545C46.6012 23.5287 46.6044 23.5008 46.6025 23.4839C46.5526 23.4878 46.5188 23.4621 46.5197 23.3943C46.5082 23.4062 46.4749 23.4112 46.4732 23.3979C46.4785 23.3652 46.5065 23.3422 46.5131 23.3006C46.498 23.3028 46.4863 23.2958 46.4747 23.2882C46.4443 23.2918 46.4428 23.3434 46.4148 23.3463C46.3922 23.349 46.3761 23.306 46.3566 23.2623C46.336 23.2181 46.3124 23.1728 46.275 23.1746C46.2304 23.1717 46.2034 23.2149 46.2007 23.2422C46.2024 23.2528 46.2002 23.2701 46.2024 23.2814C46.1268 23.2501 46.0342 23.0579 46.0297 22.9347C46.0276 22.7721 46.1482 22.7462 46.1463 22.5736C46.1433 22.4342 46.0545 22.329 46.0524 22.222C46.0424 22.2125 46.0401 22.1839 46.0382 22.1688C46.0352 22.1571 46.0261 22.1409 46.0237 22.1296C45.9936 22.146 45.9804 22.2069 45.9373 22.2107C45.9044 22.2093 45.8914 22.1765 45.878 22.1429C45.8655 22.1118 45.8517 22.0805 45.8196 22.0749C45.8165 22.0744 45.8133 22.0737 45.8094 22.074ZM43.6516 21.8935C43.5505 21.9059 43.3358 22.1111 43.2835 22.1168C43.2514 22.1217 43.292 22.1992 43.2971 22.2377C43.3043 22.345 43.3663 22.3929 43.473 22.3866C43.5721 22.3767 43.7559 22.1206 43.7484 22.0059C43.7461 21.9712 43.6841 21.8991 43.6516 21.8935C43.6533 21.8935 43.6497 21.8933 43.6516 21.8935ZM46.14 23.4515C46.1529 23.4668 46.1956 23.456 46.2111 23.4477C46.2069 23.4459 46.2013 23.444 46.1952 23.4429C46.1748 23.4393 46.1489 23.4427 46.14 23.4515ZM45.8728 23.4226C45.8728 23.4226 46.0291 23.7119 46.0724 23.7121C46.1011 23.7078 46.1332 23.6126 46.1194 23.5483C46.0898 23.4558 46.0242 23.4727 45.942 23.4181C45.9201 23.4143 45.8985 23.4193 45.8728 23.4226ZM46.6932 23.6022C46.6714 23.604 46.6586 23.629 46.6363 23.6378C46.6491 23.6885 46.7839 23.7443 46.7873 23.8509C46.7903 23.8653 46.7703 23.9011 46.7565 23.9018C46.7251 23.9054 46.7053 23.9063 46.6733 23.9086C46.6741 23.9218 46.6714 23.9435 46.6718 23.9565C46.675 23.9761 46.7187 24.0521 46.7686 24.0493C46.7695 24.0629 46.7663 24.0827 46.7669 24.0967C46.7504 24.1458 46.751 24.2057 46.7988 24.2025C46.8205 24.203 46.833 24.1989 46.8553 24.1985C46.8546 24.185 46.8559 24.1654 46.8549 24.1516C46.8317 24.1329 46.8109 24.0611 46.7988 23.9996C46.8366 23.9984 46.8572 23.9942 46.8946 23.9928C46.9005 23.9644 46.9156 23.93 46.9194 23.8881C46.9128 23.8881 46.8704 23.823 46.8704 23.823C46.8704 23.823 46.8786 23.7374 46.8693 23.6984C46.8555 23.6995 46.8459 23.7063 46.8323 23.7009C46.8425 23.6817 46.834 23.6427 46.8336 23.6234C46.8039 23.6261 46.7848 23.6195 46.7646 23.6128C46.754 23.6094 46.7431 23.606 46.7306 23.604C46.72 23.6022 46.7077 23.6013 46.6932 23.6022ZM46.4411 23.6213C46.4439 23.6531 46.4424 23.7069 46.4411 23.7396C46.4764 23.7367 46.4966 23.7279 46.5327 23.7315C46.535 23.7639 46.5991 23.8378 46.6021 23.8052C46.5949 23.7051 46.5276 23.6858 46.4987 23.6166C46.4787 23.6175 46.4624 23.6182 46.4411 23.6213ZM23.9994 20.0652C23.9954 20.0772 24.0205 20.0979 24.0336 20.0943C24.0347 20.113 24.0606 20.1269 24.0823 20.1213C24.1441 20.1112 24.2702 20.0348 24.2974 19.9904C24.2964 19.9695 24.2925 19.9251 24.3114 19.912C24.3503 19.8873 24.3847 19.9039 24.4047 19.8251C24.2819 19.8787 24.102 19.9886 23.9994 20.0652ZM46.207 23.8531C46.2113 23.9097 46.2298 24.0678 46.2306 24.2077C46.2895 24.1582 46.4383 24.0737 46.4473 23.9354C46.4413 23.8858 46.3328 23.8558 46.2765 23.8326C46.2657 23.8266 46.2531 23.8191 46.2489 23.8092C46.234 23.8101 46.2117 23.8401 46.207 23.8531ZM20.5948 19.5599C20.5819 19.5674 20.5749 19.5696 20.5691 19.5868C20.5838 19.6464 20.5322 19.7985 20.6033 19.7915C20.6161 19.748 20.642 19.6032 20.6677 19.5246C20.6481 19.5347 20.6541 19.4969 20.6617 19.4653C20.6301 19.4827 20.6333 19.5277 20.5948 19.5599ZM46.601 24.0403C46.597 24.1825 46.5628 24.2501 46.539 24.3449C46.5507 24.3454 46.5611 24.3429 46.5711 24.3424C46.57 24.2257 46.6533 24.1825 46.6592 24.0347C46.6388 24.0372 46.6238 24.0399 46.601 24.0403ZM46.477 24.0426C46.4441 24.0563 46.4086 24.2584 46.4082 24.2791C46.3872 24.2802 46.3491 24.3113 46.3477 24.3309C46.3519 24.3771 46.4623 24.5292 46.4908 24.5233C46.5055 24.5231 46.5295 24.4927 46.5305 24.4794C46.529 24.4415 46.5021 24.4524 46.4978 24.3803C46.5067 24.2897 46.5772 24.2163 46.5749 24.1219C46.5798 24.0917 46.5632 24.0453 46.5205 24.0381C46.5082 24.0358 46.4938 24.037 46.477 24.0426ZM46.9026 24.2483C46.8937 24.2681 46.9005 24.3737 46.8822 24.4375C46.8625 24.4803 46.7557 24.4625 46.7474 24.5758C46.7028 24.585 46.6873 24.6281 46.6868 24.6839C46.6739 24.6844 46.6633 24.6882 46.6492 24.6873C46.6238 24.6929 46.6159 24.6634 46.604 24.6332C46.5923 24.6026 46.576 24.5717 46.5339 24.5745C46.4124 24.5853 46.4432 24.749 46.3058 24.772C46.2873 24.8531 46.2621 24.9013 46.2597 24.9831C46.2608 25.0031 46.2856 25.0399 46.285 25.0597C46.2854 25.0854 46.2245 25.244 46.2808 25.2424C46.3515 25.2275 46.3498 24.9739 46.4165 24.8865C46.4165 24.8865 46.4587 24.9448 46.481 24.95C46.4823 24.9365 46.4963 24.9223 46.5008 24.9092C46.5116 24.925 46.5225 24.9464 46.5662 24.941C46.5556 24.9238 46.5675 24.8901 46.5666 24.8709C46.6006 24.8707 46.6259 24.8664 46.6586 24.8599C46.6667 24.8804 46.6775 24.9139 46.6807 24.9356C46.6701 24.9594 46.6486 24.9759 46.6463 25.0327C46.6456 25.1845 46.7157 25.2953 46.8047 25.2881C46.8255 25.2804 46.848 25.2888 46.8686 25.2723C46.8678 25.2922 46.8748 25.3289 46.8975 25.3302C46.9479 25.3242 46.9687 25.2759 46.971 25.214C46.9706 25.1261 46.8992 25.1158 46.9005 25.0581C46.9009 25.0189 46.9385 24.9937 46.96 24.9423C46.9666 24.9621 46.9848 24.9784 46.9925 24.9957C46.9918 24.9916 46.9923 24.9869 46.9927 24.984C47.0005 25.02 47.0392 25.1462 47.0638 25.1556C47.0677 25.016 47.1439 24.97 47.1448 24.8813C47.1443 24.8227 47.049 24.3692 47.0025 24.3084C46.9865 24.283 46.9657 24.2539 46.9311 24.248C46.9226 24.2465 46.9135 24.2467 46.9026 24.2483ZM46.6573 24.2323C46.6386 24.2744 46.6036 24.3158 46.5981 24.3553C46.5991 24.3692 46.6204 24.392 46.6365 24.3913C46.7006 24.3891 46.7357 24.3084 46.7404 24.2248C46.7174 24.2512 46.6932 24.2462 46.6573 24.2323ZM45.7196 24.1971C45.6249 24.3769 45.4029 24.4999 45.3118 24.7529C45.3299 24.7526 45.3481 24.7531 45.3632 24.747C45.4556 24.6738 45.5952 24.5569 45.626 24.3656C45.6816 24.3645 45.729 24.3399 45.7485 24.2676C45.7831 24.2649 45.7914 24.2386 45.8177 24.2129C45.7963 24.1827 45.7617 24.1719 45.7568 24.089C45.7375 24.1129 45.7298 24.16 45.7196 24.1971ZM20.5827 19.8415C20.5262 19.871 20.5398 19.919 20.4965 19.9636C20.4842 20.0136 20.5258 20.019 20.5184 20.0754C20.5167 20.1195 20.4895 20.1565 20.4829 20.2112C20.4782 20.2628 20.4419 20.3585 20.505 20.3254C20.5521 20.2966 20.608 20.1873 20.6207 20.0979C20.6373 20.0058 20.6456 19.9332 20.6284 19.8537C20.6195 19.8573 20.6163 19.8503 20.6139 19.8429C20.6118 19.8379 20.6093 19.8327 20.604 19.8318C20.5995 19.8309 20.5929 19.8332 20.5827 19.8415ZM22.4777 20.3923C22.542 20.4232 22.6535 20.4016 22.7004 20.388C22.7489 20.3763 22.7697 20.4034 22.8493 20.3333C22.7476 20.3218 22.6117 20.3315 22.4777 20.3923ZM21.0746 20.2927C21.0037 20.3108 20.9803 20.2475 20.8866 20.352C20.8811 20.3657 20.8839 20.3831 20.8813 20.3979C20.8966 20.4153 20.9068 20.4112 20.9172 20.4079C20.924 20.4056 20.9306 20.4034 20.9389 20.4056C20.975 20.407 21.0024 20.429 21.0296 20.4516C21.0589 20.4757 21.088 20.4993 21.1286 20.4982C21.1224 20.5167 21.1441 20.5212 21.1608 20.5106C21.181 20.4998 21.1855 20.4721 21.1935 20.4536C21.1965 20.4027 21.178 20.4034 21.1768 20.3547C21.1844 20.3304 21.2052 20.272 21.2052 20.272C21.2124 20.247 21.2212 20.2137 21.229 20.1884C21.1627 20.1981 21.1305 20.27 21.0746 20.2927ZM19.9637 20.4986C19.963 20.5029 19.9626 20.5054 19.9596 20.5101C19.9662 20.5135 19.9634 20.5441 19.9894 20.5394C20.0059 20.5288 20.0095 20.5126 20.0148 20.4944C20.0125 20.475 20.0078 20.45 20.0097 20.4378C19.9775 20.4567 19.9798 20.466 19.9637 20.4986ZM45.3607 25.1205C45.2403 25.1403 45.1167 25.4929 45.067 25.6474C45.036 25.7035 44.8771 25.701 44.8128 25.7896C44.8028 25.8073 44.7911 25.8538 44.7745 25.8682C44.741 25.8857 44.7423 25.908 44.7032 25.9409C44.7032 25.9409 44.6312 26.0274 44.6594 26.0572C44.5981 26.1398 44.6087 26.2246 44.4997 26.2689C44.4137 26.2978 44.3406 26.3059 44.2935 26.3809C44.2024 26.5296 44.2366 26.7916 44.0065 26.8328C43.8967 26.8488 43.7343 26.8026 43.7387 26.9639C43.7479 26.9984 43.8392 27.3176 43.8723 27.3275C43.9076 27.332 43.9602 27.3302 43.9755 27.3653C43.9715 27.3779 43.973 27.3996 43.969 27.4122C44.0705 27.5823 43.9647 27.9048 44.2446 27.8616C44.3009 27.8544 44.3434 27.7981 44.4003 27.7911C44.4122 27.8165 44.4044 27.9222 44.4179 27.9224C44.4292 27.919 44.439 27.9294 44.4496 27.9395C44.4594 27.9485 44.4687 27.9576 44.4793 27.9569C44.5785 27.9413 44.5993 27.8391 44.6588 27.8264C44.737 27.8161 44.7945 27.842 44.8525 27.8681C44.8924 27.8859 44.9319 27.9039 44.9789 27.9102C44.9765 27.9539 44.9995 28.0285 45.073 28.0157C45.1658 27.9972 45.1762 27.8938 45.2881 27.8357C45.2849 27.733 45.3607 27.5969 45.3656 27.525C45.3658 27.4879 45.3344 27.4732 45.3263 27.4088C45.3306 27.3649 45.3898 27.2144 45.472 27.1799C45.472 27.0306 45.5296 26.9738 45.5498 26.7711C45.561 26.7472 45.5712 26.7019 45.5797 26.6782C45.6018 26.667 45.6241 26.6562 45.6458 26.6485C45.7207 26.6384 45.7794 26.6742 45.7936 26.5365C45.6674 26.5447 45.4688 26.1477 45.4597 26.013C45.4623 25.9918 45.4858 25.9545 45.5056 25.9427C45.4931 25.9245 45.4841 25.8891 45.4742 25.8682C45.4742 25.8682 45.6521 25.7357 45.6666 25.7157C45.653 25.7139 45.6409 25.6889 45.636 25.6753C45.6426 25.6107 45.7859 25.6274 45.7783 25.5476C45.7772 25.4577 45.7076 25.4505 45.6358 25.4424C45.5619 25.435 45.4861 25.4266 45.4782 25.3296C45.4661 25.2135 45.4744 25.1329 45.4043 25.1207C45.3924 25.1187 45.3777 25.1182 45.3607 25.1205ZM47.2852 26.2426C47.2924 26.3503 47.3336 26.3746 47.3362 26.4669C47.3402 26.4965 47.336 26.5433 47.34 26.5735C47.333 26.6161 47.3623 26.7249 47.4109 26.7152C47.3903 26.6602 47.3716 26.6336 47.3491 26.5872C47.3515 26.5721 47.3519 26.546 47.3468 26.5302C47.401 26.5158 47.4479 26.5043 47.4734 26.4888C47.4691 26.4318 47.4288 26.4084 47.4264 26.3735C47.4239 26.3313 47.4781 26.2989 47.4759 26.2556C47.3978 26.2455 47.3474 26.1869 47.3309 26.0673C47.2941 26.1184 47.2846 26.1761 47.2852 26.2426ZM46.8764 26.3025C46.808 26.3793 46.7279 26.4735 46.6931 26.5291C46.6771 26.5393 46.6637 26.5352 46.6468 26.5397C46.5038 26.5347 46.3634 26.521 46.2141 26.514C46.0559 26.5483 45.9864 26.8377 45.9898 27.0448C45.9875 27.0873 45.9412 27.154 45.9353 27.1833C45.8945 27.3876 45.8312 27.4743 45.828 27.6665C45.8276 27.7667 45.9168 27.7546 45.9597 27.7523C45.9584 27.8855 45.9635 28.022 45.9646 28.1587C45.9697 28.1999 46.0202 28.2533 46.0637 28.2452C46.1447 28.224 46.1536 27.9253 46.1566 27.8886C46.1517 27.7782 46.1005 27.7361 46.096 27.6219C46.0999 27.5719 46.1449 27.5156 46.1895 27.5032C46.2065 27.4953 46.219 27.5009 46.24 27.4928C46.2284 27.5435 46.2262 27.6091 46.2182 27.6742C46.222 27.7861 46.3152 27.8023 46.3178 27.9136C46.3218 27.935 46.3222 27.9659 46.3173 27.99C46.3452 27.9767 46.3713 27.9803 46.3987 27.972C46.3991 27.883 46.5293 27.8627 46.5308 27.7676C46.503 27.762 46.4475 27.678 46.4452 27.6352C46.441 27.6228 46.4641 27.5955 46.4675 27.5802C46.4308 27.5521 46.3184 27.2779 46.3099 27.257C46.4936 27.2211 46.489 27.0398 46.6272 26.9492C46.6208 26.9328 46.6279 26.9008 46.624 26.8828C46.5841 26.8767 46.2723 27.0864 46.2634 27.1047C46.2649 27.0954 46.2734 27.0797 46.2751 27.0691C46.2538 27.1083 46.247 27.1603 46.208 27.1673C46.1234 27.1822 46.075 27.0285 46.0667 26.901C46.0676 26.7278 46.1653 26.7476 46.2717 26.7274C46.3791 26.705 46.4191 26.6704 46.5045 26.6505C46.5467 26.6447 46.5811 26.653 46.6151 26.6611C46.6468 26.6686 46.6786 26.6758 46.716 26.671C46.833 26.6467 46.8679 26.4978 46.8851 26.3676C46.9008 26.3577 46.9103 26.3174 46.9108 26.2957C46.8993 26.3029 46.8893 26.2978 46.8764 26.3025ZM48.6464 26.8429C48.5889 26.8947 48.5789 26.9044 48.5415 26.9718C48.5313 26.9871 48.509 27.1108 48.4629 27.1254C48.4221 27.129 48.3773 27.0236 48.372 26.995C48.3144 27.0121 48.3064 26.9801 48.3064 26.9441C48.3074 26.8483 48.3155 26.7544 48.3038 26.6634C48.2737 26.6589 48.2448 26.6361 48.214 26.6127C48.1728 26.5823 48.1286 26.5507 48.0764 26.5616C47.9922 26.5787 47.9585 26.7217 47.8939 26.7386C47.8559 26.7497 47.8234 26.7848 47.8259 26.8267C47.8306 26.9405 47.9457 26.8627 47.9806 26.9648C47.9863 26.9866 47.9884 27.0236 48.0095 27.0274C48.0439 27.0342 48.0458 27.0475 48.0783 27.0357C48.1524 27.0213 48.1571 27.0026 48.2174 26.9673C48.2316 26.9589 48.2335 26.9632 48.2503 26.9596C48.2046 27.0569 48.073 27.079 48.0063 27.1558C48.0173 27.2135 48.0659 27.1696 48.091 27.2263C48.1182 27.288 48.0916 27.3212 48.1131 27.3923C48.1171 27.414 48.1407 27.4072 48.1619 27.402C48.2123 27.3831 48.2148 27.3117 48.2346 27.2432C48.231 27.2639 48.2361 27.2921 48.2327 27.3131C48.2726 27.2777 48.297 27.3207 48.3234 27.3637C48.3444 27.3991 48.3671 27.4345 48.4 27.4275C48.4642 27.4095 48.5899 27.409 48.633 27.43C48.6936 27.4755 48.7781 27.4975 48.7993 27.5829C48.8106 27.6875 48.7832 27.8001 48.8361 27.8819C48.8089 27.9193 48.7365 27.979 48.732 28.0677C48.7288 28.1227 48.7492 28.1261 48.7913 28.1006C48.8348 28.0846 48.8291 28.0864 48.872 28.0704C48.8815 28.0348 48.9059 28.01 48.9331 28.0044C48.9884 27.9862 49.0168 28.0296 49.0415 28.0729C49.0667 28.1161 49.0892 28.1585 49.1334 28.1373C49.212 28.0997 49.2158 28.1028 49.2615 28.0785C49.2727 28.031 49.2938 27.994 49.2902 27.8999C49.3328 27.8341 49.3454 27.7048 49.4208 27.6692C49.5329 27.6169 49.569 27.7931 49.6053 27.8965C49.6151 27.9136 49.6317 27.9071 49.6272 27.9357C49.6332 28.0181 49.613 28.0571 49.6929 28.0483C49.7094 27.9699 49.7241 27.8906 49.7398 27.812C49.7273 27.8093 49.7232 27.7931 49.7164 27.7676C49.6975 27.6978 49.7073 27.6471 49.6911 27.5928C49.6742 27.5811 49.6472 27.4894 49.6491 27.4547C49.6523 27.3912 49.6952 27.3876 49.7084 27.3171C49.7156 27.2157 49.7069 27.2333 49.6844 27.2479C49.6714 27.2565 49.6538 27.2644 49.6319 27.2475C49.5667 27.1939 49.5813 27.0116 49.4824 26.9731C49.4545 26.995 49.4461 26.9738 49.4418 26.9166C49.4046 26.9299 49.4004 26.9071 49.3957 26.8841C49.391 26.8609 49.3866 26.8375 49.3477 26.8535C49.2645 26.872 49.167 26.8452 49.1135 26.7834C49.1152 26.783 49.1149 26.7767 49.1147 26.7758C49.1179 26.7742 49.1107 26.774 49.1062 26.7749C49.0718 26.7706 49.0601 26.767 49.0391 26.7316C48.9847 26.7582 48.9968 26.7517 48.9361 26.7654C48.8985 26.7388 48.8809 26.665 48.8346 26.6517C48.8131 26.6501 48.7896 26.6638 48.7866 26.6278C48.732 26.6616 48.6865 26.8082 48.6464 26.8429ZM49.8449 27.0783C49.7842 27.1085 49.8315 27.0957 49.7687 27.1184C49.7678 27.1939 49.7814 27.1376 49.8254 27.1993C49.829 27.1995 49.8296 27.1995 49.8254 27.1993C49.8241 27.2065 49.8258 27.2153 49.8326 27.2164C49.8441 27.1639 49.8524 27.1144 49.8606 27.0603C49.8534 27.0743 49.8434 27.0871 49.8449 27.0783ZM47.727 27.2468C47.686 27.2509 47.6609 27.286 47.6509 27.2326C47.5745 27.2459 47.498 27.2687 47.4122 27.2887C47.409 27.3081 47.3746 27.3356 47.374 27.3709C47.374 27.3709 47.4428 27.3811 47.47 27.3806C47.5207 27.3642 47.5492 27.3606 47.593 27.3509C47.6318 27.3403 47.6588 27.3541 47.6853 27.3687C47.711 27.3822 47.7365 27.3951 47.7716 27.3869C47.7841 27.38 47.8073 27.3766 47.8032 27.3626C47.8121 27.307 47.7467 27.298 47.7416 27.2333C47.7378 27.2387 47.7282 27.2387 47.727 27.2468ZM36.2518 26.236C36.2637 26.3813 36.3894 26.5179 36.5385 26.5064C36.7392 26.4809 36.8467 26.2309 36.8377 26.0378C36.7997 25.6929 36.5005 25.6021 36.3231 25.3577C36.3497 25.6821 36.2295 25.9209 36.2518 26.236ZM40.6425 26.2408C40.5834 26.2191 40.5512 26.1678 40.4569 26.1748C40.4445 26.1766 40.4197 26.1804 40.4046 26.1804C40.4086 26.1998 40.4069 26.2394 40.4129 26.2572C40.4422 26.3489 40.6113 26.5978 40.6758 26.6122C40.758 26.6195 40.8409 26.5949 40.884 26.6749C40.9422 26.7677 40.9855 26.8506 41.0329 26.9432C41.1049 27.063 41.2941 27.0033 41.3727 27.2148C41.3878 27.2736 41.4753 27.5079 41.5116 27.5271C41.5226 27.5334 41.5541 27.5379 41.5847 27.5419C41.6157 27.5464 41.6454 27.5507 41.652 27.5561C41.6643 27.5786 41.6615 27.6343 41.6832 27.637C41.7027 27.6359 41.8217 27.8145 41.8374 27.8487C41.9442 28.0585 42.0205 28.2049 42.19 28.366C42.3533 28.5081 42.4969 28.562 42.6587 28.705C42.6636 28.7145 42.8252 28.9186 42.8607 28.9183C42.9076 28.9086 43.0656 28.8537 43.072 28.7566C43.0667 28.6622 43.0304 28.5538 43.1041 28.4982C43.1071 28.3757 43.0941 28.2407 43.0894 28.1101C43.0871 28.0231 42.9766 28.0087 42.9208 27.9614C42.8346 27.8751 42.7299 27.8384 42.7194 27.6408C42.6283 27.6573 42.5621 27.6406 42.5572 27.5163C42.5661 27.4924 42.5786 27.4444 42.5873 27.4189C42.5678 27.3926 42.5353 27.3432 42.5068 27.3466C42.4884 27.3502 42.4588 27.3518 42.4425 27.355C42.4461 27.343 42.4525 27.3191 42.4548 27.3065C42.4404 27.1655 42.3042 27.1396 42.1768 27.1103C41.9385 27.0551 41.8438 26.9515 41.6639 26.7877C41.5817 26.7075 41.5146 26.6037 41.3752 26.5692C41.3461 26.5654 41.2924 26.5665 41.2782 26.5307C41.1962 26.387 41.1303 26.2541 40.9301 26.207C40.8362 26.2171 40.7425 26.2315 40.6425 26.2408ZM47.0883 27.437C47.0851 27.4928 47.1482 27.575 47.1894 27.5705C47.2096 27.5645 47.2461 27.4644 47.2438 27.4505C47.2457 27.411 47.2087 27.3831 47.1701 27.3764C47.1299 27.3694 47.0885 27.386 47.0883 27.437ZM48.314 27.8005C48.3074 27.842 48.269 27.8647 48.2645 27.9456C48.2611 27.9668 48.27 28.0015 48.2913 27.997C48.3414 27.979 48.3193 27.9071 48.3212 27.8282C48.355 27.8215 48.3582 27.7832 48.3607 27.7413C48.3696 27.6931 48.3484 27.7248 48.345 27.6631C48.3034 27.6902 48.3165 27.7487 48.314 27.8005ZM49.0998 28.6877C49.0856 28.8859 49.058 29.0828 49.0397 29.2794C49.0068 29.441 48.9418 29.8226 48.8273 29.8933C48.79 29.9109 48.7751 29.8787 48.7587 29.8455C48.7468 29.8205 48.7335 29.7953 48.7092 29.7919C48.6296 29.7741 48.5684 29.7728 48.4646 29.7561C48.4378 29.7462 48.4712 29.6761 48.4355 29.6396C48.4204 29.6351 48.406 29.6363 48.3938 29.6383C48.3711 29.6417 48.3567 29.6464 48.3584 29.6097C48.3858 29.4914 48.4117 29.3695 48.4404 29.2459C48.4777 29.1853 48.541 29.1657 48.5502 29.0668C48.5616 29.0159 48.5128 28.9668 48.4748 28.9776C48.4083 29.0141 48.406 29.0573 48.3499 29.0819C48.1842 29.1432 48.108 29.081 47.9483 29.0361C47.9472 29.1177 48.005 29.1166 48.0247 29.1706C48.0018 29.1801 47.979 29.2288 47.9349 29.2511C47.8516 29.283 47.6598 29.4092 47.6439 29.5135C47.6326 29.609 47.5649 29.6852 47.5513 29.7881C47.5521 29.8496 47.5555 29.8956 47.5224 29.967C47.5169 29.9598 47.4774 29.9411 47.4487 29.9429C47.3948 29.9746 47.3597 29.9976 47.3296 30.0607C47.3236 29.9264 47.2873 29.8102 47.186 29.8424C47.0764 29.8784 47.0401 30.0276 46.8872 30.0807C46.8636 30.2506 46.7563 30.3159 46.7355 30.5175C46.6907 30.5518 46.6656 30.5141 46.6187 30.4991C46.5854 30.5813 46.6108 30.6829 46.5382 30.7561C46.5248 30.7027 46.4845 30.6926 46.4626 30.6412C46.3955 30.6876 46.3761 30.771 46.3738 30.8448C46.3679 30.882 46.3674 30.9286 46.3655 30.9667C46.3443 31.2129 45.8439 31.5621 45.6101 31.6774C45.4939 31.7356 45.256 31.8135 45.17 31.9255C45.0937 32.0268 44.9323 32.2478 44.8015 32.2974C44.7947 32.2751 44.8004 32.2505 44.7977 32.2287C44.7754 32.2501 44.7212 32.28 44.7184 32.3341C44.7095 32.4753 44.7023 32.6053 44.6896 32.7436C44.6794 32.9212 44.749 32.9813 44.7422 33.0777C44.7386 33.1111 44.7478 33.1343 44.7344 33.166C44.7057 33.1572 44.6917 33.1298 44.6813 33.0955C44.6673 33.1311 44.6522 33.1712 44.6333 33.1953C44.5978 33.3142 44.7229 33.3039 44.7433 33.3908C44.8155 33.6398 44.8134 33.7098 44.8529 33.9626C44.8756 34.0669 44.948 34.1284 44.9253 34.3099C44.8986 34.4539 44.7592 34.5435 44.7412 34.6352C44.7384 34.7193 44.9996 34.7307 45.1037 34.6936C45.3749 34.5821 45.4864 34.3665 45.6897 34.2737C45.7636 34.2473 45.7638 34.1969 45.846 34.2072C45.9556 34.1459 46.0663 34.0815 46.1771 34.0207C46.2861 33.6965 46.5822 33.6504 46.8566 33.4273C46.971 33.3251 47.0229 33.2259 47.1915 33.1322C47.3425 33.0405 47.571 32.9581 47.6193 33.027C47.6356 33.1038 47.6341 33.2273 47.6594 33.2537C48.3779 32.0737 48.948 30.7901 49.3481 29.4353C49.3468 29.4151 49.3466 29.395 49.3451 29.3713C49.3504 29.2835 49.3693 29.0886 49.3451 29.0501C49.3141 29.0418 49.3228 29.0373 49.2506 29.0404C49.1839 28.9756 49.2595 28.889 49.2483 28.798C49.2559 28.6811 49.2188 28.5921 49.2158 28.4115C49.1542 28.5038 49.1646 28.5732 49.0998 28.6877ZM29.0662 25.2877C29.0709 25.3262 29.1511 25.3534 29.1726 25.3507C29.2276 25.3451 29.3155 25.2428 29.3245 25.2104C29.2025 25.2217 29.1467 25.2496 29.0662 25.2877ZM41.0689 27.3484L41.0785 27.3473C41.0868 27.3903 41.2163 27.5374 41.2456 27.5338C41.3002 27.523 41.1626 27.3559 41.1101 27.3243C41.1008 27.33 41.0804 27.3448 41.0689 27.3484ZM42.9339 27.8672C42.9371 27.8963 42.9681 27.8985 43.0034 27.9021C43.0391 27.9057 43.0792 27.9091 43.0979 27.9427C43.1064 27.965 43.1444 28.0603 43.1591 28.0628C43.1712 28.0605 43.1862 28.0704 43.2028 28.0812C43.2215 28.0927 43.2421 28.1044 43.2638 28.1004C43.2801 28.1011 43.3037 28.0909 43.3198 28.0916C43.3115 28.0693 43.3048 28.0265 43.3086 28.0026C43.1922 28.0197 43.1416 27.8555 43.0964 27.724C43.0484 27.7341 42.929 27.8316 42.9339 27.8672ZM43.5883 27.9479C43.5671 27.9533 43.5358 27.9576 43.512 27.9607C43.5159 27.9722 43.5125 27.9941 43.514 28.0055C43.5169 28.0416 43.5375 28.1128 43.5796 28.1035C43.6197 28.1004 43.6565 28.0251 43.6605 27.9826C43.6418 27.9754 43.6176 27.9526 43.5953 27.9488C43.5928 27.9483 43.5904 27.9479 43.5883 27.9479ZM46.8752 28.835C46.8701 28.8548 46.8623 28.9028 46.844 28.9156C46.7601 28.9803 46.6401 29.0044 46.6367 29.1887C46.6378 29.2166 46.6493 29.254 46.6777 29.2508C46.7478 29.2297 46.8449 29.1123 46.875 29.0598C46.8924 29.0344 46.8644 28.9654 46.8954 28.9492C46.9874 28.9273 47.173 28.8111 47.2348 28.6728C47.2306 28.6703 47.2255 28.6687 47.2193 28.6676C47.1467 28.655 46.943 28.751 46.8752 28.835ZM41.4098 27.86C41.4071 27.8699 41.4153 27.8886 41.4126 27.8979C41.4185 27.9486 41.5423 28.0948 41.5785 28.1008C41.584 28.0101 41.5434 27.9632 41.4822 27.8976C41.4867 27.8855 41.4805 27.8641 41.4801 27.8519C41.4614 27.853 41.4289 27.8578 41.4098 27.86ZM46.3723 28.8915C46.2693 28.9091 46.2457 28.874 46.1223 28.8938C46.0756 28.9042 46.0061 28.9129 46.0066 28.9805C46.0006 29.0668 46.1009 29.0371 46.1444 29.0294C46.2185 29.0042 46.2854 28.9907 46.3708 28.9747C46.4434 28.9186 46.5078 28.8855 46.5507 28.764C46.4944 28.8179 46.4585 28.8668 46.3723 28.8915ZM47.6636 29.1673C47.6914 29.1943 47.7465 29.208 47.8087 29.1893C47.8308 29.1794 47.8382 29.1833 47.8597 29.1731C47.8584 29.1396 47.8614 29.099 47.8662 29.0652C47.7979 29.0832 47.762 29.1087 47.6636 29.1673ZM45.6803 29.0051C45.6752 29.024 45.6723 29.0551 45.6729 29.0729C45.6372 29.0668 45.6088 29.0585 45.5463 29.0675C45.4896 29.0936 45.431 29.0853 45.4304 29.1785C45.4301 29.2067 45.5113 29.2191 45.5652 29.2076C45.6351 29.1927 45.6576 29.1362 45.7249 29.0859C45.7436 29.0947 45.7591 29.1013 45.7778 29.1076C45.7961 29.0952 45.8175 29.1001 45.8364 29.0936C45.822 29.0799 45.8362 29.0384 45.8386 28.9697C45.7853 28.9868 45.7364 28.9922 45.6803 29.0051ZM44.7758 28.8472C44.7019 28.8737 44.6356 28.8974 44.5591 28.924C44.4944 28.9361 44.4495 28.9066 44.402 28.8778C44.3531 28.8476 44.3019 28.8172 44.225 28.8289C44.1411 28.849 44.1254 28.9801 44.0035 29.003C43.8793 29.0283 43.7905 28.9713 43.7011 28.9152C43.6151 28.8604 43.5295 28.8059 43.4141 28.8246C43.3727 28.8264 43.3313 28.8938 43.2899 28.8994C43.2793 28.9008 43.2695 28.8933 43.2595 28.8864C43.2491 28.8785 43.2381 28.8715 43.2285 28.8737C43.1858 28.8846 43.0437 29.0749 43.0348 29.0947C43.165 29.0839 43.2113 29.1697 43.299 29.2448C43.3855 29.3277 43.49 29.2155 43.611 29.2337C43.7682 29.2596 43.8873 29.2484 44.0286 29.2164C44.0675 29.2141 44.0919 29.2355 44.1165 29.2567C44.1428 29.2799 44.1698 29.3033 44.217 29.2959C44.509 29.2364 44.749 29.204 44.9833 29.2677C44.9816 29.2443 44.9627 29.1889 44.9839 29.1833C45.0349 29.1742 45.0534 29.1855 45.0697 29.1972C45.0846 29.2067 45.0975 29.2166 45.1298 29.2123C45.1415 29.2031 45.1952 29.131 45.2061 29.1022C45.1574 29.0808 45.1621 29.0663 45.0944 29.049C45.0287 29.0402 44.9746 29.1146 44.9264 29.0661C44.9115 29.0546 44.91 28.9911 44.8696 29.0015C44.7431 29.022 44.6462 29.0303 44.5666 28.949C44.5812 28.9551 44.824 28.8706 44.8312 28.8357C44.8132 28.8406 44.7915 28.8431 44.7758 28.8472ZM45.9845 29.1673C45.9361 29.1749 45.8638 29.1808 45.8602 29.2472C45.8613 29.3358 45.9643 29.313 46.0265 29.2979C46.0282 29.3189 46.0295 29.4056 46.0626 29.3948C46.072 29.3919 46.0801 29.391 46.0879 29.388C46.1087 29.388 46.1385 29.3391 46.1406 29.3175C46.131 29.2132 46.0548 29.2693 46.0486 29.1522C46.0257 29.1544 46.0085 29.1657 45.9845 29.1673ZM45.3363 29.0745C45.3148 29.0715 45.2951 29.0837 45.2751 29.0859C45.2764 29.1112 45.277 29.149 45.2753 29.1724C45.2776 29.192 45.3091 29.2191 45.3284 29.2182C45.3634 29.2089 45.3874 29.1603 45.3979 29.1188C45.3741 29.1082 45.3709 29.0765 45.3501 29.0729C45.3467 29.0724 45.3418 29.0729 45.3363 29.0745ZM28.7459 31.9295C28.7276 31.9888 28.7724 32.1352 28.7376 32.1805C28.6261 32.3179 28.4288 32.6243 28.2597 32.7351C28.0471 32.8811 27.7706 32.8414 27.8383 33.2323C27.8666 33.3568 28.015 33.5528 28.035 33.6416C28.0327 33.6553 27.9498 33.9811 27.9498 33.9811C27.9371 33.9847 27.8266 34.0975 27.8273 34.127C27.8487 34.2381 27.8776 34.3521 27.9838 34.4264C28.0068 34.4706 27.9883 34.512 28.0095 34.6107C28.0507 34.7981 28.2574 35.0126 28.4536 35.0214C28.9166 35.0416 28.8973 34.5623 28.9714 34.2156C29.0689 33.7815 29.1828 33.3983 29.0855 32.7968C29.0963 32.7961 29.1963 32.8232 29.2308 32.8349C29.2293 32.8004 29.2186 32.7475 29.2097 32.7139C29.0995 32.4936 29.0402 31.98 28.7561 31.9309C28.7529 31.9302 28.7495 31.9298 28.7459 31.9295Z" fill="#B2B3B3"/>
<path d="M40.2754 10.0154C40.2754 10.0154 42.0021 10.5401 44.6353 12.666C44.6353 12.666 42.4534 10.9859 40.2754 10.0154Z" fill="white"/>
<path d="M34.6046 8.81049L34.5324 40.8684" stroke="#9D9E9E" stroke-width="0.287999"/>
<path d="M38.2535 9.46765C47.9945 17.0002 45.6181 35.56 39.7538 39.8892" stroke="#9D9E9E" stroke-width="0.287999"/>
<path d="M30.6673 9.53839C20.9314 15.8906 23.2564 36.0015 29.8084 39.9852" stroke="#9D9E9E" stroke-width="0.287999"/>
<path d="M19.2935 25.2903C29.4766 28.8138 39.7576 28.7032 50.1337 25.0601" stroke="#9D9E9E" stroke-width="0.287999"/>
<path d="M20.6234 18.2917C29.9191 20.9728 39.3041 20.8888 48.776 18.1164" stroke="#9D9E9E" stroke-width="0.287999"/>
<path d="M25.2906 12.1337C31.3074 13.3279 37.3817 13.2903 43.5124 12.0558" stroke="#9D9E9E" stroke-width="0.287999"/>
<path d="M21.3553 32.4751C30.1019 36.8447 39.034 36.7145 48.1414 32.264" stroke="#9D9E9E" stroke-width="0.287999"/>
</g>
<path fill-rule="evenodd" clip-rule="evenodd" d="M34.6108 9.14166C42.9732 9.14166 49.7523 16.1845 49.7523 24.8723C49.7523 33.56 42.9732 40.6029 34.6108 40.6029C26.2483 40.6029 19.4693 33.56 19.4693 24.8723C19.4693 16.1845 26.2483 9.14166 34.6108 9.14166Z" stroke="#F5A056" stroke-width="0.755902"/>
<path d="M24.003 54.5901H26.101L21.9889 61.9902H19.8072L15.6353 54.5901H17.7332L20.8859 60.2102L24.003 54.5901ZM29.5053 61.9902H27.4195V56.4211H29.5053V61.9902ZM27.4195 53.8016H29.5053V55.6326H27.4195V53.8016ZM39.1198 54.5901C39.6873 54.5901 40.1788 54.7511 40.5944 55.0731C41.002 55.3952 41.2057 55.8489 41.2057 56.4337C41.2057 56.5948 41.1978 56.7389 41.1817 56.866C41.1657 56.9933 41.1377 57.1118 41.0978 57.2219C41.026 57.4424 40.6543 57.7858 39.9829 58.2518C40.7422 58.5485 41.1377 58.82 41.1698 59.0657C41.1857 59.1673 41.1978 59.2883 41.2057 59.4282C41.2137 59.5679 41.2178 59.7269 41.2178 59.9049V60.1466C41.2178 60.655 41.0139 61.0916 40.6063 61.4561C40.1987 61.8122 39.7073 61.9902 39.1317 61.9902H30.752V54.5901L39.1198 54.5901ZM32.8379 56.4463V60.1466H37.8731C38.1846 60.1466 38.4166 60.0659 38.5682 59.9049C38.6162 59.854 38.6402 59.799 38.6402 59.7395C38.6402 59.587 38.5123 59.4133 38.2566 59.2183H34.2047V57.3618H38.2566C38.5123 57.1669 38.6402 56.9973 38.6402 56.8534C38.6402 56.7939 38.6162 56.7389 38.5682 56.688C38.4166 56.527 38.1806 56.4463 37.8609 56.4463H32.8379ZM52.9901 59.2183V57.3618H44.994C44.994 57.2602 45.038 57.1564 45.1257 57.0505C45.2136 56.9444 45.3536 56.8468 45.5454 56.7579C45.7372 56.6689 45.981 56.5948 46.2766 56.5355C46.5723 56.476 46.9281 56.4463 47.3437 56.4463H53.0141V54.5646H46.4805C45.7212 54.5646 44.8821 54.8527 43.9629 55.4292C43.0598 55.9971 42.5883 56.9635 42.5484 58.3282V61.9902H53.0141V60.1337H44.994V59.2183H52.9901Z" fill="#2F3C84"/>
<path d="M3.75355 66.2507L2.74088 66.4798C2.63596 65.8639 2.37748 65.5567 1.96545 65.5567C1.75072 65.5567 1.57083 65.6294 1.42471 65.7752C1.27986 65.9223 1.18237 66.1221 1.13119 66.3751C1.08 66.628 1.05388 66.995 1.05388 67.4733C1.05388 68.1049 1.08382 68.5512 1.14117 68.8136C1.2 69.0772 1.31108 69.2705 1.47334 69.3937C1.63455 69.518 1.81189 69.5804 2.00538 69.5804C2.1515 69.5804 2.29253 69.5525 2.42995 69.4969C2.56609 69.4412 2.69713 69.3592 2.82457 69.2506V68.3036H2.02046V67.403H3.84234V69.7976C3.47384 70.0929 3.14421 70.2837 2.85324 70.3698C2.56354 70.4572 2.26004 70.4995 1.94294 70.4995C1.32361 70.4995 0.845313 70.2731 0.506973 69.8215C0.169699 69.3685 0 68.648 0 67.66C0 67.1527 0.0310088 66.713 0.0934514 66.3419C0.155894 65.9712 0.288425 65.6481 0.491894 65.3726C0.695363 65.0971 0.920283 64.9022 1.16496 64.7885C1.41091 64.6745 1.69827 64.6175 2.02662 64.6175C2.52977 64.6175 2.92206 64.7421 3.20538 64.9924C3.48765 65.2415 3.67114 65.6612 3.75355 66.2507ZM4.79638 64.7144H5.8167V69.4982H7.85458V70.4029H4.79638V64.7144ZM10.1297 64.6175C10.7877 64.6175 11.2798 64.8599 11.6045 65.3474C11.9278 65.8335 12.0903 66.5963 12.0903 67.6361C12.0903 68.3527 12.0127 68.9116 11.8579 69.3128C11.7031 69.7129 11.4822 70.0123 11.1948 70.2069C10.9064 70.4029 10.5555 70.4995 10.1409 70.4995C9.775 70.4995 9.47404 70.4347 9.23935 70.3063C9.00339 70.1765 8.80226 69.9724 8.63489 69.6931C8.46753 69.4135 8.35263 69.0878 8.28785 68.7167C8.22286 68.346 8.19036 67.9353 8.19036 67.485C8.19036 66.5276 8.35263 65.811 8.67482 65.3327C8.99829 64.8561 9.48275 64.6175 10.1297 64.6175ZM9.24806 67.7605C9.24806 68.4507 9.3292 68.926 9.49274 69.1844C9.65649 69.4426 9.87504 69.5725 10.1484 69.5725C10.372 69.5725 10.563 69.4863 10.7203 69.3142C10.8777 69.1421 10.9714 68.8916 11.0001 68.5618C11.03 68.232 11.0438 67.8229 11.0438 67.334C11.0438 66.6481 10.9589 66.1804 10.7877 65.9315C10.618 65.6812 10.402 65.5567 10.141 65.5567C9.92856 65.5567 9.74506 65.6414 9.59023 65.811C9.43539 65.9804 9.343 66.1978 9.31178 66.4625C9.28184 66.7274 9.2606 67.1606 9.24806 67.7605ZM12.9645 64.7144H14.5266C14.7901 64.7144 15.0323 64.754 15.2546 64.8322C15.4768 64.9117 15.6629 65.0653 15.8141 65.2944C15.9651 65.5235 16.0413 65.799 16.0413 66.1234C16.0413 66.4361 15.9715 66.6983 15.8302 66.9103C15.6905 67.1221 15.4806 67.2852 15.1996 67.3951C15.5505 67.4678 15.8141 67.6228 15.9902 67.8598C16.1662 68.0957 16.2535 68.4149 16.2535 68.8161C16.2535 69.1261 16.1875 69.4108 16.0564 69.6719C15.9239 69.9314 15.7378 70.1181 15.4957 70.2321C15.2546 70.3459 14.9624 70.4029 14.6177 70.4029H12.9645L12.9645 64.7144ZM13.9633 67.0083H14.2443C14.5128 67.0083 14.7139 66.95 14.8462 66.8335C14.9798 66.7168 15.0461 66.5433 15.0461 66.3129C15.0461 66.0878 14.9836 65.9196 14.86 65.8069C14.7351 65.6943 14.5491 65.6375 14.2993 65.6375H13.9633V67.0083ZM13.9633 69.4797H14.2993C14.6389 69.4797 14.8738 69.4095 15.0036 69.2678C15.1346 69.1274 15.1996 68.9341 15.1996 68.6877C15.1996 68.5169 15.1648 68.3725 15.096 68.2545C15.0261 68.138 14.935 68.0547 14.8214 68.0042C14.7077 67.9553 14.534 67.9315 14.2993 67.9315H13.9633L13.9633 69.4797ZM18.2655 64.7144H19.3693L20.8915 70.4029H19.835L19.5853 69.277H18.0344L17.7821 70.4029H16.7282L18.2655 64.7144ZM19.3769 68.3459L18.8173 65.77L18.243 68.3459H19.3769ZM21.4148 64.7144H22.4351V69.4982H24.473V70.4029H21.4148V64.7144ZM27.0378 64.7144H28.0655V70.4029H27.0378V64.7144ZM28.7348 64.7144H32.2188V65.6031H30.9814V70.4029H29.9762V65.6031H28.7348V64.7144ZM37.9143 66.3129L36.8978 66.3751C36.8366 65.795 36.6219 65.5062 36.2534 65.5062C36.0973 65.5062 35.9662 65.5567 35.86 65.6574C35.7538 65.758 35.7014 65.893 35.7014 66.0613C35.7014 66.2057 35.7515 66.346 35.8513 66.4798C35.9486 66.615 36.2173 66.7911 36.6554 67.011C37.1511 67.2599 37.5084 67.5156 37.7282 67.7805C37.9468 68.0466 38.0566 68.3831 38.0566 68.7884C38.0566 69.2876 37.9017 69.6982 37.5921 70.0188C37.2824 70.3394 36.8566 70.4995 36.3158 70.4995C35.1819 70.4995 34.595 69.8546 34.5564 68.5631L35.5841 68.4665C35.6128 68.885 35.6927 69.1765 35.8239 69.338C35.9537 69.4996 36.1323 69.5804 36.3596 69.5804C36.5906 69.5804 36.7654 69.5074 36.8827 69.3633C37.0001 69.2175 37.0588 69.0533 37.0588 68.8704C37.0588 68.6917 37.0014 68.53 36.8865 68.3858C36.7691 68.2401 36.4532 68.0452 35.9386 67.799C35.4293 67.5539 35.0946 67.2971 34.9359 67.0308C34.7773 66.7673 34.6987 66.4771 34.6987 66.162C34.6987 65.8254 34.7737 65.5434 34.9234 65.3143C35.0733 65.0852 35.2632 64.9117 35.4928 64.7937C35.7213 64.6759 36.0049 64.6175 36.3409 64.6175C36.8704 64.6175 37.2561 64.7619 37.4997 65.0521C37.7418 65.342 37.8805 65.7619 37.9143 66.3129ZM40.6503 64.6175C41.3082 64.6175 41.8004 64.8599 42.1251 65.3474C42.4483 65.8335 42.6108 66.5963 42.6108 67.6361C42.6108 68.3527 42.5333 68.9116 42.3785 69.3128C42.2236 69.7129 42.0028 70.0123 41.7154 70.2069C41.427 70.4029 41.0761 70.4995 40.6615 70.4995C40.2956 70.4995 39.9946 70.4347 39.7599 70.3062C39.524 70.1765 39.3228 69.9724 39.1555 69.6931C38.9881 69.4135 38.8732 69.0878 38.8084 68.7167C38.7434 68.3459 38.7109 67.9353 38.7109 67.485C38.7109 66.5276 38.8732 65.811 39.1954 65.3327C39.5189 64.8561 40.0033 64.6175 40.6503 64.6175ZM39.7686 67.7605C39.7686 68.4507 39.8498 68.926 40.0133 69.1844C40.1771 69.4426 40.3956 69.5725 40.6689 69.5725C40.8926 69.5725 41.0835 69.4863 41.2409 69.3142C41.3983 69.1421 41.492 68.8916 41.5206 68.5618C41.5506 68.232 41.5644 67.8229 41.5644 67.334C41.5644 66.6481 41.4794 66.1804 41.3082 65.9315C41.1385 65.6812 40.9225 65.5567 40.6615 65.5567C40.4491 65.5567 40.2656 65.6414 40.1108 65.811C39.956 65.9804 39.8636 66.1978 39.8324 66.4625C39.8024 66.7274 39.7812 67.1606 39.7686 67.7605ZM43.5037 64.7144H44.524V69.4982H46.5619V70.4029H43.5037V64.7144ZM47.0338 64.7144H48.0503V68.2957C48.0503 68.575 48.0665 68.8017 48.1002 68.9751C48.1327 69.1486 48.2103 69.2889 48.33 69.3964C48.4511 69.5036 48.6059 69.5565 48.7971 69.5565C48.9819 69.5565 49.1293 69.5155 49.2391 69.4306C49.3491 69.3473 49.4264 69.2295 49.4714 69.0797C49.5165 68.9301 49.54 68.685 49.54 68.3459V64.7144H50.564V68.4122C50.564 68.8598 50.5104 69.2373 50.403 69.5433C50.2955 69.8505 50.112 70.0864 49.851 70.252C49.5899 70.4175 49.2554 70.4995 48.8483 70.4995C48.4237 70.4995 48.0828 70.432 47.8256 70.2984C47.5682 70.1632 47.3722 69.9379 47.2362 69.6214C47.1014 69.3036 47.0338 68.8307 47.0338 68.2029V64.7144ZM51.2321 64.7144H54.7162V65.6031H53.4788V70.4029H52.4735V65.6031H51.2321V64.7144ZM55.3892 64.7144H56.417V70.4029H55.3892V64.7144ZM59.2454 64.6175C59.9033 64.6175 60.3955 64.8599 60.7202 65.3474C61.0434 65.8335 61.2059 66.5963 61.2059 67.6361C61.2059 68.3527 61.1284 68.9116 60.9736 69.3128C60.8187 69.7129 60.5979 70.0123 60.3105 70.2069C60.0221 70.4029 59.6712 70.4995 59.2566 70.4995C58.8907 70.4995 58.5897 70.4346 58.355 70.3062C58.1191 70.1765 57.9179 69.9724 57.7506 69.6931C57.5832 69.4135 57.4683 69.0878 57.4035 68.7167C57.3385 68.3459 57.306 67.9353 57.306 67.485C57.306 66.5276 57.4683 65.811 57.7905 65.3327C58.114 64.8561 58.5984 64.6175 59.2454 64.6175ZM58.3637 67.7605C58.3637 68.4507 58.4449 68.926 58.6084 69.1844C58.7722 69.4426 58.9907 69.5725 59.2641 69.5725C59.4877 69.5725 59.6786 69.4863 59.836 69.3142C59.9934 69.1421 60.0871 68.8916 60.1157 68.5618C60.1457 68.232 60.1595 67.8229 60.1595 67.334C60.1595 66.6481 60.0745 66.1804 59.9033 65.9315C59.7336 65.6812 59.5177 65.5567 59.2566 65.5567C59.0442 65.5567 58.8607 65.6414 58.7059 65.811C58.5511 65.9804 58.4587 66.1978 58.4275 66.4625C58.3975 66.7274 58.3763 67.1606 58.3637 67.7605ZM62.0801 64.7144H63.1191L64.67 68.2957V64.7144H65.6177V70.4029H64.6226L62.9579 66.6771L63.0091 70.4029H62.0801V64.7144ZM69.8574 66.3129L68.8409 66.3751C68.7797 65.795 68.565 65.5062 68.1965 65.5062C68.0404 65.5062 67.9094 65.5566 67.8032 65.6573C67.697 65.758 67.6445 65.893 67.6445 66.0612C67.6445 66.2056 67.6946 66.346 67.7945 66.4798C67.8917 66.615 68.1604 66.7911 68.5986 67.011C69.0943 67.2599 69.4515 67.5156 69.6713 67.7805C69.8899 68.0466 69.9997 68.3831 69.9997 68.7884C69.9997 69.2876 69.8449 69.6982 69.5352 70.0188C69.2255 70.3393 68.7997 70.4995 68.2589 70.4995C67.125 70.4995 66.5382 69.8546 66.4995 68.5631L67.5273 68.4665C67.5559 68.885 67.6358 69.1765 67.7671 69.338C67.8968 69.4995 68.0754 69.5804 68.3027 69.5804C68.5338 69.5804 68.7086 69.5074 68.8258 69.3633C68.9433 69.2175 69.0019 69.0533 69.0019 68.8704C69.0019 68.6917 68.9445 68.53 68.8296 68.3858C68.7122 68.2401 68.3964 68.0452 67.8818 67.799C67.3724 67.5539 67.0377 67.2971 66.8791 67.0308C66.7204 66.7672 66.6418 66.4771 66.6418 66.1619C66.6418 65.8254 66.7168 65.5433 66.8665 65.3142C67.0165 65.0852 67.2064 64.9117 67.4359 64.7937C67.6645 64.6758 67.948 64.6175 68.284 64.6175C68.8135 64.6175 69.1992 64.7619 69.4428 65.052C69.6849 65.342 69.8236 65.7619 69.8574 66.3129Z" fill="black"/>
<path d="M39.5889 15.9611H42.9205L36.3908 33.7834H32.9261L26.3012 15.9611H29.6328L34.6394 29.4962L39.5889 15.9611Z" fill="#393185" stroke="#FEFEFE" stroke-width="0.377952"/>
</g>
<defs>
<clipPath id="clip0_96_171">
<rect width="70" height="70" fill="white" transform="translate(0 0.5)"/>
</clipPath>
</defs>
</svg>
