<svg width="100" height="100" viewBox="0 0 100 100" fill="none" xmlns="http://www.w3.org/2000/svg">
<g clip-path="url(#clip0_121_336)">
<path d="M49.4448 0.000244141V69.6348" stroke="#F5A056" stroke-width="0.944878"/>
<path d="M43.7446 0.529053L55.145 69.1057" stroke="#F5A056" stroke-width="0.944878"/>
<path d="M38.2173 2.09985L60.672 67.535" stroke="#F5A056" stroke-width="0.944878"/>
<path d="M33.0314 4.66455L65.8579 64.9699" stroke="#F5A056" stroke-width="0.944878"/>
<path d="M28.344 8.14575L70.5448 61.489" stroke="#F5A056" stroke-width="0.944878"/>
<path d="M24.2979 12.4375L74.5908 57.1977" stroke="#F5A056" stroke-width="0.944878"/>
<path d="M21.0159 17.4089L77.8729 52.2263" stroke="#F5A056" stroke-width="0.944878"/>
<path d="M18.5974 22.9094L80.2911 46.7259" stroke="#F5A056" stroke-width="0.944878"/>
<path d="M17.1165 28.7717L81.772 40.8635" stroke="#F5A056" stroke-width="0.944878"/>
<path d="M16.6177 34.8176H82.2705" stroke="#F5A056" stroke-width="0.944878"/>
<path d="M17.1165 40.8635L81.7717 28.7717" stroke="#F5A056" stroke-width="0.944878"/>
<path d="M18.5974 46.7261L80.2908 22.9097" stroke="#F5A056" stroke-width="0.944878"/>
<path d="M21.0156 52.2266L77.8726 17.4094" stroke="#F5A056" stroke-width="0.944878"/>
<path d="M24.2977 57.1982L74.5906 12.438" stroke="#F5A056" stroke-width="0.944878"/>
<path d="M28.3437 61.4897L70.5445 8.14673" stroke="#F5A056" stroke-width="0.944878"/>
<path d="M33.0308 64.9709L65.8574 4.66553" stroke="#F5A056" stroke-width="0.944878"/>
<path d="M38.2167 67.5359L60.6714 2.10083" stroke="#F5A056" stroke-width="0.944878"/>
<path d="M43.744 69.1067L55.1445 0.530273" stroke="#F5A056" stroke-width="0.944878"/>
<path d="M49.444 66.2293C65.8002 66.2293 79.0596 52.1659 79.0596 34.8177C79.0596 17.4695 65.8002 3.40601 49.444 3.40601C33.0877 3.40601 19.8284 17.4695 19.8284 34.8177C19.8284 52.1659 33.0877 66.2293 49.444 66.2293Z" stroke="#FEFEFE" stroke-width="2.83463"/>
<path fill-rule="evenodd" clip-rule="evenodd" d="M49.444 12.3452C61.3903 12.3452 71.0747 22.4064 71.0747 34.8175C71.0747 47.2286 61.3903 57.2898 49.444 57.2898C37.4976 57.2898 27.8133 47.2286 27.8133 34.8175C27.8133 22.4064 37.4976 12.3452 49.444 12.3452Z" fill="#FEFEFE"/>
<mask id="mask0_121_336" style="mask-type:luminance" maskUnits="userSpaceOnUse" x="27" y="12" width="45" height="46">
<path d="M49.444 12.3452C61.3903 12.3452 71.0747 22.4064 71.0747 34.8175C71.0747 47.2286 61.3903 57.2898 49.444 57.2898C37.4976 57.2898 27.8133 47.2286 27.8133 34.8175C27.8133 22.4064 37.4976 12.3452 49.444 12.3452Z" fill="white"/>
</mask>
<g mask="url(#mask0_121_336)">
<path d="M30.3493 23.7329L30.3906 23.9067L30.3493 23.7329Z" fill="white"/>
<path d="M30.1226 22.0234L30.9664 23.8652C30.9664 23.8652 30.2871 22.6339 30.1226 22.0234Z" fill="white"/>
<path fill-rule="evenodd" clip-rule="evenodd" d="M43.7525 12.5817C31.9716 15.7848 24.9382 28.2776 28.0397 40.4888C31.1384 52.6997 43.2027 60.0027 54.9809 56.7996C66.7616 53.5963 73.7981 41.1009 70.6951 28.8909C68.0881 18.6231 59.1475 11.8271 49.3642 11.8284C47.5121 11.8284 45.6276 12.0723 43.7525 12.5817Z" fill="#434242"/>
<path fill-rule="evenodd" clip-rule="evenodd" d="M53.875 12.6959C53.3938 12.6683 53.2876 12.7667 52.8625 12.7902C53.148 12.8408 53.3346 12.8639 53.6341 12.8865C53.6924 12.8987 53.9612 12.918 54.0647 12.9228C53.7485 12.9273 53.659 12.9527 53.3262 12.9614C53.487 12.993 53.7819 13.0866 53.9081 13.095C54.2801 13.1178 54.6147 13.1951 55.065 13.2417C55.1548 13.2504 55.2598 13.2659 55.2492 13.2199C55.2155 13.2115 55.1582 13.1832 55.0853 13.1713C55.1451 13.1594 55.2789 13.2054 55.2677 13.1565C55.2452 13.1111 55.2316 13.1156 55.3226 13.1095C55.1791 13.0515 55.1761 13.0348 54.9731 13.02C54.9075 13.0174 54.8496 13.0091 54.7725 13.0001C54.7085 13.0007 54.6578 12.9872 54.6044 12.9737C54.562 12.9624 54.5174 12.9511 54.464 12.9463C54.3863 12.9254 54.3496 12.919 54.2513 12.9267C54.3323 12.9128 54.4382 12.9219 54.4227 12.8945C54.4275 12.8694 54.4321 12.8961 54.4027 12.8414C54.4394 12.8511 54.4239 12.8465 54.5204 12.8472C54.3775 12.8124 54.2346 12.7519 54.0292 12.7165C53.9818 12.7082 53.9305 12.7011 53.875 12.6959ZM52.7087 12.6406C52.5852 12.6345 52.459 12.6258 52.3261 12.6274C52.4117 12.6541 52.5892 12.6679 52.7494 12.6631C52.733 12.6602 52.7251 12.6435 52.7087 12.6406C52.7093 12.6406 52.7081 12.6406 52.7087 12.6406ZM56.0456 13.2414C55.6661 13.1771 55.6157 13.2852 55.4121 13.3193C55.3508 13.3415 55.241 13.2839 55.2601 13.364C55.3068 13.3775 55.3035 13.4165 55.4291 13.4223C55.5987 13.4281 55.7626 13.4368 55.9337 13.4403C55.9337 13.4403 56.2326 13.458 56.2708 13.4709C56.4528 13.4902 56.9359 13.5594 56.9067 13.5024C56.8664 13.4461 56.4713 13.3299 56.3312 13.3112C56.2605 13.3029 56.2386 13.3158 56.171 13.3135C56.2568 13.2968 56.2131 13.3145 56.171 13.2575C56.1603 13.254 56.1494 13.2514 56.1385 13.2495C56.1072 13.244 56.076 13.2443 56.0456 13.2414ZM52.9278 12.8362C52.8686 12.8408 52.6508 12.8018 52.6556 12.852C52.6817 12.89 52.8283 12.9289 52.8871 12.9293C53.0233 12.9527 53.335 12.9894 53.355 12.8977C53.3501 12.8968 53.3438 12.8958 53.3371 12.8945C53.2436 12.8784 52.9736 12.844 52.9278 12.8362ZM57.246 13.626C57.2818 13.6408 57.3397 13.6665 57.4498 13.6929C57.5181 13.7048 57.5497 13.7103 57.5485 13.673C57.5048 13.6733 57.4781 13.6656 57.4395 13.6566C57.4201 13.6514 57.3971 13.6463 57.3676 13.6411C57.3358 13.6353 57.2972 13.6302 57.246 13.626ZM56.7144 13.6279C56.1949 13.543 56.0693 13.5893 55.8232 13.6372C55.6391 13.6504 54.4157 13.7454 54.4567 13.57C54.115 13.5845 52.6404 13.5555 51.8598 13.7994C51.7812 13.8364 51.8725 13.9697 51.8249 14.0173C51.7563 14.0788 51.5624 14.0279 51.4244 14.0231C51.1458 14.0231 50.0796 14.0244 49.7095 14.1267C49.592 14.1747 49.7965 14.2255 49.8066 14.3098C49.8205 14.3362 50.0669 14.3694 50.2887 14.3987C50.4552 14.4202 50.6079 14.4392 50.64 14.4514C50.6516 14.4743 49.8609 14.4083 49.8603 14.4341C49.7823 14.4547 49.6958 14.4331 49.586 14.4086C49.4795 14.3842 49.3505 14.3562 49.1873 14.3584C48.9515 14.3787 48.6369 14.5103 48.3025 14.5464C48.2828 14.5695 48.3717 14.5757 48.4643 14.5824C48.5532 14.5892 48.6457 14.5959 48.653 14.6188C48.6554 14.6484 48.8077 14.6642 48.9312 14.6754C49.0259 14.6835 49.1026 14.6893 49.0817 14.6947C48.9764 14.7237 48.1645 14.6938 48.1329 14.697C47.967 14.6757 48.1772 14.4469 48.0659 14.399C48.0252 14.5399 47.7485 14.6371 47.4445 14.7243C47.547 14.836 47.8957 14.8772 47.5492 15.0677C47.53 15.0828 47.5992 15.2334 47.7306 15.2437C47.8841 15.2264 48.2655 15.1038 48.4955 15.1482C48.507 15.1475 48.879 15.2003 49.0007 15.2669C49.1339 15.3097 48.9849 15.3744 48.9364 15.3763C48.9172 15.377 48.869 15.34 48.8108 15.3013C48.7449 15.2579 48.666 15.2122 48.5993 15.2141C48.298 15.2299 47.8941 15.2473 47.8829 15.2682C47.8978 15.405 48.0525 15.5807 47.8198 15.6087C47.8098 15.6116 47.7051 15.692 47.6047 15.7667C47.4363 15.8619 47.1414 15.9591 47.0327 15.9961C46.878 16.0315 47.0391 15.813 47.017 15.8021C46.966 15.794 47.4242 15.5871 47.4144 15.5408C47.3862 15.5118 47.5498 15.422 47.5173 15.3844C47.4666 15.3355 47.2515 15.3419 47.2266 15.2827C47.1869 15.1652 47.2539 15.0223 47.2184 14.9245C47.1684 14.8051 47.0139 14.8206 47.0045 14.7613C47.0015 14.6062 47.8095 14.4611 46.8061 14.5052C46.7497 14.5071 46.6456 14.5168 46.5254 14.5319C46.6456 14.5084 46.7612 14.4756 46.7964 14.4643C46.6762 14.4363 46.6486 14.416 46.5103 14.4279C46.4211 14.4434 46.3573 14.4769 46.3452 14.5229C46.3476 14.537 46.324 14.5589 46.3422 14.5596C46.2472 14.576 46.1583 14.594 46.0964 14.6165C45.9165 14.6857 45.8497 14.8476 45.6862 14.9277C45.5111 15.0136 45.3925 15.0191 45.2899 15.0963C45.2101 15.1482 45.4529 15.144 45.4544 15.1968C45.452 15.3081 45.3033 15.3763 45.4207 15.3795C45.5618 15.3927 45.7526 15.3625 45.9047 15.4046C46.1538 15.5263 46.0943 15.6116 45.8585 15.6344C45.7117 15.6357 45.4981 15.6 45.276 15.5907C44.9034 15.5903 44.5159 15.5672 44.2908 15.5833C42.7088 15.6904 43.376 15.9141 43.3457 15.9434C42.8772 16.1496 42.8742 16.0743 42.8802 16.0013C42.8839 15.9601 42.8893 15.9183 42.8132 15.9298C42.474 16.0064 41.6605 16.4303 41.1544 16.457C41.1359 16.4135 41.4657 16.2678 41.409 16.2729C41.1696 16.2932 40.6304 16.5493 40.0882 16.8351C39.8825 16.9397 39.7356 16.9551 39.5527 17.035C39.2793 17.1926 39.4256 17.3188 38.9349 17.4285C38.8057 17.4427 38.5593 17.4359 38.6036 17.3603C38.6543 17.3275 39.0775 17.2277 39.0933 17.1675C39.0921 17.0195 38.532 16.9825 38.2881 17.2506C38.2301 17.3143 38.4677 17.2416 38.2274 17.5277C38.1961 17.574 38.3909 17.556 38.3767 17.6448C38.3654 17.7146 38.0223 17.8302 37.9385 17.845C37.9158 17.8546 37.9255 17.8289 37.9309 17.8028C37.9382 17.7719 37.9403 17.7394 37.8812 17.7642C37.6606 17.8623 37.2401 18.1751 37.116 18.2453C36.9761 18.3071 37.1894 18.3817 37.1217 18.4577C37.0425 18.5243 36.6806 18.5903 36.1599 18.6807C36.2203 18.7505 36.2173 18.7737 36.244 18.832C36.3529 18.8146 36.4451 18.8043 36.555 18.7972C36.3414 18.8538 36.1982 19.0202 36.0537 18.9926C35.9624 18.9971 35.8696 19.0357 35.8086 18.9961C35.753 18.9295 35.8495 18.9172 35.818 18.8349C35.7588 18.7457 35.6572 18.7032 35.5916 18.6691C35.9663 18.5082 36.1715 18.4307 36.5483 18.3351C37.0592 18.2125 38.154 17.4421 36.6427 17.7935C36.1897 17.8845 35.9597 17.9174 35.6405 18.05C35.6074 18.059 35.449 18.0812 35.2224 18.1883C35.196 18.2118 35.0073 18.2778 34.9272 18.3161C34.949 18.2945 34.8665 18.3174 34.7915 18.3357C35.0073 18.2057 35.0728 18.2022 35.1766 18.0728C35.0895 18.0992 34.9375 18.1471 34.8838 18.1668C34.8049 18.2192 34.7648 18.2453 34.7321 18.2897C34.6438 18.3386 34.6641 18.32 34.6735 18.2511C34.5191 18.364 34.4578 18.4159 34.3158 18.523C34.3379 18.4999 34.3449 18.5095 34.2961 18.4825C34.1947 18.5613 34.1261 18.6357 34.0397 18.7016C32.7544 20.0545 31.6315 21.5709 30.7043 23.2131C30.7097 23.2154 30.7161 23.2164 30.7209 23.2173C30.7285 23.2402 30.7094 23.2553 30.7003 23.2749C30.707 23.3032 30.6524 23.535 30.7243 23.4954C30.8569 23.3985 30.9321 23.1562 31.048 23.0854C31.1084 23.0323 31.1836 23.0117 31.2701 22.9612C31.3168 22.8511 31.4552 22.7587 31.5138 22.6072C31.4552 22.621 31.4164 22.6471 31.4412 22.5792C31.4655 22.4755 31.5034 22.2998 31.6212 22.2139C31.7113 22.1676 31.9052 21.9343 31.9264 21.866C31.9501 21.773 31.958 21.6694 31.8442 21.7209C31.8484 21.68 31.8742 21.6568 31.8181 21.6675C31.7805 21.598 31.8023 21.6578 31.7574 21.5963C31.853 21.4998 31.8269 21.4612 31.8933 21.3595C31.9734 21.2362 32.069 21.1439 32.2043 21.0357C32.3557 20.8945 32.7065 20.5678 32.7468 20.4587C32.7747 20.4214 32.7462 20.4185 32.779 20.3541C32.8245 20.2212 33.0163 20.0256 33.2511 19.8936C33.4313 19.7852 33.6607 19.6809 33.6322 19.799C33.5976 19.8923 33.2557 20.2174 33.1343 20.3113C32.941 20.4922 32.9328 20.5952 32.6479 20.7719C32.6506 20.8185 32.5654 20.9775 32.5584 21.0203C32.5554 21.084 32.5396 21.1374 32.6064 21.1152C32.5827 21.1481 32.5065 21.2208 32.4813 21.2745C32.4707 21.3737 32.5994 21.3637 32.7426 21.2819C32.7411 21.346 32.7523 21.3395 32.8533 21.2832C32.9738 21.216 33.0587 21.2018 33.2226 21.1024C33.3606 21.0348 33.5224 20.9238 33.6331 20.7834C33.675 20.8047 33.7651 20.7741 33.8546 20.7439C33.955 20.7091 34.0542 20.6737 34.0779 20.7126C33.9699 20.8021 33.8425 20.9785 33.742 21.0283C33.604 21.0898 33.3449 21.1316 33.1749 21.2111C32.9896 21.2951 32.5026 21.7605 32.5988 21.7862C32.7107 21.8017 32.8439 21.607 32.9419 21.6945C33.016 21.7714 32.8509 21.9668 32.7884 21.9899C32.705 22.0298 32.6698 22.0157 32.6373 22.0015C32.6073 21.9883 32.5797 21.9754 32.5199 22.0054C32.3924 22.071 32.1977 22.4633 32.1725 22.5956C32.1148 22.7996 31.9036 22.855 31.8481 23.0493C31.768 23.0973 31.6776 23.1481 31.5966 23.1884C31.6118 23.1655 31.6248 23.1388 31.6363 23.116C31.5675 23.1327 31.5086 23.172 31.4158 23.2157C31.3369 23.2682 31.2134 23.3911 31.1606 23.449C31.0474 23.5333 31.018 23.5314 30.8978 23.6325C30.8593 23.6692 30.8429 23.6991 30.7828 23.7474C30.7828 23.7474 30.6985 23.7416 30.7036 23.7274C30.7115 23.711 30.7358 23.6756 30.7534 23.6453C30.636 23.7152 30.4834 23.9025 30.3423 24.0093C30.3329 24.0119 30.315 23.991 30.3016 23.9681C29.7282 25.0764 29.2427 26.2388 28.854 27.4453C28.8883 27.4289 28.8995 27.4344 28.9105 27.4402C28.9241 27.4476 28.9375 27.4547 28.9936 27.4167C29.1019 27.3588 29.1735 27.184 29.2755 27.062C29.3359 26.9874 29.3392 26.9066 29.4287 26.8541C29.6256 26.7386 29.7179 26.8657 29.6945 27.1406C29.6945 27.1695 29.7088 27.1698 29.7309 27.1708C29.7524 27.1721 29.7822 27.1747 29.8128 27.2062C29.896 27.2847 29.9242 27.3362 30.1117 27.3011C30.0956 27.3459 30.1812 27.3362 30.2194 27.3285C30.2236 27.3755 30.4752 27.6249 30.5055 27.6291C30.5028 27.7021 30.5635 27.6989 30.5553 27.8273C30.541 27.9197 30.5031 28.0552 30.4236 28.0867C30.4269 28.1179 30.4269 28.1359 30.4916 28.115C30.5941 28.0745 30.6008 27.9081 30.6697 27.8045C30.6697 27.8045 30.7379 27.7002 30.7443 27.6616C30.7495 27.5464 30.6863 27.6387 30.6921 27.5296C30.6997 27.4537 30.7134 27.3298 30.8026 27.2908C30.8632 27.2728 30.8924 27.2892 30.9203 27.3057C30.9449 27.3192 30.9691 27.3333 31.0162 27.324C31.0592 27.1499 30.8563 27.0907 30.73 27.0688C30.7109 27.0617 30.6845 27.0614 30.6587 27.062C30.6017 27.0614 30.5459 27.0611 30.5704 26.9861C30.5771 26.9652 30.5817 26.9378 30.589 26.9169C30.4852 26.9517 30.419 27.0292 30.3314 27.0144C30.2461 27.0022 30.2449 26.8432 30.24 26.747C30.2294 26.6723 30.1957 26.5835 30.1093 26.5893C29.9864 26.5983 29.9949 26.5755 30.0122 26.4673C30.0025 26.4236 30.0346 26.3727 30.0519 26.3238C30.0458 26.337 30.0249 26.3061 30.0304 26.2923C30.0328 26.2092 30.1672 26.1484 30.2446 26.058C30.2934 26.1165 30.223 26.262 30.294 26.2192C30.3869 26.1803 30.4181 26.1523 30.4837 26.1278C30.4664 26.2903 30.6269 26.5391 30.771 26.4699C30.8156 26.467 30.8195 26.4371 30.8645 26.4294C30.8587 26.505 30.9112 26.5047 30.9767 26.5066C31.0013 26.5079 31.0286 26.5092 31.0547 26.5146C31.1448 26.524 31.2917 26.6318 31.285 26.747C31.2744 26.8123 31.2707 26.8873 31.265 26.9555C31.2489 27.1264 31.2161 27.1592 31.2977 27.2226C31.3708 27.2805 31.4039 27.3195 31.4385 27.4295C31.4315 27.4437 31.444 27.5255 31.4773 27.5042C31.5356 27.5 31.5535 27.472 31.609 27.4601C31.5932 27.5068 31.501 27.6632 31.4937 27.7469C31.4804 27.9251 31.6366 28.1105 31.7686 28.0774C31.8111 28.0597 31.8381 28.0622 31.8818 28.0426C31.7756 28.0033 31.8903 27.855 31.893 27.7961C31.8939 27.7153 31.8851 27.5641 31.8593 27.5132C31.8575 27.4939 31.8575 27.4678 31.8651 27.4476C31.9067 27.4926 31.9768 27.64 32.0608 27.6384C32.0684 27.6336 32.0705 27.6339 32.0769 27.6307C32.0884 27.5599 32.1828 27.4444 32.2265 27.4064C32.2149 27.3851 32.2019 27.3694 32.198 27.3433C32.1166 27.3481 31.9206 27.221 31.9261 27.1978C31.9209 27.1747 31.954 27.1367 31.9646 27.0884C31.8955 27.0392 31.8806 26.9996 31.8266 26.9568C31.8405 26.9214 31.8715 26.8558 31.9173 26.8377C31.958 26.8233 31.9777 26.8445 32.0004 26.8657C32.0247 26.8883 32.0535 26.913 32.1188 26.8912C32.1442 26.8313 32.1458 26.774 32.13 26.7093C32.2362 26.6421 32.2711 26.5664 32.4082 26.514C32.4862 26.4899 32.5262 26.5024 32.5645 26.514C32.5994 26.5243 32.6327 26.5356 32.6901 26.5179C32.8166 26.4927 32.8727 26.4886 32.9802 26.3911C33.0827 26.3425 33.2214 26.2887 33.3066 26.2404C33.3552 26.2166 33.3986 26.2144 33.4271 26.1709C33.3649 26.1008 33.1452 26.0673 33.154 25.9C33.1649 25.7764 33.3251 25.5746 33.4262 25.4588C33.4289 25.3925 33.4338 25.3217 33.4413 25.246C33.4659 25.1965 33.4635 25.2567 33.5063 25.1128C33.5145 25.0362 33.6 24.9638 33.7035 24.9175C33.6877 24.8782 33.702 24.8367 33.7011 24.7958C33.8986 24.6793 33.9653 24.3678 34.1647 24.2967C34.2311 24.2793 34.4374 24.3469 34.7072 24.2874C34.7469 24.2838 34.4866 24.4524 34.5154 24.485C34.6702 24.6024 34.7873 24.7099 34.864 24.6967C34.9969 24.6455 35.4821 24.3504 35.5719 24.2516C35.5555 24.2578 35.294 24.2925 35.294 24.2925C35.2561 24.2957 35.1289 24.3176 35.1341 24.2124C35.1584 24.1583 35.8738 23.7354 36.163 23.5694C36.163 23.5694 36.0164 23.728 35.9703 23.7586C35.994 23.804 36.2458 23.9453 35.6435 24.2417C35.8859 24.6578 37.0511 24.3955 37.0708 25.1051C37.0829 25.1044 37.1014 25.0887 37.1151 25.09C36.9336 25.2013 36.7859 25.3526 36.5765 25.4089C36.3711 25.4588 36.1733 25.4945 35.9694 25.5463C35.8592 25.5637 35.47 25.6007 35.4566 25.4948C35.3447 25.5199 35.2922 25.5045 35.2373 25.4897C35.1769 25.4723 35.1141 25.4552 34.9678 25.4893C34.7946 25.5321 34.527 25.6177 34.3974 25.7169C34.2864 25.8028 34.114 25.955 34.0002 25.9927C33.9041 26.0235 33.8106 26.0438 33.7111 26.0737C33.6604 26.0847 33.4954 26.0963 33.4878 26.179C33.4947 26.2327 33.536 26.1983 33.5545 26.261C33.3822 26.3862 32.6467 26.4651 32.6127 26.7325C32.6054 26.7788 32.6968 26.7479 32.7572 26.7296C32.7386 26.7692 32.7417 26.7763 32.7502 26.8303C32.7311 26.9903 32.6449 26.9996 32.5578 27.1122C32.6737 27.1367 32.7669 27.203 32.8388 27.3172C32.7532 27.4595 32.992 27.548 33.0502 27.5963C33.0405 27.6168 32.9999 27.6658 32.9735 27.6815C33.0093 27.6802 33.0348 27.6622 33.0703 27.6542C33.1649 27.5737 33.2317 27.6252 33.3054 27.6783C33.3615 27.7195 33.4222 27.761 33.5026 27.7433C33.6653 27.6928 33.6343 27.4608 33.8385 27.4009C33.9435 27.3787 34.0394 27.4312 34.1349 27.4849C34.2308 27.5374 34.3267 27.5905 34.4329 27.5686C34.7163 27.4965 34.7721 27.3459 34.9366 27.1679C34.9787 27.2049 35.0419 27.2374 35.1389 27.2127C35.2163 27.1972 35.2451 27.1187 35.3371 27.0672C35.3325 27.0987 35.3325 27.1473 35.3322 27.1814C35.3128 27.1995 35.2718 27.2526 35.2624 27.3121C35.2661 27.4482 35.3076 27.5988 35.3086 27.7996C35.3174 28.0809 35.1098 28.1601 35.0437 28.4182C34.9806 28.6624 34.956 28.7924 34.8832 29.0753C34.8701 29.1162 34.8088 29.1397 34.8028 29.2227C34.8273 29.2752 34.8531 29.3434 34.8695 29.3971C34.8574 29.3646 34.8383 29.3209 34.8249 29.2903C34.6951 29.3591 34.6693 29.3479 34.5173 29.3743C34.29 29.4222 34.0907 29.3469 33.9037 29.3881C33.6122 29.4483 33.7639 29.532 33.4626 29.5986C33.124 29.6755 32.7298 29.5954 32.448 29.5194C32.3912 29.5088 32.3284 29.521 32.2674 29.5339C32.1728 29.5551 32.0836 29.5764 32.0387 29.5098C32.0065 29.4464 31.9194 29.439 31.9176 29.2855C31.8454 29.3019 31.8069 29.3083 31.7386 29.3331C31.7258 29.3308 31.7249 29.3209 31.7149 29.3176C31.4713 29.5007 31.2798 29.5448 31.2677 29.8995C31.278 29.9648 31.2592 30.0488 31.2628 30.1212C31.2641 30.1701 31.1833 30.3082 31.1096 30.3285C30.8177 30.4057 30.6069 30.2786 30.4142 30.1537C30.2321 30.0359 30.0656 29.9214 29.8629 29.9848C29.7716 30.0034 29.7509 30.0308 29.6866 30.0443C29.5743 30.091 29.4436 29.9181 29.4454 29.6613C29.4654 29.5165 29.527 29.3997 29.5476 29.2446C29.5355 29.1551 29.4776 29.1403 29.487 29.0521C29.4903 28.9167 29.5719 28.9093 29.5941 28.7529C29.5401 28.7844 29.561 28.8394 29.5018 28.852C29.4572 28.8777 29.4454 28.8391 29.4314 28.8014C29.4178 28.7644 29.4023 28.7265 29.3538 28.7471C29.2315 28.805 29.2379 28.943 29.1232 28.9968C29.0713 29.0277 29.054 29.0167 29.0376 29.0058C29.0243 28.9968 29.0112 28.9878 28.9797 29.0026C28.8504 29.083 28.8577 29.1931 28.7648 29.2523C28.7248 29.2671 28.7045 29.2575 28.685 29.2484C28.6668 29.2398 28.6489 29.2317 28.6174 29.2423C28.4902 29.3173 28.3947 29.4895 28.2548 29.6617C27.7624 31.9266 27.5991 34.3119 27.8164 36.7483C27.8825 37.5339 27.9942 38.303 28.1322 39.0609C28.1477 39.0712 28.1677 39.0783 28.1908 39.0828C28.3398 39.0902 28.2499 38.9701 28.2882 38.9215C28.4317 38.816 28.6025 38.5618 28.8489 38.565C28.9478 38.5698 28.9787 38.7359 29.0045 38.9016C29.0294 39.0622 29.0507 39.2224 29.1271 39.2331C29.2194 39.2392 29.3501 39.1925 29.4478 39.1893C29.6453 39.206 29.7737 39.4068 29.8805 39.643C29.845 39.7412 29.8808 40.0366 29.9029 40.1686C29.9017 40.2075 29.8869 40.2304 29.9299 40.3279C29.8781 40.3874 29.8447 40.6098 29.8693 40.7314C29.9488 41.2157 30.379 41.7368 30.6157 42.1059C30.7416 42.299 30.7613 42.5207 30.8554 42.736C30.974 43.0063 31.0589 43.1602 31.2122 43.6014C31.2829 43.8337 31.3614 43.9409 31.44 44.1893C31.5517 44.7181 31.2838 44.8905 31.4777 45.557C31.6615 46.1707 31.9558 46.5569 32.2844 47.0316C32.3803 47.1761 32.4777 47.2362 32.5196 47.3672C32.549 47.4458 32.5608 47.5246 32.6024 47.6034C32.8794 48.3735 33.158 48.7011 33.5084 49.0629C33.5797 49.1304 33.8737 49.57 34.1325 49.8973C34.2005 49.9749 34.2845 50.0486 34.2208 50.1438C34.2985 50.2278 34.3601 50.3492 34.4305 50.5043C34.4535 50.4988 34.422 50.4772 34.483 50.4904C34.5728 50.585 34.6538 50.6726 34.7815 50.7212C34.9211 50.7646 34.9818 50.7324 35.0519 50.7012C35.1192 50.671 35.1954 50.6423 35.3601 50.6854C35.449 50.7118 35.5313 50.7894 35.6138 50.8251C35.7021 50.8428 35.726 50.8167 35.8335 50.8354C35.8146 50.7517 35.9299 50.7765 36.048 50.8016C36.122 50.8167 36.1976 50.8328 36.2428 50.8229C36.5368 50.726 36.5504 50.5155 36.6909 50.2751C36.7749 50.1277 36.9015 50.1496 37.0486 49.9878C37.1239 49.8938 37.2337 49.7039 37.1591 49.4381C37.1336 49.3554 37.0556 49.2769 36.9576 49.2228C37.0013 48.9921 36.8381 49.0072 37.1739 48.9055C37.2671 48.8746 37.4658 48.9032 37.5371 48.8202C37.6033 48.723 37.5311 48.3243 37.4786 48.1171C37.3797 47.7421 37.1645 47.7882 37.0829 47.5098C37.0486 47.3579 37.1703 47.2237 37.309 47.2105C37.2838 46.526 38.6467 46.7371 38.5153 45.8441C38.4986 45.7662 38.465 45.6851 38.3852 45.6182C38.3421 45.3659 38.2865 45.1415 38.2483 44.886C38.2398 44.8098 38.2383 44.7048 38.235 44.6176C38.2335 44.5941 38.2869 44.5024 38.2817 44.4423C38.2234 44.2263 37.7619 43.9405 37.687 43.5367C37.6239 43.1795 37.3933 42.8673 37.3265 42.4962C37.2704 42.1558 37.5493 42.076 37.5884 41.7657C37.6415 41.3007 37.9516 41.3403 38.1961 41.0584C38.2975 40.9393 38.248 40.4839 38.3575 40.3768C38.6297 40.1283 38.917 39.9182 39.215 39.6231C39.6185 39.2237 39.7217 38.8778 40.0466 38.3262C40.3094 37.8538 40.7806 36.7264 40.7299 35.9641C40.719 35.9061 40.6711 35.8508 40.6216 35.7768C40.1774 35.9428 39.8431 36.1903 39.3819 36.319C39.1941 36.3564 39.0718 36.282 38.8943 36.3609C38.728 36.4365 38.7465 36.5916 38.552 36.6132C38.346 36.6225 38.1591 36.2395 37.9898 36.1163C38.1048 35.9515 37.9825 35.939 37.9607 35.7124C37.5723 35.7443 37.4182 35.2416 37.2325 35.0952C36.9949 34.9481 36.886 34.9536 36.6912 34.7676C36.4706 34.5593 36.5668 34.2285 36.3459 33.9389C36.1663 33.6982 35.8941 33.4523 35.7682 33.126C35.7445 32.8988 35.7388 32.687 35.7303 32.4659C35.544 32.3305 35.2609 32.1293 35.2928 31.8577C34.9481 31.1941 34.6061 30.5515 34.3018 29.9255C34.3027 29.8689 34.29 29.7775 34.2988 29.7241C34.4605 29.8924 34.6605 30.389 34.8692 30.3941C34.8998 30.2721 34.9988 29.9497 35.0446 29.7653C35.0154 29.9124 34.9903 30.07 34.9969 30.1534C34.9924 30.1811 35.1508 30.3619 35.1829 30.4131C35.3037 30.5972 35.4166 30.6953 35.5537 30.8997C35.5932 30.9576 35.6687 31.0474 35.7136 31.169C35.7251 31.2315 35.7263 31.4278 35.7922 31.4931C35.8052 31.5076 35.848 31.5057 35.8938 31.505C35.9412 31.504 35.9921 31.5028 36.0146 31.5214C36.0404 31.5507 36.1105 31.6234 36.1617 31.6608C36.2233 31.8909 36.382 31.9247 36.4093 32.2175C36.4382 32.6983 36.5386 32.9278 36.9479 32.9892C36.957 33.2933 37.2383 33.6592 37.3945 33.7999C37.5332 33.9279 37.8005 34.0409 37.7707 34.336C37.7559 34.428 37.6858 34.7055 37.8126 34.7087C37.8442 34.9549 37.8296 35.2236 37.9671 35.418C38.0632 35.5447 37.9701 35.5502 37.9925 35.5621C38.0192 35.576 38.3491 35.7047 38.3809 35.7053C38.4009 35.6899 38.4316 35.6654 38.4516 35.6484C38.7116 35.6223 38.7207 35.4138 38.9161 35.23C39.073 35.2287 39.2223 35.2274 39.38 35.2261C39.5315 35.1331 39.9708 34.7003 40.1204 34.6388C40.4247 34.5252 40.702 34.4026 40.9812 34.2253C40.966 34.2012 40.9205 34.1426 40.9214 34.1111C40.9129 33.816 41.6095 33.703 41.9621 33.5981C41.9503 33.4401 42.1763 33.1949 42.2965 33.1768C42.4943 33.1498 42.4479 32.7845 42.6469 32.752C42.8144 32.7334 42.7661 32.512 42.8153 32.3466C42.849 32.1802 42.9861 32.1184 43.1833 32.0939C43.1761 31.7705 43.6755 31.581 43.6709 31.2723C43.6548 31.1845 43.4895 31.2051 43.4018 31.0905C43.3991 31.0924 43.4039 31.0995 43.4015 31.1027C43.3284 31.069 43.2819 30.8446 43.1287 30.8157C42.7376 30.7401 42.4922 30.7098 42.274 30.3494C42.2619 30.1804 42.2516 30.0334 42.2464 29.8686C41.8046 30.2886 41.7773 30.8057 40.9111 30.9216C40.7142 30.9499 40.3962 30.8994 40.3777 30.7172C40.3579 30.5589 40.4505 30.4475 40.4393 30.2947C40.4344 30.258 40.4286 30.1907 40.4198 30.1547C40.3012 30.2071 40.3306 30.3581 40.182 30.4189C40.168 30.3297 40.0861 30.2766 40.0782 30.1334C39.7787 30.1006 39.4128 29.607 39.3285 29.3202C39.3051 29.242 39.2987 29.16 39.2933 29.0341C39.2814 28.8565 39.3448 28.6283 39.5199 28.5977C39.8637 28.5475 40.1413 28.8928 40.3024 29.1548C40.3221 29.195 40.3 29.3077 40.3762 29.3756C40.4517 29.438 40.5351 29.4431 40.6201 29.4486C40.7069 29.4544 40.7949 29.4602 40.8783 29.5262C41.0179 29.6378 41.1204 29.7856 41.3319 29.8277C41.5619 29.8033 41.7664 29.7769 41.9767 29.7453C42.0352 29.6842 42.0889 29.5352 42.2379 29.5191C42.5037 29.4834 42.5313 29.8615 42.6736 29.9857C42.6857 29.9928 43.0905 30.053 43.1418 30.0482C43.4974 30.0102 44.0924 30.0964 44.35 30.0668C44.3651 30.0713 44.3991 30.0604 44.4161 30.0604C44.488 30.0617 44.5972 30.0646 44.6965 30.0694C44.715 30.0472 44.7699 29.9883 44.8111 29.9648C44.9 29.9796 45.0457 30.0018 45.1664 30.0176C45.3039 30.0012 45.4647 29.9124 45.6322 29.895C45.7736 29.8638 45.8813 29.8403 46.0403 29.8638C46.2056 29.9027 46.313 30.1952 46.4347 30.3548C46.591 30.537 47.0015 30.7632 47.2824 30.7368C47.3625 30.7236 47.4848 30.7169 47.6016 30.7323C47.5579 30.7697 47.5494 30.9132 47.4378 30.9499C47.3201 31.0075 47.2196 30.9457 47.0983 31.0371C47.3161 31.2131 47.5118 31.6083 47.9493 31.5726C48.3092 31.5298 48.3247 31.2154 48.4919 31.0262C48.5173 31.0155 48.5765 31.021 48.6038 31.0139C48.605 31.0525 48.534 31.1787 48.5368 31.2093C48.5519 31.3814 48.6985 31.5243 48.7224 31.7441C48.7379 31.9192 48.6782 31.9465 48.6879 32.1338C48.686 32.1342 48.69 32.1361 48.6879 32.1338C48.6863 32.1319 48.6788 32.1242 48.6769 32.1245C48.6754 32.1554 48.7164 32.2854 48.7161 32.3137C48.7391 32.5705 48.9097 32.8109 49.0201 33.0729C49.1439 33.3677 49.2965 33.7645 49.383 33.9569C49.4531 34.1284 49.46 34.1996 49.5893 34.3769C49.7113 34.5355 49.663 34.7071 49.7923 34.9146C49.8411 34.9893 50.0572 35.1331 50.1357 35.3192C50.2529 35.5911 50.4319 35.8495 50.5705 36.163C50.5851 36.1909 50.657 36.293 50.7071 36.2856C50.7259 36.3525 50.8099 36.4159 50.9258 36.4004C51.0078 36.3882 51.0338 36.2257 51.0818 36.1124C51.1367 35.9644 51.1686 36.0223 51.3321 35.9251C51.404 35.873 51.3567 35.5206 51.5554 35.4418C51.5836 35.4289 51.6829 35.4028 51.685 35.3745C51.7038 35.3668 51.7408 35.3597 51.7551 35.3536C51.7341 35.269 51.6856 35.1251 51.6565 35.0099C51.6267 34.7495 51.7681 34.5272 51.7484 34.1832C51.7232 33.9656 51.6085 33.675 51.583 33.425C51.5654 33.1369 51.8515 33.1765 52.0955 33.0674C52.1625 33.0401 52.3185 32.8492 52.4235 32.7186C52.6671 32.4138 52.875 32.1148 53.1247 31.8011C53.3283 31.5514 53.6939 31.4545 53.9266 31.169C54.0304 31.0336 54.0055 30.8846 54.0422 30.6715C54.0762 30.5425 54.3599 30.677 54.443 30.4533C54.548 30.5235 54.5565 30.5856 54.7774 30.5692C55.1327 30.5357 55.4922 30.4247 55.4461 30.005C55.6564 30.0247 55.8706 30.1006 55.957 30.2931C56.0229 30.4591 56.0259 30.676 56.1436 30.845C56.2826 31.0146 56.4328 31.1124 56.6236 31.2598C56.7935 31.4706 56.8658 31.497 56.9926 31.7695C57.0087 31.8162 57.0709 31.8867 57.0857 31.934C57.0909 32.0852 57.0454 32.1625 57.0621 32.3366C57.0791 32.512 57.056 32.6381 57.2523 32.6217C57.6219 32.5863 57.7108 32.233 57.9134 31.9852C57.9681 32.0495 57.958 32.1116 58.0463 32.1863C58.0551 32.1943 58.0809 32.1976 58.1101 32.2014C58.1504 32.2066 58.1984 32.2124 58.222 32.2368C58.3567 32.4334 58.1814 32.8251 58.3531 32.8209C58.3907 33.2441 58.7093 33.8137 58.7639 34.4036C58.7654 34.5497 58.7135 34.8532 58.8064 34.9024C58.7967 34.9027 58.7791 34.9053 58.7688 34.9059C58.7742 34.9056 58.7518 34.9092 58.7433 34.9095C58.7269 35.1003 58.6468 35.2686 58.6641 35.454C58.662 35.4743 58.6474 35.5348 58.6677 35.5338C58.7918 35.5978 58.7026 35.5332 58.8319 35.5158C59.054 35.5087 59.1583 35.9509 59.2594 36.1259C59.4211 36.421 59.4478 36.6724 59.5977 37.0434C59.764 37.456 60.1284 37.7891 60.5131 37.8724C60.5744 37.8863 60.6059 37.9812 60.724 37.959C60.7528 37.9609 60.7743 37.903 60.8041 37.8982C60.8462 37.8888 60.9145 37.8789 60.9588 37.8631C60.8981 37.7363 60.8817 37.669 60.8274 37.5085C60.7558 37.3569 60.5823 37.3051 60.5735 37.0792C60.5592 36.9907 60.6114 36.9578 60.6053 36.8294C60.5495 36.1794 59.8465 36.1874 59.4775 35.8785C59.3701 35.7938 59.3592 35.565 59.2952 35.4768C59.3037 35.4768 59.3158 35.4749 59.3213 35.4746C59.2897 35.0932 58.9487 35.2641 58.9053 34.8522C58.885 34.4931 59.0731 34.3241 59.0376 33.9028C59.0327 33.8195 59.1365 33.6235 59.1359 33.4929C59.1304 33.4414 59.0949 33.348 59.1926 33.3336C59.338 33.3223 59.466 33.3352 59.5218 33.4851C59.5218 33.4851 59.5786 33.6586 59.5965 33.6576C59.8043 33.7159 59.9527 33.7091 60.1411 33.8832C60.298 34.0383 60.1866 34.2523 60.4433 34.2295C60.4524 34.4419 60.6982 34.4795 60.8696 34.4618C60.8814 34.514 60.9248 34.6372 60.967 34.6569C60.9342 34.689 60.9282 34.7431 60.9394 34.8551C60.9455 34.9166 61.0101 35.1183 61.0504 35.1171C61.0875 35.1051 61.3017 34.8863 61.298 34.7476C61.2962 34.709 61.2865 34.6356 61.2826 34.5976C61.2874 34.6289 61.2971 34.7141 61.329 34.7164C61.4737 34.6997 61.4279 34.4902 61.5523 34.391C61.8387 34.1748 61.8508 34.0348 62.1955 33.889C62.1819 33.6406 62.2872 33.5199 62.268 33.201C62.2204 32.7527 61.9707 32.2922 61.687 32.0843C61.3863 31.8918 61.2419 31.552 60.9421 31.2566C60.9054 31.2118 60.8441 31.179 60.8186 31.0596C60.7752 30.4656 61.288 30.3474 61.4722 29.922C61.5744 29.9719 61.6199 29.9593 61.6661 29.9468C61.7146 29.9349 61.7641 29.9223 61.88 29.9777C61.8742 30.0311 62.1934 30.5019 62.2829 30.508C62.4188 30.4939 62.2574 30.3249 62.3345 30.2152C62.3979 30.1267 62.6161 30.0762 62.7004 30.0202C62.9052 29.8985 63.1874 29.9944 63.3066 29.8432C63.3066 29.8432 63.3822 29.614 63.4049 29.6053C63.5254 29.5941 63.401 29.5416 63.5084 29.5416C64.0048 29.5107 64.1046 29.1892 64.3628 28.9781C64.4441 28.9369 64.4742 28.8829 64.4833 28.759C64.7263 28.7455 64.7227 28.3245 64.7788 28.0947C64.8167 27.9554 64.9951 27.4984 65.1356 27.4566C65.0965 27.2027 65.2166 27.0936 65.1568 26.7634C65.0743 26.2656 64.9721 26.2417 64.7451 25.9293C64.7175 25.8778 64.6753 25.7442 64.5852 25.6773C64.5864 25.677 64.5876 25.6702 64.5904 25.6676C64.587 25.6696 64.5943 25.6689 64.5904 25.6676C64.587 25.667 64.5734 25.6654 64.5694 25.665C64.553 25.6074 64.5391 25.5276 64.5227 25.4539C64.442 25.4298 64.236 25.3249 64.2068 25.1643C64.1808 25.0272 64.4004 24.9999 64.428 24.8605C64.456 24.5812 64.7861 24.8274 64.9335 24.6259C64.875 24.5603 64.82 24.5593 64.7585 24.5567C64.7048 24.5541 64.6456 24.5512 64.574 24.5036C64.5057 24.4599 64.4247 24.2516 64.317 24.2442C64.2354 24.2397 64.3191 24.5789 64.2603 24.5892C64.1789 24.5792 64.0928 24.6146 64.0057 24.5506C63.8749 24.4528 63.8682 24.2346 63.7317 24.1467C63.691 24.1165 63.5163 24.0734 63.4953 23.9887C63.4605 23.804 63.7472 23.8822 63.8667 23.814C63.9681 23.7522 64.1525 23.6383 64.2026 23.5385C64.2205 23.5128 64.2181 23.4436 64.3285 23.4455C64.4062 23.4632 64.5175 23.5752 64.5382 23.6183C64.5709 23.7509 64.4147 23.7873 64.4384 23.9411C64.7044 23.9655 64.7788 23.7087 65.0546 23.7326C65.111 23.7403 65.1529 23.7663 65.196 23.7914C65.2394 23.8182 65.284 23.8445 65.3471 23.8529C65.3228 23.944 65.3738 23.9276 65.3932 24.0328C65.4014 24.1078 65.3164 24.0949 65.3389 24.1953C65.3456 24.233 65.3847 24.3379 65.4551 24.344C65.4836 24.3491 65.493 24.3047 65.5622 24.3157C65.6754 24.3363 65.825 24.5342 65.8592 24.6533C65.8802 24.7192 65.8292 24.7836 65.7588 24.7775C65.7631 24.8097 65.7813 24.8492 65.7807 24.8824C65.8049 24.8985 65.8213 24.9522 65.8823 24.9651C65.8969 25.0208 65.9521 25.0909 65.963 25.1495C65.9764 25.1749 65.916 25.3159 65.9418 25.3889C65.9466 25.4295 65.9566 25.4887 66.0037 25.5006C66.0143 25.5498 65.9721 25.5885 65.9842 25.6367C66.0064 25.6419 66.024 25.6419 66.0419 25.6412C66.0616 25.6409 66.0819 25.6409 66.1083 25.6467C66.1566 25.5765 66.1514 25.5872 66.2513 25.563C66.2437 25.4765 66.4133 25.4787 66.4737 25.46C66.5692 25.4221 66.5953 25.323 66.5404 25.0764C66.4497 24.67 66.2464 24.3485 66.0355 24.1358C65.9406 24.055 65.8465 23.9765 65.8313 23.8365C65.9251 23.8516 65.9888 23.8043 66.0389 23.7525C66.0874 23.6769 66.1915 23.6601 66.2118 23.589C66.267 23.3953 66.4758 23.134 66.602 23.0246C66.602 23.0246 66.6894 23.2363 66.9045 23.2891C67.3071 23.3589 67.3575 22.6027 67.4871 22.4057C67.5453 22.3317 67.5811 22.1605 67.5523 21.9996C67.5141 21.8284 67.4403 21.7392 67.4601 21.6015C67.4607 21.5986 67.4594 21.5954 67.4619 21.5912C67.2383 21.2652 67.0083 20.9447 66.7698 20.6338C66.5498 20.5791 66.3204 20.292 66.3044 20.2663C66.2801 20.2058 66.2959 20.1337 66.3304 20.0706C64.7758 18.152 62.9249 16.5104 60.8584 15.2177C60.8141 15.2006 60.7725 15.1848 60.7291 15.1694C60.7039 15.1623 60.7352 15.1639 60.7734 15.1633C60.8426 15.1671 60.9367 15.1688 60.7941 15.1166C60.7361 15.0851 60.6466 15.0548 60.5544 15.0272C60.3735 14.9773 60.1693 14.9345 60.0486 14.8997C59.895 14.8498 59.7989 14.8389 59.7012 14.8276C59.6217 14.818 59.5407 14.809 59.4287 14.7781C59.1414 14.6867 59.0382 14.6522 58.9393 14.5998C58.1583 14.6333 57.4844 14.4778 57.4844 14.4778C57.665 14.4318 59.2105 14.575 59.3085 14.474C59.3519 14.3819 59.3307 14.3771 59.1359 14.2715C59.1235 14.2664 59.101 14.2725 59.0783 14.2776C59.0549 14.2834 59.0294 14.2889 59.0136 14.2818C58.9159 14.2271 58.7885 14.1187 58.5534 14.0575C58.2099 13.9906 57.8631 13.9484 57.4975 13.9008C57.3673 13.7985 57.1643 13.7055 56.7787 13.6385C56.7577 13.635 56.7362 13.6318 56.7144 13.6279ZM39.4241 25.7992C39.3506 25.6991 39.4629 25.6129 39.3591 25.5128C39.3085 25.4539 39.2181 25.4832 39.205 25.3822C39.253 25.3844 39.3227 25.3773 39.3713 25.3709C39.4963 25.1884 39.5005 24.987 39.695 24.8718C39.3676 24.791 38.9061 24.3456 38.8976 24.0363C38.8934 23.9581 38.6549 23.8693 38.6492 23.7342C38.6513 23.6946 38.8676 23.3219 38.9271 23.2598C38.9811 23.2691 39.3315 23.0522 39.3616 23.0419C39.6626 22.892 39.8043 22.7639 40.2035 22.6908C40.8334 22.5631 40.9769 22.8096 41.2224 23.0371C41.0352 23.1684 40.8052 23.1163 40.5886 23.1597C40.2579 23.2131 39.7942 23.5256 39.766 23.5317C39.783 23.7097 39.9623 23.6666 40.0352 23.749C40.2654 24.0058 40.6171 24.0141 40.6341 24.3733C40.7093 24.3318 40.9499 24.1857 41.0388 24.1663C41.0662 24.3076 41.267 24.4141 41.2764 24.558C41.149 24.5744 41.0431 24.6018 40.9123 24.6179C40.8243 24.6349 40.7187 24.8467 40.6923 24.9886C40.9533 24.9783 41.0825 25.0642 41.0919 25.2435C41.0959 25.3069 41.0965 25.4102 41.0922 25.471C41.0947 25.5411 41.0965 25.73 41.1065 25.741C41.1144 25.7999 41.1104 25.8993 41.1132 25.9592C40.9603 26.0174 40.7512 26.0869 40.5428 26.122C40.3938 26.1622 40.0849 26.2173 39.9839 26.1404C39.9202 26.0853 39.8753 25.9601 39.773 25.9579C39.7509 25.956 39.729 25.9534 39.7069 25.9495C39.5897 25.9292 39.4799 25.8787 39.4241 25.7992ZM54.363 13.4589C54.336 13.4596 54.3093 13.4589 54.2853 13.4525C54.2477 13.4705 54.2067 13.4699 54.1393 13.4741C54.1664 13.4808 54.2064 13.5091 54.2556 13.5111C54.3787 13.5281 54.4243 13.5378 54.4406 13.465C54.4373 13.4641 54.434 13.4634 54.4303 13.4628C54.4088 13.4592 54.3863 13.4589 54.363 13.4589ZM58.9512 14.5573C58.9624 14.6014 59.0613 14.6159 59.1642 14.6374C59.2425 14.6583 59.2755 14.6554 59.3399 14.6615C59.3307 14.6612 59.3223 14.6625 59.315 14.6628C59.3298 14.6625 59.3399 14.669 59.3584 14.6606C59.3587 14.6583 59.3493 14.6535 59.3529 14.6467C59.3341 14.5862 59.2519 14.5772 59.1244 14.5541C59.0917 14.5422 59.0592 14.5335 59.031 14.5286C58.9776 14.5193 58.9406 14.5251 58.9512 14.5573ZM44.0857 13.3382C44.1 13.3875 44.1337 13.3711 44.2623 13.3463C44.3297 13.3421 44.7408 13.2295 44.8158 13.2115C44.7569 13.1706 44.7429 13.1606 44.6735 13.1487C44.5136 13.1735 44.1043 13.2671 44.0857 13.3382ZM43.6024 13.4567C43.6255 13.4502 43.657 13.4322 43.674 13.4184C43.5526 13.4432 43.4498 13.4525 43.3369 13.4905C43.3466 13.4921 43.3205 13.4876 43.3321 13.5284C43.2107 13.5519 43.1379 13.5748 43.1188 13.6488C43.1212 13.6739 43.6209 13.5481 43.684 13.5304C43.6643 13.5156 43.6579 13.5194 43.6355 13.5056C43.7259 13.493 43.8303 13.4776 43.8949 13.4393C43.8925 13.4203 43.9274 13.4332 43.8991 13.3971C43.8148 13.4068 43.6783 13.4412 43.6024 13.4567ZM45.5719 13.848C45.03 13.9523 44.5293 14.1978 43.9459 14.3072C43.8145 14.331 43.7565 14.2989 43.6261 14.3282C43.4173 14.3806 43.4264 14.408 43.2832 14.435C42.8803 14.5299 42.5884 14.7327 42.3205 14.8035C42.1621 14.8353 42.0577 14.8881 41.9009 14.9242C41.8329 14.9396 41.7859 14.9644 41.7919 14.9834C41.7862 14.9972 41.8007 14.9985 41.8177 15.0007C41.8372 15.003 41.8593 15.0059 41.8572 15.0287C41.8341 15.1211 41.3101 15.3116 41.2934 15.3718C41.2934 15.3908 41.3226 15.3872 41.3544 15.385C41.3914 15.3814 41.433 15.3792 41.4415 15.4123C41.2698 15.477 40.9588 15.5555 40.9296 15.6389C40.9321 15.6646 40.9315 15.6688 40.9257 15.6933C40.9081 15.7847 40.6108 15.823 40.5959 15.9231C40.5649 15.9746 40.7719 15.9498 40.7719 15.9498C40.7719 15.9498 41.054 15.8745 41.0853 15.87C41.2631 15.849 41.1523 15.9224 41.23 15.9662C41.2567 15.9781 41.4157 15.9166 41.4943 15.9018C41.5207 15.8902 41.548 15.9025 41.5671 15.9124C41.8375 15.8301 42.1154 15.7921 42.397 15.7258C42.3909 15.7255 42.3854 15.7197 42.3784 15.7145C42.3766 15.7152 42.3803 15.7155 42.3784 15.7145C42.3508 15.7091 42.3202 15.7045 42.298 15.7017C42.3062 15.7062 42.3144 15.7081 42.322 15.7087C42.089 15.6933 41.8007 15.7354 41.801 15.5967C41.8372 15.3641 42.5735 14.9628 43.1224 14.79C43.3248 14.7317 43.3627 14.6448 43.644 14.594C43.7735 14.5669 43.82 14.5016 43.8852 14.4701C44.2435 14.341 44.5072 14.3278 44.8953 14.2078C45.1683 14.1251 45.996 13.9841 46.0112 13.8692C46.0076 13.8544 45.9851 13.8448 45.9514 13.839C45.8571 13.8226 45.6735 13.8355 45.5719 13.848ZM42.8506 13.4621C42.7659 13.4924 42.6928 13.5053 42.6728 13.5487C42.3706 13.6115 42.3693 13.6707 42.0632 13.7492C42.0887 13.7473 42.0684 13.765 42.0574 13.7846C42.1491 13.7498 42.126 13.7637 42.187 13.7544C42.062 13.7791 41.9409 13.8203 41.8101 13.8554C41.7689 13.8737 41.7203 13.9008 41.6769 13.9204C41.6964 13.9127 42.0923 13.8606 42.1627 13.8461C42.2823 13.8139 42.4519 13.7354 42.5699 13.7144C42.6776 13.6887 42.7902 13.671 42.8736 13.6321C42.6627 13.6588 42.5936 13.6597 42.3084 13.726C42.4185 13.6678 42.6087 13.616 42.7796 13.5436C42.7723 13.5188 42.8348 13.5017 42.8766 13.4869C42.89 13.4847 42.8669 13.465 42.8506 13.4621C42.8518 13.4621 42.8493 13.4621 42.8506 13.4621ZM42.6127 13.7589C42.5101 13.7949 42.1224 13.867 42.1002 13.9381C42.1205 13.9346 42.1497 13.9423 42.1976 13.9326C42.285 13.913 42.322 13.9127 42.3527 13.8673C42.4103 13.8458 42.4913 13.8689 42.5496 13.8483C42.6901 13.8261 42.6791 13.7717 42.8924 13.7276C42.8882 13.7264 42.883 13.7247 42.8776 13.7238C42.8196 13.7138 42.7295 13.7341 42.6127 13.7589ZM40.5655 14.2371C40.4257 14.2718 40.3474 14.3433 40.2066 14.3819C40.0188 14.4446 39.9077 14.4453 39.6781 14.5228C39.4736 14.5859 39.0682 14.7568 38.9669 14.8231C39.0391 14.7964 39.0882 14.7919 39.1583 14.7636C39.2958 14.7175 39.479 14.6165 39.5779 14.5821C39.6574 14.538 39.6972 14.5576 39.7843 14.5351C39.736 14.5611 39.6835 14.5827 39.6377 14.6075C39.6796 14.6078 39.7163 14.5795 39.8015 14.556C39.7333 14.5769 39.672 14.6165 39.6028 14.6438C39.6498 14.6622 39.6996 14.6274 39.8531 14.592C39.8483 14.5933 39.8458 14.594 39.8437 14.5943C39.8765 14.6075 39.8898 14.602 39.939 14.5891C40.0276 14.5753 40.0485 14.5154 40.1414 14.464C40.2661 14.4012 40.3592 14.4115 40.4763 14.3513C40.476 14.3491 40.4776 14.3545 40.4763 14.3513C40.4769 14.3471 40.4715 14.3368 40.4809 14.3339C40.5088 14.3191 40.5431 14.3108 40.5746 14.3034C40.6902 14.2487 40.8186 14.2361 40.8471 14.1772C40.787 14.1878 40.683 14.2014 40.5655 14.2371ZM42.6916 15.7332C42.6922 15.7956 42.9276 15.7895 43.0708 15.7554C43.0708 15.7554 43.2095 15.7422 43.2189 15.7087C43.2183 15.6833 43.1867 15.6679 43.1397 15.6598C42.9959 15.635 42.7043 15.6804 42.6916 15.7332ZM42.403 15.7171C42.4009 15.7155 42.406 15.7177 42.403 15.7171V15.7171ZM39.7745 16.5583C39.7248 16.5705 39.6978 16.624 39.6465 16.6317C39.6304 16.6426 39.5075 16.7389 39.5042 16.7604C39.4945 16.8103 39.5585 16.7936 39.6799 16.7546C39.8613 16.7112 39.9857 16.6368 40.1189 16.5709C40.1226 16.548 40.1213 16.5409 40.1247 16.52C39.9793 16.5503 39.9144 16.5223 39.7745 16.5583ZM68.019 22.5634C68.0354 22.5965 68.0666 22.742 68.0894 22.7603C68.1928 22.7848 68.1209 22.6728 68.1428 22.6651C68.0791 22.5537 68.0123 22.4433 67.9419 22.3355C67.9656 22.4111 67.9786 22.4623 68.019 22.5634ZM68.1297 23.0133C68.147 23.0442 68.1765 23.0664 68.1856 23.1008C68.2208 23.1989 68.2872 23.487 68.1968 23.4632C68.1865 23.4487 68.1789 23.4496 68.1686 23.4496C68.1619 23.4503 68.1534 23.4503 68.1431 23.4438C68.1322 23.4323 68.1197 23.4207 68.1052 23.4104C68.1179 23.4303 68.1143 23.4532 68.1276 23.4754C68.1212 23.5404 68.0675 23.5558 68.0891 23.6437C68.1064 23.6727 68.1285 23.7032 68.1428 23.7332C68.1467 23.8007 68.1883 23.85 68.2022 23.9224C68.2113 23.9394 68.2156 23.932 68.2359 23.9324C68.2684 23.8297 68.3172 23.9304 68.3309 23.8532C68.2942 23.8178 68.225 23.7882 68.1901 23.7045C68.1543 23.571 68.2684 23.6772 68.3364 23.7042C68.3239 23.6807 68.3257 23.6704 68.3533 23.6543C68.4747 23.7888 68.5245 23.8104 68.6349 23.9192C68.6558 23.7888 68.6188 23.6717 68.7205 23.7151C68.7308 23.7232 68.7393 23.727 68.7475 23.7309C68.6968 23.635 68.6461 23.5391 68.5949 23.4419C68.4268 23.3319 68.3021 23.113 68.1273 22.9244C68.1173 22.9573 68.1146 22.9557 68.1297 23.0133ZM68.1431 23.4438C68.1473 23.449 68.1658 23.4628 68.1561 23.4641C68.1513 23.457 68.144 23.4471 68.1431 23.4438ZM68.4067 24.0904C68.4143 24.09 68.4128 24.0991 68.424 24.1039C68.3388 24.2265 68.3652 24.063 68.3445 24.0563C68.2195 24.0192 68.2826 24.2268 68.3084 24.3221C68.3276 24.362 68.3412 24.371 68.3597 24.4299C68.4413 24.7005 68.3288 25.0056 68.2262 25.0394C68.1076 25.0742 68.1752 25.1491 68.0769 25.124C68.0979 25.1221 68.0414 25.0883 68.0345 25.0729C68.0314 25.0388 68.0281 25.023 68.0417 24.9821C68.0153 24.9985 67.9968 25.1765 67.9871 25.1816C67.9007 25.1697 67.9647 25.4343 67.8476 25.4214C67.7225 25.3905 67.5672 25.3696 67.4203 25.3541C67.2304 25.3287 67.2162 25.5466 67.093 25.6611C67.0553 25.6792 66.9998 25.6901 67.0117 25.7146C67.0147 25.7503 67.0569 25.7513 67.1254 25.7632C67.2768 25.777 67.3885 25.7245 67.4753 25.6814C67.5117 25.6534 67.5296 25.6637 67.5505 25.6743C67.5687 25.6834 67.5897 25.694 67.6267 25.675C67.6546 25.6618 67.617 25.6016 67.6776 25.6113C67.7978 25.6212 67.8093 25.6856 67.9022 25.7245C67.9031 25.7599 67.911 25.8243 67.917 25.8764C67.9255 25.9003 67.9022 25.9534 67.9337 25.9501C67.9987 25.9736 67.9729 26.0168 68.0463 26.0534C68.0785 25.9582 68.08 25.8443 68.1498 25.8439C68.1837 25.8443 68.1777 25.8452 68.2123 25.8455C68.225 25.8452 68.1224 25.7255 68.1136 25.6911C68.1173 25.6647 68.1067 25.627 68.1385 25.6264C68.2271 25.6386 68.2235 25.7757 68.3561 25.8118C68.4347 25.8233 68.4064 25.7944 68.4507 25.7268C68.4677 25.7332 68.4747 25.7332 68.4826 25.7336C68.4896 25.7336 68.4975 25.7329 68.5123 25.7381C68.5187 25.7564 68.5321 25.7815 68.5551 25.7899C68.5512 25.6637 68.6003 25.6721 68.6595 25.6126C68.6835 25.6705 68.6443 25.6724 68.688 25.7506C68.8103 25.7271 68.6731 25.683 68.7818 25.6084C68.7587 25.5575 68.7235 25.5179 68.7114 25.4375C68.6768 25.3226 68.7311 25.2904 68.708 25.2129C68.6789 25.1134 68.5451 24.8743 68.6428 24.8418C68.6552 24.8354 68.6601 24.8412 68.664 24.8457C68.6692 24.8515 68.6725 24.8576 68.6874 24.8396C68.6768 24.8235 68.6798 24.8048 68.6692 24.7884C68.6507 24.6671 68.7092 24.6803 68.6701 24.5541C68.6334 24.4408 68.5484 24.3575 68.512 24.2429C68.4832 24.1879 68.4817 24.1383 68.452 24.0749C68.4344 24.0508 68.4374 24.0321 68.3731 24.0125C68.3725 24.0125 68.3737 24.0125 68.3731 24.0125C68.3464 24.008 68.3791 24.0804 68.4067 24.0904ZM67.4628 25.8044C67.471 25.8056 67.3557 25.9286 67.3557 25.9286C67.3615 25.9711 67.3727 25.9945 67.4367 26.037C67.4401 26.083 67.4631 26.1654 67.5105 26.1828C67.6255 26.1873 67.5918 26.0515 67.6297 25.9711C67.6552 25.991 67.6685 26.0415 67.7508 26.0483C67.8488 26.0554 67.829 25.7583 67.6761 25.7274C67.576 25.7155 67.6069 25.8571 67.4628 25.8044ZM66.991 25.824C66.9634 25.825 66.7974 25.9826 66.8002 26.0357C66.8075 26.0792 66.8524 26.1439 66.8994 26.1487C66.9309 26.1481 66.9358 26.1191 66.9846 26.1191C66.9734 26.0879 66.9786 26.0573 66.9667 26.0332C66.9853 26.0747 66.9983 26.1374 67.0544 26.1625C67.0578 26.2053 67.0547 26.2497 67.0508 26.2932C67.0508 26.2932 67.0001 26.4229 67.0065 26.4387C67.008 26.4744 67.0778 26.5922 67.1448 26.6018C67.1409 26.5864 67.1397 26.5603 67.1339 26.5442C67.1436 26.5683 67.1445 26.6221 67.1734 26.6314C67.2868 26.6375 67.2756 26.3556 67.2647 26.1838C67.279 26.1941 67.2908 26.1918 67.302 26.1889C67.3126 26.1857 67.3223 26.1831 67.3348 26.1915C67.3193 26.1596 67.3151 26.1223 67.3139 26.0956C67.2826 26.0724 67.2595 26.0374 67.2304 26.0145C67.201 26.0052 67.2071 25.9443 67.2022 25.9186C67.1512 25.9135 67.1154 25.8912 67.0826 25.8697C67.0535 25.8497 67.0204 25.8291 66.991 25.824C66.9934 25.8243 66.9883 25.8237 66.991 25.824ZM31.8421 22.275C31.8421 22.275 31.7887 22.3127 31.7924 22.3355C31.7821 22.3542 31.7887 22.351 31.8118 22.3667C31.7705 22.4018 31.7469 22.4144 31.712 22.4533C31.6931 22.4774 31.6865 22.5196 31.7374 22.4881C31.766 22.4929 31.8136 22.4189 31.8209 22.406C31.8172 22.388 31.823 22.3735 31.8318 22.3584C31.8406 22.3474 31.8655 22.3069 31.8813 22.2866C31.8667 22.2898 31.864 22.2847 31.8606 22.2805C31.8594 22.2779 31.8576 22.2744 31.853 22.2737C31.8506 22.2731 31.847 22.2737 31.8421 22.275ZM65.2406 28.6173C65.1047 28.6222 64.9524 29.0904 64.9763 29.3488C65.003 29.5303 64.9891 29.6874 65.1808 29.6832C65.4151 29.6613 65.5055 28.6627 65.2506 28.6186C65.2479 28.618 65.2446 28.6173 65.2406 28.6173ZM30.5517 23.4902C30.5141 23.5642 30.471 23.6363 30.4352 23.7106C30.4388 23.7093 30.4519 23.7068 30.4773 23.6994C30.467 23.7193 30.45 23.7502 30.4176 23.7824C30.4161 23.7808 30.4176 23.7859 30.4176 23.7824C30.4103 23.7933 30.3966 23.7937 30.3881 23.8059C30.386 23.8043 30.3906 23.8062 30.3881 23.8059C30.393 23.8091 30.4042 23.8165 30.4318 23.7972C30.5119 23.737 30.5083 23.6225 30.5826 23.56C30.5684 23.513 30.5608 23.4918 30.5517 23.4902C30.555 23.4883 30.5492 23.4899 30.5517 23.4902ZM65.4421 30.8198C65.362 30.8147 65.3444 30.9334 65.3493 31.049C65.3493 31.1896 65.3981 31.2707 65.4033 31.4091C65.4084 31.4915 65.3917 31.6688 65.3514 31.7524C65.2558 31.736 65.2937 31.9674 65.2928 32.1547C65.2907 32.2114 65.4715 32.3446 65.5104 32.3488C65.5431 32.3446 65.5686 32.2995 65.5801 32.2625C65.6005 32.2686 65.6223 32.2632 65.6402 32.2593C65.6454 32.2912 65.6369 32.343 65.642 32.3742C65.6299 32.4003 65.585 32.4469 65.5838 32.5036C65.5762 32.5493 65.6615 32.6532 65.7294 32.6526C65.791 32.6445 65.8192 32.5773 65.8887 32.5757C65.9546 32.5686 65.9892 32.6294 66.0253 32.6902C66.0598 32.7488 66.0966 32.807 66.1639 32.8057C66.1451 32.7308 66.1066 32.669 66.1545 32.5914C66.1958 32.6905 66.4312 32.779 66.4931 32.9065C66.498 32.9351 66.5086 32.9947 66.5392 32.993C66.5581 32.9914 66.5781 32.9403 66.576 32.9213C66.5732 32.8981 66.5778 32.8582 66.575 32.8341C66.5037 32.8395 66.4555 32.8029 66.4567 32.706C66.4403 32.723 66.3927 32.7301 66.3903 32.7111C66.3979 32.6645 66.4379 32.6316 66.4473 32.5721C66.4258 32.5753 66.4091 32.5654 66.3924 32.5544C66.349 32.5596 66.3469 32.6333 66.3068 32.6374C66.2747 32.6413 66.2516 32.5798 66.2237 32.5174C66.1943 32.4543 66.1606 32.3896 66.1072 32.3922C66.0435 32.388 66.0049 32.4498 66.001 32.4888C66.0034 32.5039 66.0004 32.5287 66.0034 32.5448C65.8954 32.5 65.7631 32.2255 65.7567 32.0495C65.7537 31.8171 65.926 31.7801 65.9233 31.5336C65.9191 31.3344 65.7922 31.1841 65.7892 31.0313C65.7749 31.0177 65.7716 30.9769 65.7689 30.9553C65.7646 30.9386 65.7516 30.9154 65.7482 30.8993C65.7052 30.9228 65.6863 31.0097 65.6247 31.0152C65.5777 31.0132 65.5592 30.9663 65.5401 30.9183C65.5222 30.8739 65.5025 30.8292 65.4567 30.8211C65.4521 30.8205 65.4476 30.8195 65.4421 30.8198ZM62.3594 30.5621C62.215 30.5798 61.9082 30.8729 61.8336 30.881C61.7878 30.8881 61.8457 30.9988 61.853 31.0538C61.8633 31.207 61.9519 31.2755 62.1042 31.2665C62.2459 31.2524 62.5084 30.8864 62.4978 30.7226C62.4944 30.6731 62.4058 30.5701 62.3594 30.5621C62.3618 30.5621 62.3567 30.5617 62.3594 30.5621ZM65.9142 32.7877C65.9328 32.8096 65.9937 32.7942 66.0159 32.7823C66.0098 32.7797 66.0019 32.7771 65.9931 32.7755C65.964 32.7703 65.927 32.7752 65.9142 32.7877ZM65.5326 32.7465C65.5326 32.7465 65.7559 33.1597 65.8178 33.1601C65.8587 33.154 65.9045 33.0178 65.8848 32.9261C65.8426 32.7938 65.7489 32.818 65.6315 32.7401C65.6002 32.7346 65.5693 32.7417 65.5326 32.7465ZM66.7046 33.003C66.6734 33.0056 66.6552 33.0413 66.6233 33.0539C66.6415 33.1263 66.8342 33.2061 66.8391 33.3583C66.8433 33.3789 66.8148 33.4301 66.7951 33.431C66.7502 33.4362 66.7219 33.4375 66.6761 33.4407C66.6773 33.4597 66.6734 33.4906 66.674 33.5092C66.6786 33.5372 66.7411 33.6457 66.8124 33.6418C66.8136 33.6611 66.809 33.6895 66.8099 33.7094C66.7863 33.7796 66.7872 33.8652 66.8554 33.8607C66.8864 33.8613 66.9043 33.8555 66.9361 33.8549C66.9352 33.8356 66.9371 33.8076 66.9355 33.7879C66.9025 33.7612 66.8727 33.6586 66.8554 33.5707C66.9094 33.5691 66.9389 33.563 66.9923 33.561C67.0008 33.5205 67.0223 33.4713 67.0278 33.4114C67.0184 33.4114 66.9577 33.3184 66.9577 33.3184C66.9577 33.3184 66.9695 33.1961 66.9562 33.1404C66.9365 33.142 66.9228 33.1517 66.9034 33.144C66.9179 33.1166 66.9058 33.0609 66.9052 33.0333C66.8627 33.0371 66.8354 33.0278 66.8066 33.0181C66.7914 33.0133 66.7759 33.0085 66.758 33.0056C66.7429 33.003 66.7253 33.0017 66.7046 33.003ZM66.3445 33.0304C66.3484 33.0758 66.3463 33.1527 66.3445 33.1993C66.3949 33.1951 66.4237 33.1826 66.4753 33.1877C66.4786 33.2341 66.5702 33.3396 66.5745 33.293C66.5642 33.1501 66.468 33.1224 66.4267 33.0236C66.3982 33.0249 66.3748 33.0259 66.3445 33.0304ZM34.2849 27.9502C34.2792 27.9673 34.315 27.9969 34.3338 27.9917C34.3353 28.0184 34.3723 28.0384 34.4033 28.0303C34.4916 28.0159 34.6718 27.9068 34.7106 27.8434C34.7091 27.8134 34.7036 27.75 34.7306 27.7314C34.7862 27.696 34.8353 27.7198 34.8638 27.6072C34.6885 27.6838 34.4315 27.8408 34.2849 27.9502ZM66.0101 33.3615C66.0162 33.4423 66.0426 33.6682 66.0438 33.8681C66.1278 33.7973 66.3405 33.6766 66.3533 33.479C66.3448 33.4082 66.1897 33.3654 66.1093 33.3322C66.0938 33.3235 66.0759 33.3129 66.0699 33.2988C66.0486 33.3001 66.0168 33.3429 66.0101 33.3615ZM29.4212 27.2284C29.4027 27.239 29.3927 27.2422 29.3845 27.2667C29.4054 27.352 29.3317 27.5692 29.4333 27.5592C29.4515 27.4971 29.4886 27.2902 29.5253 27.1779C29.4974 27.1923 29.5058 27.1383 29.5168 27.0932C29.4716 27.118 29.4761 27.1824 29.4212 27.2284ZM66.5729 33.6289C66.5672 33.832 66.5183 33.9286 66.4843 34.064C66.501 34.0647 66.5159 34.0611 66.5302 34.0605C66.5286 33.8938 66.6476 33.832 66.6561 33.6209C66.6269 33.6244 66.6054 33.6283 66.5729 33.6289ZM66.3957 33.6322C66.3487 33.6518 66.298 33.9405 66.2974 33.9701C66.2674 33.9717 66.2131 34.0161 66.211 34.0441C66.217 34.1101 66.3748 34.3273 66.4155 34.3189C66.4364 34.3186 66.4707 34.2751 66.4722 34.2562C66.4701 34.2021 66.4315 34.2175 66.4255 34.1146C66.4382 33.9852 66.539 33.8803 66.5356 33.7454C66.5426 33.7023 66.5189 33.636 66.4579 33.6257C66.4403 33.6225 66.4197 33.6241 66.3957 33.6322ZM67.0038 33.926C66.991 33.9543 67.0008 34.1052 66.9747 34.1963C66.9464 34.2575 66.7938 34.232 66.782 34.3939C66.7183 34.4071 66.6961 34.4686 66.6955 34.5484C66.677 34.549 66.6618 34.5545 66.6418 34.5532C66.6054 34.5612 66.5942 34.5191 66.5772 34.476C66.5605 34.4322 66.5371 34.3881 66.4771 34.392C66.3035 34.4074 66.3475 34.6414 66.1512 34.6742C66.1248 34.7901 66.0887 34.8589 66.0854 34.9757C66.0869 35.0044 66.1224 35.0568 66.1215 35.0852C66.1221 35.1218 66.035 35.3484 66.1154 35.3461C66.2164 35.3249 66.214 34.9625 66.3093 34.8377C66.3093 34.8377 66.3697 34.921 66.4015 34.9284C66.4033 34.9091 66.4234 34.8889 66.4297 34.8702C66.4452 34.8927 66.4607 34.9233 66.5232 34.9156C66.508 34.8911 66.525 34.8428 66.5238 34.8155C66.5723 34.8152 66.6084 34.809 66.6552 34.7997C66.6667 34.829 66.6822 34.8769 66.6867 34.9078C66.6715 34.9419 66.6409 34.9654 66.6376 35.0465C66.6367 35.2634 66.7368 35.4218 66.8639 35.4115C66.8936 35.4005 66.9258 35.4124 66.9552 35.3889C66.954 35.4173 66.964 35.4697 66.9965 35.4717C67.0684 35.463 67.0981 35.3941 67.1015 35.3056C67.1009 35.1801 66.9989 35.1653 67.0008 35.0829C67.0014 35.0269 67.0551 34.9909 67.0857 34.9175C67.0951 34.9458 67.1212 34.969 67.1321 34.9938C67.1312 34.988 67.1318 34.9812 67.1324 34.977C67.1437 35.0285 67.1989 35.2087 67.2341 35.2222C67.2395 35.0227 67.3485 34.9571 67.3497 34.8303C67.3491 34.7466 67.2128 34.0988 67.1464 34.0119C67.1236 33.9755 67.0939 33.934 67.0444 33.9257C67.0323 33.9234 67.0193 33.9237 67.0038 33.926ZM66.6533 33.9031C66.6266 33.9633 66.5766 34.0225 66.5687 34.0788C66.5702 34.0988 66.6005 34.1313 66.6236 34.1303C66.7152 34.1271 66.7653 34.0119 66.772 33.8925C66.7392 33.9302 66.7046 33.9231 66.6533 33.9031ZM65.3138 33.8529C65.1784 34.1097 64.8614 34.2854 64.7312 34.6468C64.757 34.6465 64.7831 34.6472 64.8046 34.6385C64.9366 34.5339 65.136 34.3669 65.18 34.0936C65.2595 34.092 65.3271 34.057 65.355 33.9537C65.4045 33.9498 65.4163 33.9121 65.4539 33.8755C65.4233 33.8323 65.3738 33.8169 65.3669 33.6985C65.3393 33.7326 65.3283 33.7998 65.3138 33.8529ZM29.4039 27.6307C29.3232 27.6728 29.3426 27.7414 29.2807 27.8051C29.2631 27.8765 29.3226 27.8842 29.312 27.9647C29.3095 28.0278 29.2707 28.0805 29.2613 28.1587C29.2546 28.2324 29.2027 28.3692 29.2929 28.3219C29.3602 28.2807 29.44 28.1246 29.4582 27.9969C29.4819 27.8653 29.4937 27.7616 29.4691 27.648C29.4564 27.6532 29.4518 27.6432 29.4485 27.6326C29.4455 27.6255 29.4418 27.6181 29.4342 27.6168C29.4279 27.6155 29.4185 27.6187 29.4039 27.6307ZM32.111 28.4175C32.2029 28.4616 32.3622 28.4307 32.4292 28.4114C32.4984 28.3946 32.5281 28.4333 32.6419 28.3332C32.4966 28.3168 32.3024 28.3306 32.111 28.4175ZM30.1066 28.2752C30.0053 28.301 29.9719 28.2106 29.8381 28.3599C29.8302 28.3795 29.8341 28.4043 29.8305 28.4255C29.8523 28.4503 29.8669 28.4445 29.8818 28.4397C29.8915 28.4365 29.9009 28.4333 29.9127 28.4365C29.9643 28.4384 30.0034 28.4699 30.0423 28.5021C30.0842 28.5366 30.1257 28.5703 30.1837 28.5687C30.1749 28.5951 30.2058 28.6016 30.2298 28.5864C30.2586 28.571 30.265 28.5314 30.2765 28.505C30.2808 28.4323 30.2544 28.4333 30.2525 28.3637C30.2635 28.329 30.2932 28.2456 30.2932 28.2456C30.3035 28.2099 30.316 28.1623 30.3272 28.1262C30.2325 28.1401 30.1864 28.2427 30.1066 28.2752ZM28.5195 28.5694C28.5186 28.5755 28.518 28.579 28.5138 28.5858C28.5232 28.5906 28.5192 28.6344 28.5562 28.6276C28.5799 28.6125 28.5851 28.5893 28.5927 28.5633C28.5893 28.5356 28.5826 28.4999 28.5854 28.4825C28.5393 28.5095 28.5426 28.5227 28.5195 28.5694ZM64.8011 35.172C64.6291 35.2004 64.4525 35.704 64.3815 35.9248C64.3372 36.0049 64.1102 36.0014 64.0183 36.1278C64.004 36.1533 63.9873 36.2195 63.9637 36.2401C63.9157 36.2652 63.9175 36.2971 63.8617 36.3441C63.8617 36.3441 63.7589 36.4677 63.7992 36.5101C63.7115 36.6283 63.7267 36.7493 63.5711 36.8127C63.4482 36.8538 63.3438 36.8654 63.2764 36.9726C63.1463 37.185 63.1951 37.5593 62.8665 37.6182C62.7097 37.641 62.4775 37.575 62.4839 37.8054C62.497 37.8547 62.6274 38.3107 62.6748 38.3249C62.7251 38.3313 62.8004 38.3287 62.8222 38.3789C62.8165 38.3969 62.8186 38.4278 62.8128 38.4459C62.9579 38.6888 62.8068 39.1497 63.2067 39.0879C63.2871 39.0776 63.3477 38.9971 63.4291 38.9871C63.446 39.0235 63.4348 39.1744 63.4542 39.1748C63.4703 39.1699 63.4843 39.1847 63.4994 39.1992C63.5134 39.2121 63.5268 39.225 63.5419 39.224C63.6836 39.2018 63.7134 39.0557 63.7983 39.0377C63.91 39.0229 63.9922 39.0599 64.075 39.0972C64.1321 39.1226 64.1885 39.1484 64.2556 39.1574C64.2522 39.2198 64.285 39.3263 64.39 39.308C64.5226 39.2816 64.5374 39.1339 64.6973 39.0509C64.6928 38.9041 64.8011 38.7097 64.8081 38.6071C64.8084 38.554 64.7635 38.5331 64.7519 38.441C64.758 38.3783 64.8427 38.1633 64.9601 38.1141C64.9601 37.9007 65.0423 37.8196 65.0711 37.53C65.0872 37.4959 65.1018 37.4312 65.1139 37.3974C65.1455 37.3813 65.1773 37.3658 65.2083 37.3549C65.3154 37.3404 65.3991 37.3916 65.4194 37.195C65.2392 37.2066 64.9555 36.6395 64.9425 36.4471C64.9461 36.4168 64.9798 36.3634 65.008 36.3467C64.9901 36.3206 64.9774 36.2701 64.9631 36.2401C64.9631 36.2401 65.2174 36.0509 65.238 36.0223C65.2186 36.0197 65.2013 35.984 65.1943 35.9647C65.2037 35.8723 65.4085 35.8961 65.3976 35.7822C65.3961 35.6538 65.2966 35.6435 65.194 35.6319C65.0884 35.6213 64.9801 35.6094 64.9689 35.4707C64.9516 35.305 64.9634 35.1897 64.8633 35.1724C64.8463 35.1695 64.8254 35.1688 64.8011 35.172ZM67.5503 36.775C67.5606 36.9288 67.6195 36.9636 67.6231 37.0955C67.6289 37.1377 67.6228 37.2046 67.6286 37.2477C67.6186 37.3086 67.6605 37.464 67.7299 37.4502C67.7005 37.3716 67.6738 37.3337 67.6416 37.2674C67.645 37.2458 67.6456 37.2085 67.6383 37.186C67.7157 37.1654 67.7827 37.1489 67.8191 37.1267C67.8131 37.0453 67.7554 37.0119 67.7521 36.962C67.7484 36.9018 67.8258 36.8555 67.8228 36.7937C67.7111 36.7792 67.6392 36.6955 67.6155 36.5246C67.5631 36.5977 67.5494 36.6801 67.5503 36.775ZM66.9662 36.8606C66.8685 36.9703 66.7542 37.1049 66.7044 37.1843C66.6816 37.1988 66.6625 37.193 66.6383 37.1995C66.4341 37.1924 66.2335 37.1728 66.0202 37.1628C65.7942 37.2117 65.6949 37.6252 65.6998 37.921C65.6965 37.9818 65.6303 38.0771 65.6218 38.1189C65.5636 38.4108 65.4731 38.5347 65.4686 38.8092C65.468 38.9524 65.5954 38.935 65.6567 38.9318C65.6549 39.122 65.6622 39.317 65.6637 39.5123C65.671 39.5712 65.7432 39.6475 65.8054 39.6359C65.921 39.6057 65.9337 39.1789 65.938 39.1265C65.931 38.9688 65.8579 38.9086 65.8515 38.7455C65.857 38.674 65.9213 38.5936 65.985 38.5759C66.0093 38.5646 66.0272 38.5727 66.0572 38.5611C66.0405 38.6335 66.0375 38.7271 66.026 38.8201C66.0314 38.9801 66.1646 39.0032 66.1683 39.1622C66.174 39.1928 66.1746 39.2369 66.1677 39.2713C66.2074 39.2523 66.2447 39.2575 66.2839 39.2456C66.2845 39.1184 66.4705 39.0895 66.4726 38.9537C66.4328 38.9456 66.3537 38.8256 66.3503 38.7645C66.3442 38.7468 66.3773 38.7078 66.3822 38.6859C66.3297 38.6457 66.1692 38.2541 66.157 38.2241C66.4195 38.173 66.4128 37.9139 66.6103 37.7845C66.6012 37.761 66.6113 37.7153 66.6058 37.6896C66.5487 37.6809 66.1033 37.9805 66.0906 38.0066C66.0927 37.9934 66.1049 37.9709 66.1073 37.9557C66.0769 38.0117 66.0672 38.0861 66.0114 38.096C65.8906 38.1173 65.8215 37.8978 65.8096 37.7157C65.8108 37.4682 65.9504 37.4965 66.1024 37.4675C66.256 37.4357 66.313 37.3861 66.435 37.3578C66.4953 37.3494 66.5445 37.3613 66.593 37.3729C66.6383 37.3835 66.6838 37.3938 66.7372 37.3871C66.9044 37.3523 66.9541 37.1396 66.9787 36.9536C67.0011 36.9394 67.0148 36.8818 67.0154 36.8509C66.999 36.8612 66.9848 36.8538 66.9662 36.8606ZM69.4949 37.6326C69.4127 37.7067 69.3984 37.7205 69.345 37.8167C69.3304 37.8386 69.2986 38.0153 69.2327 38.0362C69.1745 38.0413 69.1105 37.8907 69.1029 37.8499C69.0207 37.8743 69.0091 37.8286 69.0091 37.7771C69.0106 37.6404 69.0222 37.5062 69.0055 37.3761C68.9624 37.3697 68.9211 37.3372 68.8771 37.3037C68.8183 37.2603 68.7552 37.2152 68.6805 37.2307C68.5604 37.2551 68.5121 37.4595 68.4199 37.4836C68.3656 37.4994 68.3192 37.5496 68.3228 37.6095C68.3295 37.772 68.4939 37.661 68.5437 37.8067C68.5519 37.8379 68.5549 37.8907 68.585 37.8962C68.6341 37.9059 68.6368 37.9248 68.6833 37.9081C68.7892 37.8875 68.7958 37.8608 68.882 37.8103C68.9023 37.7984 68.9051 37.8045 68.929 37.7993C68.8638 37.9384 68.6757 37.9699 68.5804 38.0796C68.5962 38.162 68.6657 38.0993 68.7015 38.1804C68.7403 38.2685 68.7024 38.3158 68.733 38.4175C68.7388 38.4484 68.7725 38.4388 68.8028 38.4314C68.8747 38.4043 68.8784 38.3023 68.9066 38.2045C68.9014 38.2341 68.9087 38.2743 68.9038 38.3043C68.9609 38.2537 68.9958 38.3152 69.0334 38.3767C69.0634 38.4272 69.0959 38.4777 69.1429 38.4677C69.2346 38.442 69.4142 38.4414 69.4758 38.4713C69.5622 38.5363 69.683 38.5678 69.7134 38.6898C69.7294 38.8391 69.6903 39 69.7658 39.1168C69.727 39.1703 69.6235 39.2555 69.6172 39.3823C69.6126 39.4609 69.6417 39.4657 69.7018 39.4293C69.764 39.4065 69.7558 39.409 69.8171 39.3862C69.8308 39.3354 69.8657 39.2999 69.9045 39.2919C69.9834 39.2658 70.024 39.3279 70.0592 39.3897C70.0953 39.4515 70.1275 39.512 70.1906 39.4818C70.3029 39.428 70.3083 39.4325 70.3736 39.3978C70.3897 39.3299 70.4197 39.2771 70.4145 39.1426C70.4755 39.0486 70.4934 38.8639 70.6011 38.813C70.7613 38.7384 70.8129 38.99 70.8648 39.1378C70.8788 39.1622 70.9024 39.1529 70.8961 39.1938C70.9046 39.3115 70.8757 39.3672 70.9898 39.3547C71.0135 39.2427 71.0344 39.1294 71.0569 39.0171C71.039 39.0132 71.0332 38.99 71.0235 38.9537C70.9965 38.8539 71.0104 38.7815 70.9874 38.7039C70.9631 38.6872 70.9246 38.5562 70.9273 38.5067C70.9319 38.4159 70.9931 38.4108 71.012 38.31C71.0223 38.1652 71.0098 38.1903 70.9777 38.2113C70.9592 38.2235 70.934 38.2347 70.9027 38.2106C70.8096 38.134 70.8305 37.8737 70.6891 37.8186C70.6494 37.8499 70.6372 37.8196 70.6312 37.7379C70.5781 37.7568 70.572 37.7243 70.5653 37.6915C70.5587 37.6584 70.5523 37.6249 70.4968 37.6478C70.3778 37.6741 70.2386 37.6358 70.1621 37.5477C70.1645 37.547 70.1642 37.538 70.1639 37.5367C70.1685 37.5345 70.1582 37.5342 70.1518 37.5354C70.1026 37.5293 70.0859 37.5242 70.0559 37.4737C69.9782 37.5116 69.9955 37.5023 69.9087 37.5219C69.855 37.484 69.8299 37.3784 69.7637 37.3594C69.7331 37.3572 69.6994 37.3768 69.6951 37.3253C69.6172 37.3736 69.5522 37.5831 69.4949 37.6326ZM71.2071 37.9689C71.1203 38.0121 71.1879 37.9937 71.0981 38.0262C71.0969 38.134 71.1163 38.0536 71.1791 38.1417C71.1843 38.1421 71.1852 38.1421 71.1791 38.1417C71.1773 38.152 71.1797 38.1646 71.1895 38.1662C71.2058 38.0912 71.2177 38.0204 71.2295 37.9432C71.2192 37.9631 71.2049 37.9815 71.2071 37.9689ZM68.1814 38.2096C68.1229 38.2154 68.0871 38.2656 68.0728 38.1894C67.9636 38.2084 67.8543 38.2409 67.7318 38.2695C67.7272 38.2972 67.6781 38.3364 67.6771 38.387C67.6771 38.387 67.7754 38.4014 67.8143 38.4008C67.8868 38.3773 67.9275 38.3722 67.99 38.3583C68.0455 38.3432 68.084 38.3628 68.1219 38.3837C68.1587 38.4031 68.1951 38.4214 68.2451 38.4098C68.263 38.3998 68.2961 38.395 68.2903 38.3751C68.3031 38.2956 68.2096 38.2827 68.2024 38.1903C68.1969 38.1981 68.1832 38.1981 68.1814 38.2096ZM51.7883 36.7657C51.8053 36.9732 51.9849 37.1683 52.1979 37.1518C52.4846 37.1155 52.6381 36.7583 52.6254 36.4825C52.5711 35.9898 52.1436 35.8601 51.8902 35.5109C51.9281 35.9743 51.7564 36.3155 51.7883 36.7657ZM58.0607 36.7724C57.9764 36.7415 57.9303 36.6682 57.7955 36.6781C57.7779 36.6807 57.7424 36.6862 57.7209 36.6862C57.7267 36.7139 57.7242 36.7705 57.7327 36.7959C57.7746 36.9269 58.0161 37.2825 58.1084 37.3031C58.2258 37.3134 58.3441 37.2783 58.4057 37.3926C58.4888 37.5252 58.5507 37.6436 58.6184 37.7758C58.7213 37.947 58.9916 37.8618 59.1039 38.164C59.1254 38.2479 59.2504 38.5826 59.3023 38.61C59.3181 38.619 59.363 38.6254 59.4067 38.6312C59.451 38.6377 59.4934 38.6438 59.5028 38.6515C59.5204 38.6837 59.5165 38.7632 59.5475 38.767C59.5754 38.7654 59.7453 39.0206 59.7677 39.0695C59.9203 39.3691 60.0293 39.5783 60.2714 39.8084C60.5047 40.0115 60.7098 40.0884 60.941 40.2928C60.948 40.3063 61.1789 40.5978 61.2296 40.5975C61.2966 40.5837 61.5224 40.5051 61.5315 40.3664C61.5239 40.2316 61.472 40.0768 61.5773 39.9973C61.5815 39.8223 61.563 39.6295 61.5564 39.4428C61.553 39.3186 61.3952 39.298 61.3154 39.2304C61.1923 39.1072 61.0427 39.0547 61.0278 38.7725C60.8976 38.796 60.803 38.7722 60.796 38.5945C60.8087 38.5604 60.8266 38.4919 60.8391 38.4555C60.8112 38.4179 60.7647 38.3474 60.7241 38.3522C60.6977 38.3574 60.6555 38.3596 60.6322 38.3641C60.6373 38.3471 60.6464 38.313 60.6498 38.2949C60.6291 38.0935 60.4346 38.0565 60.2526 38.0146C59.9122 37.9358 59.7768 37.7877 59.5198 37.5538C59.4024 37.4392 59.3065 37.2909 59.1075 37.2416C59.0659 37.2362 58.9892 37.2378 58.9688 37.1866C58.8517 36.9813 58.7577 36.7914 58.4715 36.7242C58.3374 36.7386 58.2036 36.7592 58.0607 36.7724ZM67.269 38.4813C67.2645 38.5611 67.3546 38.6785 67.4134 38.6721C67.4423 38.6634 67.4945 38.5205 67.4911 38.5006C67.4938 38.4443 67.4411 38.4043 67.3858 38.3947C67.3285 38.3847 67.2693 38.4085 67.269 38.4813ZM69.02 39.0007C69.0106 39.0599 68.9557 39.0924 68.9493 39.2079C68.9445 39.2382 68.9572 39.2877 68.9875 39.2813C69.0592 39.2555 69.0276 39.1529 69.0303 39.0403C69.0786 39.0306 69.0831 38.9759 69.0868 38.916C69.0995 38.8472 69.0692 38.8925 69.0643 38.8044C69.0048 38.843 69.0237 38.9267 69.02 39.0007ZM70.1426 40.268C70.1223 40.5512 70.0829 40.8324 70.0568 41.1134C70.0097 41.3441 69.9169 41.8893 69.7534 41.9903C69.7 42.0154 69.6787 41.9694 69.6554 41.9221C69.6384 41.8864 69.6193 41.8503 69.5847 41.8455C69.4709 41.8201 69.3835 41.8182 69.2351 41.7943C69.1969 41.7802 69.2445 41.6801 69.1936 41.628C69.172 41.6215 69.1514 41.6231 69.1341 41.626C69.1016 41.6309 69.081 41.6376 69.0834 41.5852C69.1226 41.4162 69.1596 41.2421 69.2005 41.0654C69.2539 40.9789 69.3444 40.9509 69.3574 40.8096C69.3738 40.7369 69.304 40.6667 69.2497 40.6822C69.1547 40.7343 69.1514 40.7961 69.0713 40.8312C68.8346 40.9187 68.7257 40.8299 68.4975 40.7658C68.496 40.8823 68.5785 40.8807 68.6068 40.9579C68.574 40.9715 68.5415 41.041 68.4784 41.0728C68.3595 41.1185 68.0855 41.2987 68.0627 41.4477C68.0467 41.5842 67.9499 41.693 67.9305 41.84C67.9317 41.9279 67.9365 41.9935 67.8892 42.0956C67.8813 42.0853 67.8249 42.0585 67.7839 42.0611C67.7068 42.1065 67.6568 42.1393 67.6137 42.2294C67.6052 42.0376 67.5533 41.8716 67.4086 41.9176C67.252 41.9691 67.2001 42.1821 66.9817 42.2581C66.948 42.5007 66.7948 42.594 66.765 42.8821C66.701 42.931 66.6652 42.8772 66.5982 42.8557C66.5505 42.9731 66.5869 43.1183 66.4832 43.2229C66.4641 43.1466 66.4064 43.1321 66.3752 43.0587C66.2793 43.125 66.2517 43.2441 66.2483 43.3497C66.2398 43.4028 66.2392 43.4694 66.2365 43.5238C66.2062 43.8755 65.4913 44.3743 65.1572 44.5391C64.9913 44.6221 64.6515 44.7335 64.5286 44.8934C64.4196 45.0382 64.1891 45.3539 64.0022 45.4247C63.9924 45.3929 64.0006 45.3578 63.9967 45.3266C63.9648 45.3571 63.8875 45.3999 63.8835 45.4772C63.8708 45.679 63.8605 45.8646 63.8423 46.0622C63.8277 46.3158 63.9272 46.4017 63.9175 46.5395C63.9123 46.5871 63.9254 46.6203 63.9063 46.6656C63.8653 46.6531 63.8453 46.6138 63.8304 46.5649C63.8104 46.6158 63.7889 46.673 63.7619 46.7075C63.7112 46.8774 63.8899 46.8626 63.919 46.9868C64.0222 47.3424 64.0191 47.4425 64.0756 47.8036C64.108 47.9526 64.2115 48.0404 64.179 48.2998C64.1408 48.5055 63.9418 48.6335 63.916 48.7645C63.912 48.8845 64.2852 48.901 64.4339 48.8479C64.8214 48.6886 64.9807 48.3806 65.271 48.248C65.3766 48.2103 65.3769 48.1383 65.4943 48.1531C65.6509 48.0655 65.809 47.9735 65.9674 47.8866C66.123 47.4235 66.546 47.3575 66.938 47.0389C67.1015 46.8928 67.1756 46.7512 67.4165 46.6174C67.6322 46.4864 67.9587 46.3686 68.0275 46.4671C68.0509 46.5768 68.0488 46.7532 68.0849 46.7908C69.1113 45.1052 69.9257 43.2715 70.4973 41.3361C70.4955 41.3071 70.4952 41.2785 70.4931 41.2447C70.5007 41.1192 70.5277 40.8408 70.4931 40.7858C70.4488 40.7739 70.4612 40.7674 70.3581 40.7719C70.2628 40.6793 70.3708 40.5557 70.3547 40.4257C70.3656 40.2586 70.3125 40.1315 70.3083 39.8734C70.2203 40.0054 70.2352 40.1045 70.1426 40.268ZM41.5232 35.4108C41.5298 35.4659 41.6445 35.5048 41.6752 35.5009C41.7538 35.4929 41.8794 35.3468 41.8921 35.3005C41.718 35.3165 41.6382 35.3564 41.5232 35.4108ZM58.6699 38.3548L58.6836 38.3532C58.6954 38.4146 58.8805 38.6248 58.9224 38.6196C59.0003 38.6042 58.8037 38.3654 58.7288 38.3204C58.7154 38.3284 58.6863 38.3496 58.6699 38.3548ZM61.3342 39.0959C61.3387 39.1374 61.3831 39.1407 61.4334 39.1458C61.4844 39.151 61.5417 39.1558 61.5684 39.2037C61.5806 39.2356 61.6349 39.3717 61.6558 39.3753C61.6731 39.372 61.6947 39.3862 61.7183 39.4017C61.745 39.4181 61.7745 39.4348 61.8054 39.429C61.8288 39.43 61.8624 39.4155 61.8855 39.4165C61.8737 39.3846 61.864 39.3235 61.8694 39.2893C61.7032 39.3138 61.6309 39.0792 61.5663 38.8913C61.4977 38.9057 61.3272 39.0451 61.3342 39.0959ZM62.269 39.2111C62.2387 39.2189 62.1941 39.225 62.1601 39.2295C62.1656 39.2459 62.1607 39.2771 62.1628 39.2935C62.1671 39.345 62.1965 39.4467 62.2566 39.4335C62.3139 39.429 62.3664 39.3215 62.3722 39.2607C62.3455 39.2504 62.3109 39.2179 62.279 39.2124C62.2754 39.2118 62.2721 39.2111 62.269 39.2111ZM66.9646 40.4784C66.9574 40.5068 66.9461 40.5753 66.92 40.5937C66.8002 40.686 66.6288 40.7205 66.6239 40.9837C66.6254 41.0236 66.6418 41.077 66.6825 41.0725C66.7826 41.0423 66.9213 40.8746 66.9643 40.7996C66.9892 40.7633 66.9492 40.6648 66.9935 40.6416C67.1249 40.6104 67.39 40.4443 67.4783 40.2467C67.4723 40.2432 67.465 40.241 67.4562 40.2393C67.3524 40.2213 67.0614 40.3584 66.9646 40.4784ZM59.1569 39.0856C59.153 39.0998 59.1648 39.1265 59.1609 39.1397C59.1693 39.2121 59.3462 39.421 59.3978 39.4297C59.4057 39.3 59.3478 39.233 59.2604 39.1394C59.2667 39.122 59.2579 39.0914 59.2573 39.0741C59.2306 39.0757 59.1842 39.0824 59.1569 39.0856ZM66.2462 40.5592C66.099 40.5843 66.0653 40.5341 65.889 40.5624C65.8223 40.5773 65.7231 40.5898 65.7237 40.6863C65.7152 40.8096 65.8584 40.7671 65.9206 40.7562C66.0265 40.7201 66.1221 40.7008 66.244 40.678C66.3478 40.5979 66.4397 40.5505 66.501 40.3771C66.4206 40.454 66.3694 40.5238 66.2462 40.5592ZM68.0909 40.9531C68.1307 40.9917 68.2093 41.0114 68.2982 40.9847C68.3297 40.9705 68.3403 40.976 68.371 40.9615C68.3691 40.9135 68.3734 40.8556 68.3804 40.8073C68.2827 40.8331 68.2314 40.8695 68.0909 40.9531ZM65.2576 40.7214C65.2504 40.7485 65.2461 40.7929 65.247 40.8183C65.1961 40.8096 65.1554 40.7977 65.0662 40.8106C64.9852 40.8479 64.9014 40.836 64.9005 40.9692C64.9002 41.0094 65.0161 41.0271 65.0932 41.0107C65.193 40.9895 65.2252 40.9087 65.3214 40.837C65.3481 40.8495 65.3702 40.8588 65.3969 40.8679C65.423 40.8502 65.4537 40.8572 65.4807 40.8479C65.46 40.8283 65.4804 40.7691 65.4837 40.6709C65.4075 40.6954 65.3377 40.7031 65.2576 40.7214ZM63.9654 40.4958C63.8598 40.5338 63.7652 40.5676 63.6559 40.6056C63.5634 40.623 63.4994 40.5808 63.4314 40.5396C63.3616 40.4965 63.2885 40.453 63.1787 40.4698C63.0588 40.4984 63.0364 40.6857 62.8622 40.7185C62.6847 40.7546 62.5579 40.6732 62.4301 40.593C62.3073 40.5148 62.185 40.4369 62.0202 40.4637C61.9611 40.4662 61.9019 40.5624 61.8427 40.5705C61.8276 40.5724 61.8136 40.5618 61.7993 40.5518C61.7845 40.5406 61.7687 40.5306 61.755 40.5338C61.6941 40.5493 61.4911 40.8212 61.4783 40.8495C61.6643 40.8341 61.7305 40.9567 61.8558 41.0638C61.9793 41.1823 62.1285 41.022 62.3015 41.0481C62.526 41.0851 62.6962 41.069 62.898 41.0233C62.9535 41.0201 62.9884 41.0506 63.0236 41.0809C63.0612 41.114 63.0998 41.1475 63.1671 41.1369C63.5843 41.0519 63.9272 41.0056 64.2618 41.0967C64.2594 41.0632 64.2324 40.984 64.2628 40.976C64.3356 40.9631 64.362 40.9792 64.3853 40.9959C64.4066 41.0094 64.4251 41.0236 64.4712 41.0175C64.4879 41.0043 64.5647 40.9013 64.5801 40.8601C64.5106 40.8296 64.5173 40.809 64.4205 40.7842C64.3268 40.7716 64.2494 40.8778 64.1805 40.8086C64.1593 40.7922 64.1572 40.7015 64.0995 40.7163C63.9187 40.7456 63.7803 40.7575 63.6665 40.6413C63.6875 40.65 64.0343 40.5293 64.0446 40.4794C64.0188 40.4865 63.9879 40.49 63.9654 40.4958ZM65.6921 40.9531C65.623 40.9641 65.5198 40.9724 65.5146 41.0674C65.5162 41.1938 65.6633 41.1613 65.7522 41.1398C65.7546 41.1697 65.7565 41.2936 65.8038 41.2782C65.8171 41.274 65.8287 41.2727 65.8399 41.2685C65.8696 41.2685 65.9121 41.1987 65.9151 41.1678C65.9015 41.0188 65.7926 41.0989 65.7838 40.9316C65.751 40.9348 65.7264 40.9509 65.6921 40.9531ZM64.7661 40.8205C64.7355 40.8164 64.7073 40.8337 64.6787 40.837C64.6806 40.873 64.6815 40.9271 64.679 40.9605C64.6824 40.9885 64.7273 41.0272 64.7549 41.0259C64.805 41.0127 64.8392 40.9432 64.8541 40.8839C64.8201 40.8688 64.8156 40.8234 64.7858 40.8183C64.781 40.8176 64.774 40.8183 64.7661 40.8205ZM41.0656 44.8992C41.0395 44.9839 41.1035 45.193 41.0537 45.2577C40.8944 45.454 40.6126 45.8917 40.371 46.05C40.0673 46.2586 39.6723 46.2019 39.7691 46.7603C39.8094 46.9382 40.0215 47.2182 40.05 47.345C40.0467 47.3646 39.9284 47.83 39.9284 47.83C39.9102 47.8351 39.7524 47.9964 39.7533 48.0385C39.7839 48.1972 39.8252 48.36 39.9769 48.4662C40.0097 48.5293 39.9833 48.5885 40.0136 48.7295C40.0725 48.9972 40.3677 49.3036 40.6481 49.3161C41.3095 49.3451 41.2819 48.6603 41.3878 48.165C41.527 47.5448 41.6897 46.9974 41.5507 46.1382C41.5662 46.1372 41.7091 46.1759 41.7582 46.1926C41.7561 46.1434 41.741 46.0677 41.7282 46.0198C41.5707 45.705 41.4861 44.9713 41.0801 44.9011C41.0756 44.9002 41.0707 44.8995 41.0656 44.8992Z" fill="#B2B3B3"/>
<path d="M57.5363 13.5935C57.5363 13.5935 60.0031 14.343 63.7648 17.38C63.7648 17.38 60.6478 14.9799 57.5363 13.5935Z" fill="white"/>
<path d="M49.4352 11.8721L49.332 57.6691" stroke="#9D9E9E" stroke-width="0.287999"/>
<path d="M54.6479 12.8108C68.5636 23.5716 65.1688 50.0855 56.7912 56.2701" stroke="#9D9E9E" stroke-width="0.287999"/>
<path d="M43.8105 12.9119C29.902 21.9864 33.2234 50.7164 42.5835 56.4073" stroke="#9D9E9E" stroke-width="0.287999"/>
<path d="M27.5621 35.4146C42.1095 40.4481 56.7966 40.2901 71.6196 35.0857" stroke="#9D9E9E" stroke-width="0.287999"/>
<path d="M29.4621 25.4166C42.7416 29.2469 56.1488 29.1268 69.6801 25.1663" stroke="#9D9E9E" stroke-width="0.287999"/>
<path d="M36.1296 16.6194C44.725 18.3253 53.4026 18.2716 62.1606 16.5081" stroke="#9D9E9E" stroke-width="0.287999"/>
<path d="M30.5076 45.6787C43.0028 51.921 55.7629 51.735 68.7735 45.3772" stroke="#9D9E9E" stroke-width="0.287999"/>
</g>
<path fill-rule="evenodd" clip-rule="evenodd" d="M49.444 12.3452C61.3903 12.3452 71.0747 22.4064 71.0747 34.8175C71.0747 47.2286 61.3903 57.2898 49.444 57.2898C37.4976 57.2898 27.8133 47.2286 27.8133 34.8175C27.8133 22.4064 37.4976 12.3452 49.444 12.3452Z" stroke="#F5A056" stroke-width="0.755902"/>
<path d="M34.29 77.2717H37.2871L31.4127 87.8432H28.2961L22.3361 77.2717H25.3332L29.8371 85.3003L34.29 77.2717ZM42.1505 87.8432H39.1707V79.8874H42.1505V87.8432ZM39.1707 76.1453H42.1505V78.761H39.1707V76.1453ZM55.8854 77.2716C56.6962 77.2716 57.3983 77.5017 57.9921 77.9616C58.5743 78.4218 58.8653 79.0699 58.8653 79.9053C58.8653 80.1354 58.854 80.3414 58.831 80.5229C58.8082 80.7047 58.7682 80.874 58.7111 81.0314C58.6086 81.3464 58.0776 81.8369 57.1185 82.5027C58.2032 82.9265 58.7682 83.3143 58.814 83.6654C58.8368 83.8106 58.854 83.9834 58.8653 84.1832C58.8768 84.3827 58.8826 84.6099 58.8826 84.8642V85.2095C58.8826 85.9358 58.5913 86.5595 58.009 87.0802C57.4268 87.589 56.7247 87.8432 55.9024 87.8432H43.9315V77.2716L55.8854 77.2716ZM46.9114 79.9234V85.2095H54.1044C54.5495 85.2095 54.8808 85.0943 55.0975 84.8642C55.166 84.7914 55.2003 84.7129 55.2003 84.628C55.2003 84.4101 55.0177 84.162 54.6524 83.8833H48.8638V81.2312H54.6524C55.0177 80.9528 55.2003 80.7105 55.2003 80.5049C55.2003 80.4199 55.166 80.3414 55.0975 80.2687C54.8808 80.0386 54.5437 79.9234 54.0871 79.9234H46.9114ZM75.7001 83.8833V81.2312H64.2772C64.2772 81.0861 64.34 80.9377 64.4653 80.7865C64.591 80.6349 64.7909 80.4955 65.0649 80.3684C65.3389 80.2413 65.6872 80.1354 66.1095 80.0508C66.5319 79.9658 67.0401 79.9234 67.6339 79.9234H75.7344V77.2352H66.4008C65.3161 77.2352 64.1173 77.6468 62.8042 78.4704C61.514 79.2817 60.8405 80.6622 60.7834 82.6118V87.8432H75.7345V85.1911H64.2773V83.8833H75.7001Z" fill="white"/>
<path d="M5.36222 93.9296L3.91554 94.2569C3.76566 93.3771 3.3964 92.9381 2.80779 92.9381C2.50103 92.9381 2.24404 93.0421 2.0353 93.2503C1.82837 93.4604 1.6891 93.7459 1.61598 94.1073C1.54286 94.4687 1.50554 94.9929 1.50554 95.6761C1.50554 96.5785 1.54832 97.216 1.63024 97.5909C1.71428 97.9674 1.87297 98.2435 2.10478 98.4196C2.33507 98.5972 2.58842 98.6864 2.86483 98.6864C3.07358 98.6864 3.27504 98.6465 3.47135 98.567C3.66584 98.4875 3.85304 98.3703 4.03509 98.2152V96.8623H2.88637V95.5757H5.48905V98.9966C4.96263 99.4185 4.49173 99.6911 4.07606 99.814C3.6622 99.9388 3.22863 99.9993 2.77563 99.9993C1.89087 99.9993 1.20759 99.6759 0.724247 99.0307C0.242427 98.3835 0 97.3544 0 95.9429C0 95.2182 0.0442983 94.59 0.133502 94.0599C0.222705 93.5302 0.412035 93.0688 0.702705 92.6752C0.993375 92.2816 1.31469 92.0032 1.66423 91.8407C2.01558 91.6779 2.4261 91.5965 2.89518 91.5965C3.61396 91.5965 4.17437 91.7744 4.57912 92.132C4.98236 92.4879 5.24449 93.0874 5.36222 93.9296ZM6.85197 91.7348H8.30957V98.5689H11.2208V99.8613H6.85197V91.7348ZM14.471 91.5965C15.411 91.5965 16.114 91.9427 16.5779 92.6391C17.0397 93.3336 17.2718 94.4233 17.2718 95.9088C17.2718 96.9325 17.161 97.7309 16.9399 98.304C16.7187 98.8756 16.4031 99.3033 15.9926 99.5813C15.5806 99.8613 15.0793 99.9993 14.4871 99.9993C13.9643 99.9993 13.5343 99.9067 13.1991 99.7232C12.862 99.5379 12.5746 99.2463 12.3356 98.8473C12.0965 98.4479 11.9323 97.9825 11.8398 97.4525C11.7469 96.9228 11.7005 96.3361 11.7005 95.6928C11.7005 94.3251 11.9323 93.3014 12.3926 92.6182C12.8547 91.9373 13.5468 91.5965 14.471 91.5965ZM13.2115 96.0864C13.2115 97.0725 13.3274 97.7515 13.5611 98.1206C13.795 98.4894 14.1072 98.6751 14.4977 98.6751C14.8172 98.6751 15.09 98.5518 15.3148 98.306C15.5396 98.0601 15.6734 97.7022 15.7144 97.2311C15.7572 96.76 15.7769 96.1756 15.7769 95.4772C15.7769 94.4973 15.6555 93.8292 15.411 93.4736C15.1685 93.1161 14.86 92.9381 14.4871 92.9381C14.1837 92.9381 13.9215 93.0591 13.7003 93.3014C13.4791 93.5434 13.3471 93.854 13.3025 94.2321C13.2598 94.6106 13.2294 95.2294 13.2115 96.0864ZM18.5206 91.7348H20.7522C21.1288 91.7348 21.4747 91.7915 21.7924 91.9032C22.1097 92.0168 22.3755 92.2362 22.5915 92.5635C22.8073 92.8908 22.9162 93.2844 22.9162 93.7478C22.9162 94.1945 22.8164 94.5691 22.6146 94.8719C22.415 95.1744 22.1152 95.4074 21.7138 95.5644C22.215 95.6684 22.5915 95.8898 22.8431 96.2283C23.0946 96.5653 23.2193 97.0213 23.2193 97.5944C23.2193 98.0372 23.1249 98.444 22.9377 98.817C22.7484 99.1877 22.4826 99.4545 22.1367 99.6174C21.7924 99.7799 21.3749 99.8613 20.8824 99.8613H18.5206L18.5206 91.7348ZM19.9476 95.0119H20.349C20.7325 95.0119 21.0199 94.9285 21.2089 94.7621C21.3997 94.5954 21.4944 94.3476 21.4944 94.0184C21.4944 93.6969 21.4052 93.4565 21.2286 93.2956C21.0502 93.1347 20.7844 93.0536 20.4276 93.0536H19.9476V95.0119ZM19.9476 98.5425H20.4276C20.9128 98.5425 21.2483 98.4421 21.4337 98.2397C21.6209 98.0392 21.7138 97.7631 21.7138 97.411C21.7138 97.1671 21.664 96.9608 21.5657 96.7922C21.4659 96.6258 21.3357 96.5067 21.1734 96.4346C21.0111 96.3648 20.7629 96.3307 20.4276 96.3307H19.9476L19.9476 98.5425ZM26.0935 91.7348H27.6704L29.8449 99.8613H28.3358L27.979 98.2529H25.7634L25.403 99.8613H23.8974L26.0935 91.7348ZM27.6813 96.9228L26.8818 93.2429L26.0614 96.9228H27.6813ZM30.5926 91.7348H32.0502V98.5689H34.9614V99.8613H30.5926V91.7348ZM38.6254 91.7348H40.0936V99.8613H38.6254V91.7348ZM41.0497 91.7348H46.0269V93.0044H44.2592V99.8613H42.8231V93.0044H41.0497V91.7348ZM54.1632 94.0184L52.7111 94.1073C52.6237 93.2786 52.317 92.866 51.7905 92.866C51.5675 92.866 51.3803 92.9381 51.2286 93.0819C51.0769 93.2258 51.002 93.4186 51.002 93.659C51.002 93.8652 51.0736 94.0657 51.2162 94.2569C51.3551 94.45 51.7389 94.7016 52.3649 95.0157C53.0731 95.3713 53.5834 95.7366 53.8974 96.115C54.2096 96.4951 54.3665 96.9759 54.3665 97.5548C54.3665 98.268 54.1453 98.8546 53.7029 99.3126C53.2606 99.7705 52.6522 99.9993 51.8797 99.9993C50.2598 99.9993 49.4215 99.078 49.3663 97.233L50.8345 97.095C50.8754 97.6929 50.9895 98.1093 51.177 98.3401C51.3624 98.5708 51.6176 98.6863 51.9422 98.6863C52.2724 98.6863 52.5221 98.5821 52.6895 98.3761C52.8573 98.1679 52.9411 97.9333 52.9411 97.672C52.9411 97.4168 52.8591 97.1857 52.695 96.9798C52.5272 96.7715 52.076 96.4932 51.3409 96.1414C50.6133 95.7913 50.1351 95.4244 49.9085 95.0441C49.6818 94.6675 49.5695 94.253 49.5695 93.8028C49.5695 93.322 49.6767 92.9191 49.8906 92.5918C50.1048 92.2645 50.376 92.0167 50.704 91.8481C51.0305 91.6798 51.4355 91.5965 51.9155 91.5965C52.6719 91.5965 53.2229 91.8027 53.571 92.2172C53.9169 92.6314 54.115 93.2313 54.1632 94.0184ZM58.0718 91.5965C59.0118 91.5965 59.7148 91.9427 60.1787 92.6391C60.6405 93.3336 60.8726 94.4233 60.8726 95.9088C60.8726 96.9325 60.7619 97.7309 60.5407 98.304C60.3195 98.8756 60.0039 99.3033 59.5934 99.5813C59.1814 99.8613 58.6801 99.9993 58.0879 99.9993C57.5651 99.9993 57.1352 99.9067 56.7999 99.7232C56.4628 99.5379 56.1755 99.2463 55.9364 98.8472C55.6973 98.4479 55.5331 97.9825 55.4406 97.4525C55.3477 96.9228 55.3013 96.3361 55.3013 95.6928C55.3013 94.3251 55.5331 93.3014 55.9934 92.6182C56.4555 91.9372 57.1476 91.5965 58.0718 91.5965ZM56.8123 96.0864C56.8123 97.0724 56.9282 97.7515 57.1619 98.1206C57.3958 98.4894 57.708 98.6751 58.0985 98.6751C58.418 98.6751 58.6908 98.5518 58.9156 98.306C59.1404 98.0601 59.2742 97.7022 59.3152 97.2311C59.358 96.76 59.3777 96.1755 59.3777 95.4772C59.3777 94.4973 59.2563 93.8292 59.0118 93.4736C58.7693 93.1161 58.4608 92.9381 58.0879 92.9381C57.7845 92.9381 57.5223 93.0591 57.3011 93.3014C57.0799 93.5434 56.948 93.854 56.9034 94.2321C56.8606 94.6106 56.8302 95.2294 56.8123 96.0864ZM62.1482 91.7348H63.6058V98.5689H66.517V99.8613H62.1482V91.7348ZM67.1912 91.7348H68.6433V96.851C68.6433 97.2501 68.6664 97.5738 68.7146 97.8216C68.761 98.0694 68.8718 98.2699 69.0429 98.4234C69.2159 98.5766 69.437 98.6522 69.7101 98.6522C69.9741 98.6522 70.1847 98.5937 70.3415 98.4723C70.4987 98.3533 70.6091 98.185 70.6735 97.9709C70.7378 97.7573 70.7715 97.4071 70.7715 96.9228V91.7348H72.2342V97.0174C72.2342 97.6569 72.1578 98.1962 72.0042 98.6332C71.8507 99.0722 71.5886 99.4091 71.2157 99.6457C70.8428 99.8822 70.3649 99.9993 69.7832 99.9993C69.1767 99.9993 68.6897 99.9028 68.3223 99.712C67.9546 99.5189 67.6745 99.1971 67.4803 98.7449C67.2877 98.2908 67.1912 97.6153 67.1912 96.7184V91.7348ZM73.1888 91.7348H78.1659V93.0044H76.3983V99.8613H74.9622V93.0044H73.1888V91.7348ZM79.1275 91.7348H80.5957V99.8613H79.1275V91.7348ZM84.6362 91.5964C85.5762 91.5964 86.2792 91.9427 86.7431 92.6391C87.2049 93.3336 87.437 94.4233 87.437 95.9088C87.437 96.9324 87.3263 97.7309 87.1051 98.304C86.8839 98.8756 86.5684 99.3033 86.1578 99.5813C85.7458 99.8613 85.2446 99.9993 84.6523 99.9993C84.1295 99.9993 83.6996 99.9067 83.3643 99.7232C83.0272 99.5379 82.7399 99.2463 82.5008 98.8472C82.2617 98.4479 82.0976 97.9825 82.005 97.4525C81.9122 96.9228 81.8658 96.3361 81.8658 95.6928C81.8658 94.3251 82.0976 93.3014 82.5578 92.6182C83.0199 91.9372 83.712 91.5964 84.6362 91.5964ZM83.3768 96.0864C83.3768 97.0724 83.4927 97.7515 83.7263 98.1206C83.9602 98.4894 84.2724 98.6751 84.6629 98.6751C84.9824 98.6751 85.2552 98.5518 85.48 98.306C85.7048 98.0601 85.8387 97.7022 85.8796 97.2311C85.9224 96.76 85.9421 96.1755 85.9421 95.4772C85.9421 94.4973 85.8208 93.8292 85.5762 93.4736C85.3338 93.1161 85.0252 92.9381 84.6523 92.9381C84.3489 92.9381 84.0867 93.0591 83.8656 93.3014C83.6444 93.5434 83.5124 93.854 83.4678 94.2321C83.425 94.6106 83.3947 95.2294 83.3768 96.0864ZM88.6859 91.7348H90.1702L92.3857 96.851V91.7348H93.7395V99.8613H92.318L89.9399 94.5388L90.013 99.8613H88.6859V91.7348ZM99.7963 94.0184L98.3441 94.1072C98.2568 93.2786 97.95 92.866 97.4236 92.866C97.2006 92.866 97.0134 92.9381 96.8617 93.0819C96.7099 93.2258 96.635 93.4185 96.635 93.6589C96.635 93.8652 96.7066 94.0657 96.8492 94.2569C96.9882 94.45 97.372 94.7016 97.9979 95.0157C98.7061 95.3713 99.2165 95.7366 99.5305 96.115C99.8427 96.4951 99.9996 96.9759 99.9996 97.5548C99.9996 98.268 99.7784 98.8546 99.336 99.3126C98.8936 99.7705 98.2853 99.9993 97.5128 99.9993C95.8929 99.9993 95.0545 99.078 94.9993 97.233L96.4675 97.095C96.5085 97.6929 96.6226 98.1093 96.8101 98.3401C96.9955 98.5708 97.2506 98.6863 97.5753 98.6863C97.9054 98.6863 98.1551 98.5821 98.3226 98.3761C98.4904 98.1679 98.5741 97.9333 98.5741 97.672C98.5741 97.4168 98.4922 97.1857 98.3281 96.9797C98.1603 96.7715 97.7091 96.4932 96.9739 96.1414C96.2463 95.7913 95.7682 95.4244 95.5415 95.044C95.3149 94.6675 95.2026 94.253 95.2026 93.8028C95.2026 93.322 95.3097 92.9191 95.5236 92.5918C95.7378 92.2645 96.0091 92.0167 96.3371 91.8481C96.6635 91.6798 97.0686 91.5964 97.5486 91.5964C98.305 91.5964 98.856 91.8027 99.204 92.2172C99.5499 92.6314 99.748 93.2313 99.7963 94.0184Z" fill="white"/>
<path d="M56.5556 22.0874H61.3149L51.9868 47.5477H47.0372L37.5731 22.0874H42.3325L49.4848 41.4233L56.5556 22.0874Z" fill="#393185" stroke="#FEFEFE" stroke-width="0.377952"/>
</g>
<defs>
<clipPath id="clip0_121_336">
<rect width="100" height="100" fill="white"/>
</clipPath>
</defs>
</svg>
